<?xml version="1.0" encoding="UTF-8" standalone="no"?>
<svg
   width="1600"
   height="725"
   viewBox="-936 0 1600 725"
   version="1.2"
   id="svg129"
   sodipodi:docname="cmp.svg"
   inkscape:version="1.4 (e7c3feb100, 2024-10-09)"
   xmlns:inkscape="http://www.inkscape.org/namespaces/inkscape"
   xmlns:sodipodi="http://sodipodi.sourceforge.net/DTD/sodipodi-0.dtd"
   xmlns="http://www.w3.org/2000/svg"
   xmlns:svg="http://www.w3.org/2000/svg"
   xmlns:rdf="http://www.w3.org/1999/02/22-rdf-syntax-ns#"
   xmlns:cc="http://creativecommons.org/ns#"
   xmlns:dc="http://purl.org/dc/elements/1.1/"><defs
   id="defs129" />
<sodipodi:namedview
   id="namedview129"
   pagecolor="#ffffff"
   bordercolor="#000000"
   borderopacity="0.25"
   inkscape:showpageshadow="2"
   inkscape:pageopacity="0.0"
   inkscape:pagecheckerboard="0"
   inkscape:deskcolor="#d1d1d1"
   inkscape:zoom="1"
   inkscape:cx="328.5"
   inkscape:cy="923"
   inkscape:window-width="1918"
   inkscape:window-height="1178"
   inkscape:window-x="0"
   inkscape:window-y="20"
   inkscape:window-maximized="1"
   inkscape:current-layer="svg129" />
<title
   id="title1">Regfile</title>
\n<g
   id="g130"
   transform="translate(-83.31848,-172.41824)">
  <g
     id="g1">
    <path
       fill="none"
       stroke="#000000"
       stroke-width="4"
       stroke-linecap="round"
       stroke-linejoin="round"
       d="M -389,417 V 622"
       id="path1" />
  </g>
  <g
     id="g2">
    <path
       fill="none"
       stroke="#000000"
       stroke-width="4"
       stroke-linecap="round"
       stroke-linejoin="round"
       d="m -436.842,444.582 0.137,0.431 -0.052,-0.422 2.015,-0.405 0.428,0.603 0.233,-0.27 0.391,0.276 0.457,-0.408 1.117,0.673 0.513,-0.231 0.619,0.557 0.467,-0.27 0.415,0.49 0.614,-0.169 0.418,0.384 1.89,0.038 2.766,0.687 0.623,-0.376 0.695,0.577 0.237,-0.822 0.657,0.48 1.427,0.012 0.468,0.343 1.102,-1.01 0.201,0.315 1.405,0.18 1.958,-0.122 2.351,0.309 1.365,-0.576 0.508,0.455 0.574,-0.22 0.31,0.363 0.911,-0.367 0.781,0.259 2.702,-0.335 1.254,0.251 1.655,-0.165 0.556,0.347 0.559,-0.493 0.325,0.484 0.993,-0.017 0.159,-0.578 0.492,0.316 2.188,-0.118 1.496,-0.549 0.548,0.326 0.368,-0.355 0.012,0.493 0.223,-0.54 0.087,0.483 0.096,-0.225 0.493,0.293 0.025,-0.346 1.208,-0.073 0.324,0.373"
       id="path2" />
  </g>
  <g
     id="g3">
    <path
       fill="none"
       stroke="#000000"
       stroke-width="4"
       stroke-linecap="round"
       stroke-linejoin="round"
       d="m -438.092,497.411 0.905,-0.625 0.653,0.261 0.787,-0.743 0.757,0.352 3.129,-0.911 0.831,0.426 0.549,-0.555 0.878,0.271 2.313,-0.352 0.934,0.147 1.846,-0.572 1.208,0.787 1.947,-0.315 7.064,1.618 3.034,-0.122 0.541,0.215 0.482,-0.221 0.615,0.477 1.127,-0.283 0.621,0.463 0.869,-0.598 1.862,0.382 2.171,-0.353 0.539,0.349 0.609,-0.447 0.887,0.238 0.293,-0.322 0.3,0.571 0.072,-0.277 0.524,0.096 0.376,-0.525 0.396,0.712 0.062,-0.356 0.916,0.198 0.166,-0.235 -0.079,0.399 0.142,-0.55 1.306,0.4 0.413,-0.496 0.362,0.294 3.52,-0.066 0.639,-0.375 0.638,0.159 0.289,-0.345 0.038,0.208 -0.069,-0.586"
       id="path3" />
  </g>
  <g
     id="g4">
    <path
       fill="none"
       stroke="#000000"
       stroke-width="4"
       stroke-linecap="round"
       stroke-linejoin="round"
       d="m -439.493,548.185 -0.141,0.229 0.267,0.117 0.08,-0.413 1.051,0.375 2.161,-0.486 1.243,0.29 1.062,-0.47 1.009,0.278 3.136,-0.22 6.695,-1.133 3.362,-10e-4 0.536,0.241 1.262,-0.515 0.785,0.395 0.732,-0.334 0.851,0.092 0.428,-0.333 0.51,0.664 1.038,-0.535 4.164,0.282 0.439,-0.376 1.529,0.041 1.294,-0.516 0.352,0.512 0.365,-0.777 0.376,-0.057 0.746,0.553 0.584,-0.381 1.502,-0.055 1.01,0.006 0.11,0.339 0.512,-0.003 0.403,-0.51 0.879,0.651 0.434,-0.415 0.862,0.585 0.716,-0.182 2.518,0.708 3.642,0.18 -0.062,0.423 0.149,-0.374 0.265,0.434 0.025,-0.622"
       id="path4" />
  </g>
  <g
     id="g5">
    <path
       fill="none"
       stroke="#000000"
       stroke-width="4"
       stroke-linecap="round"
       stroke-linejoin="round"
       d="m -438.359,596.362 1.245,-0.373 1.041,0.161 3.869,-0.623 2.348,0.16 1.491,0.701 0.811,-0.75 1.356,0.405 3.336,-0.533 0.928,0.515 5.866,-0.507 1.801,0.304 0.824,-0.382 0.742,0.841 0.888,-0.685 0.231,0.29 1.767,0.189 1.157,-0.749 0.427,0.324 1.17,-0.058 3.629,-0.596 0.85,0.272 0.58,-0.246 1.747,0.138 1.075,0.457 0.333,-0.425 1.851,-0.403 0.611,0.403 2.523,0.358 1.394,-0.273 0.527,0.343 0.801,-0.361 0.822,0.268 0.303,-0.517 0.371,0.653 0.552,-0.271"
       id="path5" />
  </g>
  <g
     id="g6">
    <path
       fill="none"
       stroke="#000000"
       stroke-width="4"
       stroke-linecap="round"
       stroke-linejoin="round"
       d="m -383.264,620.818 12.113,-7.716 1.659,-0.54 2.214,-1.988 2.439,-1.148 1.122,-0.139 0.724,-0.609 0.988,-0.044 1.427,-1.293 0.561,0.037 3.216,-1.692 1.872,-1.073 0.221,-0.435 0.217,0.287 0.407,-0.872 1,-0.016 2.236,-1.796 0.667,-0.072 2.836,-1.496 2.017,-1.155 0.351,-0.521 0.979,-0.14 0.072,-0.276 0.019,0.286 0.893,-0.577 v -0.307 l 0.103,0.341 1.781,-1.599 1.573,-2.309"
       id="path6" />
  </g>
  <g
     id="g7">
    <path
       fill="none"
       stroke="#000000"
       stroke-width="4"
       stroke-linecap="round"
       stroke-linejoin="round"
       d="m -384.963,415.646 0.1,-0.435 0.188,0.799 3.212,2.77 0.537,0.206 1.482,-0.213 1.058,0.827 4.767,2.241 1.69,1.229 1.715,1.971 h 0.528 l 4.62,2.57 1.999,-0.018 0.716,0.837 0.833,-0.111 0.031,0.287 3.919,2.261 0.538,0.745 1.17,0.205 1.307,0.99 2.04,0.198 0.616,0.771 0.207,-0.176 1.227,0.718 1.669,0.316 0.673,0.597 0.637,-0.164 0.797,1.027 0.575,-0.318 1.346,0.538 0.54,-0.225 0.411,0.482 -0.229,-0.239 0.222,-0.086 1.525,0.416 0.161,-0.292 0.243,0.91"
       id="path7" />
  </g>
  <g
     id="g8">
    <path
       fill="none"
       stroke="#000000"
       stroke-width="4"
       stroke-linecap="round"
       stroke-linejoin="round"
       d="m -338.724,438.554 -0.59,3.629 1.061,24.462 -1.126,16.735 -0.517,2.189 0.311,6.038 -0.136,5.875 0.693,8.18 -0.183,4.005 1.033,14.516 0.517,1.613 0.466,4.222 -0.126,1.628 1.446,11.38 0.115,5.005 -0.601,6.553 0.261,2.106 -0.12,5.745 1.174,17.692 -0.106,5.088 -0.323,0.702 -0.119,2.17 -0.457,-1.406"
       id="path8" />
  </g>
  <g
     id="g9">
    <path
       fill="none"
       stroke="#000000"
       stroke-width="4"
       stroke-linecap="round"
       stroke-linejoin="round"
       d="m -334.796,520.625 1.598,-0.55 2.528,-0.035 5.036,0.634 0.461,-0.337 3.028,-0.621 3.464,-0.045 2.485,0.216 0.605,0.331 2.916,-0.954 1.858,0.115 0.788,-0.716 0.5,0.264 2.038,-0.722 0.827,-0.022 0.266,0.355 0.764,-0.639 0.675,0.458 0.789,-0.556 0.765,0.434 0.314,-0.36 1.376,0.257 1.757,-0.363 1.368,0.18 0.293,-0.25 0.627,0.478 0.722,-0.413 0.261,0.529 1.058,-0.335 1.053,0.588 1.303,-0.512 1.425,0.44 0.249,-0.233 2.181,1.066 -0.075,-0.421 0.304,-0.204 0.396,0.288 0.699,-0.299 0.382,0.233 -0.561,-0.585"
       id="path9" />
  </g>
  <g
     id="g10">
    <path
       fill="none"
       stroke="#000000"
       stroke-width="4"
       stroke-linecap="round"
       stroke-linejoin="round"
       d="m -284.532,422.933 -0.395,6.238 -0.154,15.683 -0.327,1.414 0.532,7.523 -0.261,38.625 -0.552,4.81 -0.289,13.886 -0.557,8.35 0.255,8.901 -0.264,1.906 0.542,3.551 0.217,12.625 0.299,2.682 -0.344,6.393 0.431,3.121 -0.253,1.389 0.266,2.347 -0.344,12.879 0.042,6.203 0.353,2.791 -0.202,3.81 0.219,6.698 -0.242,1.38 0.375,4.854 -0.06,9.354 -0.395,2.025 0.256,3.392"
       id="path10" />
  </g>
  <g
     id="g11">
    <path
       fill="none"
       stroke="#000000"
       stroke-width="4"
       stroke-linecap="round"
       stroke-linejoin="round"
       d="m -284.085,420.952 2.527,-0.465 4.605,0.251 2.918,-0.277 2.122,0.633 4.244,0.417 2.988,-0.348 1.449,0.359 1.298,-0.827 1.804,0.508 2.237,0.064 5.842,-0.851 1.315,0.171 0.725,0.459 0.806,-0.547 1.033,0.652 1.233,-0.074 1.121,0.409 0.271,-0.446 1.964,0.183 0.413,-0.545 0.373,0.604 3.648,-0.383 1.011,-0.432 0.64,0.559 0.262,-0.336 -0.082,0.668 0.172,-0.4 0.995,0.156 0.02,0.684"
       id="path11" />
  </g>
  <g
     id="g12">
    <path
       fill="none"
       stroke="#000000"
       stroke-width="4"
       stroke-linecap="round"
       stroke-linejoin="round"
       d="m -231.857,424.171 -1.424,2.755 0.543,7.897 0.763,2.913 0.476,9.101 0.008,17.771 -1.23,17.201 0.39,1.969 0.2,5.926 -0.663,7.664 0.497,6.408 -0.182,9.091 -0.454,3.464 0.049,1.524 1.071,5.097 0.051,6.845 0.523,5.445 -0.186,3.03 0.43,10.155 -0.187,3.389 0.249,9.455 -0.314,12.572 -0.496,4.732 0.18,2.89 0.585,1.956 0.147,4.359 -0.206,4.201 -1.236,8.734 -0.407,5.772 -1.173,7.057 -0.326,4.458"
       id="path12" />
  </g>
  <g
     id="g13">
    <path
       fill="none"
       stroke="#000000"
       stroke-width="4"
       stroke-linecap="round"
       stroke-linejoin="round"
       d="m -280.473,618.029 -0.514,0.643 0.282,-0.475 1.485,0.944 0.925,-0.354 2.388,0.404 1.178,-0.145 1.317,0.454 3.96,0.49 0.463,-0.224 1.127,0.192 2.241,-0.544 1.632,0.325 2.368,-0.611 0.78,0.525 1.971,-0.047 2.03,-0.502 0.61,0.351 0.68,-0.212 0.328,0.293 0.525,-0.212 1.889,0.21 0.961,0.421 1.188,-0.206 1.528,0.435 0.925,-0.28 0.391,0.342 0.425,-0.25 0.753,0.289 3.027,-0.611 1.104,0.384 1.856,-0.552 1.172,0.282 1.077,-0.334 0.958,0.252 1.12,-0.109 0.856,-0.459 1.593,0.091 0.073,-0.41 0.067,0.458 0.182,-0.138"
       id="path13" />
  </g>
  <g
     id="g14">
    <path
       fill="none"
       stroke="#000000"
       stroke-width="4"
       stroke-linecap="round"
       stroke-linejoin="round"
       d="m -278.639,594.371 -0.193,0.335 0.205,-0.286 1.071,0.903 3.051,0.131 4.5,1.448 1.516,0.795 1.416,1.606 2.137,1.21 -0.489,-0.106 -0.494,1.143 -0.442,-0.08 -0.847,0.817 -0.524,-0.027 -1.056,0.627 -2.548,0.183 -4.492,1.173 -0.919,0.557 -0.08,-0.25 -0.148,0.445 -0.265,-0.988"
       id="path14" />
  </g>
  <g
     id="g15">
    <path
       fill="none"
       stroke="#000000"
       stroke-width="4"
       stroke-linecap="round"
       stroke-linejoin="round"
       d="m -230.127,516.092 -4.867,0.018 1.924,0.015 0.163,-0.194 -0.325,0.018 0.469,-0.197 3.055,-0.558 1.173,0.235 0.649,-0.21 0.928,0.461 2.112,-0.299 1.482,0.766 2.246,-0.867 1.229,1.108 6.639,0.374 1.579,-0.435 1.1,0.501 1.718,0.095 4.376,-0.603 1.433,0.284 2.065,-0.462 7.077,0.087 1.455,-0.123 0.874,-0.584 1.049,0.961 0.482,0.087 1.869,-0.353 3.251,0.49 1.338,-0.133 1.433,0.429 2.819,-0.186 1.703,0.338 4.877,0.047 1.076,0.336 0.903,-0.689 0.655,-0.051 1.18,0.729 0.663,0.062 2.244,-0.76 1.912,0.503 1.458,-0.592 1.528,0.771 0.435,-0.321 1.131,-0.056"
       id="path15" />
  </g>
  <g
     id="g16">
    <path
       fill="none"
       stroke="#000000"
       stroke-width="4"
       stroke-linecap="round"
       stroke-linejoin="round"
       d="m -444.252,445.724 0.728,-0.21 0.058,0.487 0.2,13.184 0.534,2.334 0.527,9.38 0.429,1.194 0.349,3.113 0.427,0.64 0.051,3.335 0.635,1.898 0.365,6.27 0.218,0.834 0.222,-0.047 0.117,1.218 -0.181,0.229 -0.001,-0.422 -0.151,2.469 0.268,1.138 -0.158,0.255 -0.094,-0.268 0.033,0.358 0.255,0.2 -0.09,-0.84 -0.484,2.682 -0.092,-2.067"
       id="path16" />
  </g>
  <g
     id="g17">
    <path
       fill="none"
       stroke="#000000"
       stroke-width="4"
       stroke-linecap="round"
       stroke-linejoin="round"
       d="m -647.751,444.925 8.118,-1.072 2.957,0.78 1.697,-0.983 5.752,-0.148 1.522,-0.4 1.761,0.401 0.97,-0.33 4.678,-0.215 1.869,0.261 0.837,-0.473 2.251,0.313 2.227,-0.363 1.265,0.252 10.798,-0.12 2.592,-0.454 0.362,0.213 5.988,-0.144 0.715,0.251 0.622,-0.602 0.923,0.972 4.013,-0.157 5.291,0.801 0.859,0.625 2.174,-0.298 0.449,-0.321 1.619,0.983 2.596,-0.74 0.098,0.335 2.094,0.213 1.329,-0.224 1.363,0.273 6.026,-0.06 5.339,0.654 1.619,-0.158 1.957,0.414 2.473,-0.441 2.224,0.641 5.017,-0.544 9.181,-0.2 0.674,-0.299 1.467,0.27 1.193,-0.442 4.011,-0.188 1.022,0.254 1.062,-0.321 0.319,0.336 0.99,-0.315 0.565,0.318 1.223,-0.438 0.575,0.42 1.09,-0.421 0.844,0.463 1.48,0.096 5.852,-0.3 1.246,0.845 0.515,-0.315 3.243,-0.062 1.358,-0.432 0.645,0.33 2.964,-0.369 0.436,0.218 6.041,-0.29 3.424,0.159 2.893,-0.361 1.947,0.493 2.369,-0.284 1.262,0.345 1.495,-0.434 1.296,0.18 0.706,-0.284 0.643,0.089 0.974,0.718 0.873,-0.31 0.747,0.479 0.894,-0.732 1.625,0.675 2.096,0.074 2.721,-0.067 1.368,-0.446 1.334,0.887 1.148,-0.778 0.714,0.444 2.824,0.169 3.583,-0.196 1.629,-0.447 0.959,0.628 0.874,-0.249 2.374,0.3 0.995,-0.247 0.736,0.659 0.707,-0.263 1.615,0.416 0.48,-0.334 0.456,0.374 -0.273,0.15 2.191,-0.109 0.291,0.473 0.782,-1.007 0.227,0.856 1.297,-0.405 0.433,0.574 0.126,-0.404 0.523,0.282 0.671,-0.278 -0.222,-0.229 0.043,0.256 0.168,-0.135"
       id="path17" />
  </g>
  <g
     id="g18">
    <path
       fill="none"
       stroke="#000000"
       stroke-width="4"
       stroke-linecap="round"
       stroke-linejoin="round"
       d="m -441.952,367.827 -0.229,-0.005 0.244,-0.01 -0.082,1.493 -1.525,13.319 -0.083,10.34 -0.547,4.465 0.355,2.699 -0.481,4.924 0.386,4.159 -0.285,7.81 0.51,4.778 -0.026,6.412 0.527,1.953 -0.383,2.559 0.664,1.949 0.113,3.798 0.643,2.372 -0.15,-0.349 -0.103,1.513 0.303,1.642 -0.117,0.607 -0.051,-0.761 -0.172,0.523 0.251,0.125 0.065,-0.399 1.037,-0.843"
       id="path18" />
  </g>
  <g
     id="g19">
    <path
       fill="none"
       stroke="#000000"
       stroke-width="4"
       stroke-linecap="round"
       stroke-linejoin="round"
       d="m -437.201,367.445 1.397,-2.086 2.105,0.717 6.923,-0.569 9.214,-0.095 1.464,0.558 0.921,-0.2 3.57,0.556 4.678,-0.218 2.609,0.452 2.751,-0.007 1.557,0.407 3.853,0.129 3.113,0.602 4.931,-0.064 3.232,1.09 11.101,0.525 3.289,0.493 6.455,-0.594 2.54,0.406 2.521,-0.782 2.273,0.105 1.937,-0.352 1.49,0.426 3.15,-0.208 1.362,0.305 5.457,-0.465 3.467,0.147 0.241,-0.222 3.725,0.386 1.768,-0.471 3.064,-0.254 6.421,0.137 6.322,-0.871 4.72,0.119 2.157,-0.304 7.959,-0.142 2.178,-0.447 4.095,0.298 3.679,-0.908 5.444,0.31 1.912,-0.343 4.072,0.134 0.708,-0.214 1.253,0.339 0.714,-0.311 1.43,0.189 9.705,-0.37 2.441,-0.35 2.24,0.419 1.606,-0.46 3.548,10e-4 1.793,-0.319 2.55,0.406 2.994,-0.446 8.616,-0.06 4.637,-0.514 2.627,0.307 1.659,-0.496 1.329,0.058 0.349,0.486 0.297,-0.391 1.656,-0.103 0.5,-0.34 2.362,0.76 2.629,-0.516 6.393,0.47 6.053,-0.081 7.746,0.512 0.964,-0.221 2.056,0.176 1.722,0.595 1.671,-0.619 8.953,0.777 2.555,-0.168 1.187,0.248 2.123,-0.36 9.476,-0.234"
       id="path19" />
  </g>
  <g
     id="g20">
    <path
       fill="none"
       stroke="#000000"
       stroke-width="4"
       stroke-linecap="round"
       stroke-linejoin="round"
       d="m -597.874,524.132 0.176,5.088 -0.933,5.776 0.439,7.228 -0.439,4.175 0.209,6.978 -1.024,4.044 -0.149,5.61 0.385,3.29 0.072,-0.469 0.35,0.632 0.717,3.362 -0.019,-0.439 0.758,-0.971"
       id="path20" />
  </g>
  <g
     id="g21">
    <path
       fill="none"
       stroke="#000000"
       stroke-width="4"
       stroke-linecap="round"
       stroke-linejoin="round"
       d="m -588.166,520.947 -0.005,0.305 2.729,0.089 2.327,-0.135 1.487,-0.48 1.518,0.259 2.521,-0.854 0.945,0.55 2.374,0.17 0.643,0.519 0.83,0.158 2.494,-0.265 1.631,0.372 2.021,-0.155 4.624,0.644 8.234,0.565 6.447,-0.658 1.168,0.521 1.212,-0.375 1.039,0.343 9.067,0.016 0.891,0.337 0.755,-0.092 0.521,0.425 1.102,-0.368 2.054,0.286 3.018,-0.603 1.454,0.161 1.367,-0.285 1.18,0.042 0.559,0.367 1.238,-0.264 1.901,0.358 4.404,-0.11 1.269,0.376 0.537,-0.404 0.368,0.817 0.327,-0.607 1.203,0.444 2.591,-0.67 0.632,0.642 5.115,-0.586 1.078,0.562 0.252,-0.582 0.341,-0.054 0.377,0.598 2.273,-0.243 1.228,-0.824 0.503,0.523 0.202,-0.322 1.857,-0.449 -0.251,0.691 -0.119,5.522 -0.95,6.818 -0.4,0.778 -0.032,5.852 -0.513,3.819 0.813,8.665 -0.068,3.942 0.625,3.123 0.02,6.491"
       id="path21" />
  </g>
  <g
     id="g22">
    <path
       fill="none"
       stroke="#000000"
       stroke-width="4"
       stroke-linecap="round"
       stroke-linejoin="round"
       d="m -593.086,571.86 0.004,-0.212 0.572,0.301 1.655,-0.462 2.522,0.307 1.891,-0.25 3.358,0.21 1.82,-0.48 1.826,0.545 0.587,-0.298 1.209,0.05 1.103,-0.561 3.572,0.658 1.654,0.007 1.303,0.527 2.1,-0.415 5.024,0.356 3.85,-0.711 1.645,0.111 0.112,-0.222 1.436,0.549 0.746,-0.384 2.119,0.617 1.006,-0.258 1.04,0.291 1.037,-0.584 2.055,0.313 3.613,-0.131 4.446,-0.993 1.94,0.99 0.972,-0.577 3.113,-0.153 0.581,0.361 0.357,-0.309 1.418,-0.062 0.68,0.365 0.802,-0.343 3.871,-0.104 1.215,0.264 0.886,-0.496 1.478,0.282 4.08,-0.108 0.595,0.421 0.684,-0.068 0.623,-0.547 2.65,-0.404 5.826,0.183 1.382,-0.271 1.294,0.276 0.343,-0.219 1.368,0.391 0.502,-0.602 0.12,0.605 0.425,-0.417 1.028,0.084 0.236,0.353 0.505,-0.565 0.496,0.456 0.315,-0.157 -0.135,0.364 0.489,-1.102"
       id="path22" />
  </g>
  <g
     id="g23">
    <path
       fill="none"
       stroke="#000000"
       stroke-width="4"
       stroke-linecap="round"
       stroke-linejoin="round"
       d="m -182.307,521.274 0.52,2.134 -0.331,2.714 -0.004,8.089 -0.983,8.632 1.761,16.828 -1.681,10.73 -0.185,3.963 1.016,6.47 -0.252,2.262 0.266,5.573 1.3,8.351 -0.231,5.412 0.518,4.341 -1.117,13.775 -0.106,7.986 0.391,7.601 1.133,8.307 0.236,5.459 -0.448,1.693 0.072,2.766 -0.516,2.667 -0.032,9.255 -1.036,7.446"
       id="path23" />
  </g>
  <g
     id="g24">
    <path
       fill="none"
       stroke="#000000"
       stroke-width="4"
       stroke-linecap="round"
       stroke-linejoin="round"
       d="m -186.122,672.643 -1.491,2.206 -0.474,0.219 -0.562,-0.195 -2.439,0.887 -3.078,-0.176 -1.309,0.441 -7.8,0.714 -9.883,-0.862 -4.405,0.152 -2.256,-0.321 -1.039,-0.671 -1.806,0.506 -12.235,-1.089 -4.116,0.147 -2.211,-0.475 -4.579,0.667 -10.562,-0.846 -3.249,0.494 -1.888,-0.041 -1.955,-0.48 -1.973,0.185 -1.503,-0.77 -0.843,-0.015 -3.042,0.756 -2.438,-0.364 -2.09,0.321 -3.692,-0.4 -3.419,0.059 -1.153,0.558 -1.058,-0.2 -2.933,0.566 -3.64,-0.106 -2.162,0.418 -1.877,-0.233 -1.913,0.438 -3.923,-0.314 -12.7,0.214 -4.184,0.451 -2.43,-0.462 -7.188,-0.026 -10.706,-0.846 -5.187,0.329 -12.905,-0.239 -16.046,0.721 -1.785,-0.225 -3.666,0.266 -5.449,-0.501 -4.732,0.527 -2.71,-0.444 -4.644,-0.148 -0.915,0.238 -5.087,-0.421 -13.209,0.94 -2.077,-0.361 -4.876,0.121 -2.514,-0.552 -4.94,0.539 -2.37,-0.324 -6.306,0.154 -2.422,-0.542 -2.883,0.355 -3.978,-0.393 -7.023,0.373 -10.441,-0.368 -1.41,0.389 -0.108,0.409 -0.557,-0.207 0.085,-0.255 0.048,0.257 -0.738,0.252 -2.975,0.526 -10.829,0.114 -5.025,0.467 -4.267,-0.66 -6.126,-0.047 -4.914,0.376 -1.556,-0.365 -1.833,0.476 -5.296,-0.491 -0.783,0.367 -1.387,-0.256 -1.018,0.246 -0.763,-0.449 -3.675,0.247 -3.288,-0.692 -4.203,0.097 -3.991,-0.52 -1.454,0.345 -2.902,-0.024 -2.619,-0.334 -14.153,0.885 -4.075,0.754 -1.843,-0.295 -4.122,0.005 -2.834,0.947 -2.049,-0.153 -6.694,0.964 -5.117,0.376 -6.05,0.202 -5.331,-0.206 -5.986,0.709 -16.759,0.127 -1.575,0.368 -0.926,-0.331 -0.64,0.298 -0.535,-0.332 -0.446,0.186 -0.574,-0.363 -4.128,0.651 -2.455,-0.431 -2.83,0.627 -1.153,-0.359 -3.869,-0.086 -1.745,-0.432 -1.931,0.251 -3.646,-0.211 0.182,0.213 0.326,-0.132 -0.41,-0.099 -0.357,0.359 -0.311,-0.496 -0.157,0.182 -1.107,-0.694 -0.673,0.224 -0.124,-0.328 -0.323,0.26 -1.142,-0.552 -1.709,-0.238 -0.295,-0.377 -0.201,0.252 -0.038,-0.469 -0.002,0.326 -0.514,-0.349 -0.215,0.348 -0.657,-1.665"
       id="path24" />
  </g>
  <g
     id="g25">
    <path
       fill="none"
       stroke="#000000"
       stroke-width="4"
       stroke-linecap="round"
       stroke-linejoin="round"
       d="m -647.629,547.28 -0.085,0.86 -0.922,1.503 -1.099,3.462 -0.077,1.436 0.868,4.406 0.118,8.14 2.317,19.938 0.201,3.854 1.774,6.043 0.183,2.774 -0.109,11.379 0.785,10.563 -0.23,4.257 0.618,4.834 -0.302,3.223 0.142,10.363 -1.075,7.357 -0.107,13.601 0.327,6.415 -0.44,2.772 0.071,-0.406 0.771,-0.055"
       id="path25" />
  </g>
  <g
     id="g26">
    <path
       fill="none"
       stroke="#000000"
       stroke-width="4"
       stroke-linecap="round"
       stroke-linejoin="round"
       d="m -646.734,548.423 -0.321,0.064 0.099,-0.267 0.217,0.395 -0.351,0.037 0.309,0.284 0.406,-0.423 1.716,0.14 4.499,-0.445 4.587,0.164 3.737,-0.374 3.299,0.076 0.948,0.575 2.386,-0.155 4.269,0.601 5.088,-0.057 1.233,0.368 0.372,-0.052 0.199,-0.57 0.345,-0.039 0.449,0.638 0.586,-0.338 1.608,-0.135"
       id="path26" />
  </g>
  <g
     id="g27">
    <path
       fill="none"
       stroke="#000000"
       stroke-width="4"
       stroke-linecap="round"
       stroke-linejoin="round"
       d="m -492.909,547.991 1.866,-0.03 0.72,0.277 3.961,-0.169 3.839,0.551 1.834,-0.384 2.259,0.685 1.447,-0.548 1.031,0.477 1.208,-0.019 1.106,0.557 2.798,-1.052 1.575,0.573 0.769,-0.317 4.405,0.037 5.38,-0.574 0.602,0.261 1.186,-0.484 0.834,0.618 0.722,-0.574 h 2.644 l 2.384,0.417 0.472,-0.232 1.298,0.582 0.641,-0.383 2.198,0.394 1.689,-0.147 0.339,0.258 3.078,-0.372 0.345,0.383 0.369,-0.422 0.723,0.29 0.436,-0.483 0.355,0.752 0.648,-0.526 6.665,-0.536"
       id="path27" />
  </g>
  <g
     id="g28">
    <path
       fill="none"
       stroke="#000000"
       stroke-width="4"
       stroke-linecap="round"
       stroke-linejoin="round"
       d="m -640.576,600.496 0.159,-0.793 0.466,-0.456 0.717,0.638 1.723,0.331 3.06,-0.657 2.347,-0.131 5.895,0.332 2.687,-0.529 1.794,0.04 1.822,-0.54 5.783,0.294 2.312,0.528 1.709,-0.573 8.053,-0.122 2.23,0.243 1.549,-0.585 4.959,-0.235 4.899,0.494 0.516,-0.442 0.653,-0.055 0.552,0.428 8.139,0.004 4.293,-0.439 0.494,0.269 0.63,-0.444 0.369,0.367 1.964,0.254 1.114,-0.069 0.749,-0.508 0.995,0.311 1.228,-0.325 4.478,0.053 2.674,-0.466 0.999,0.246 1.993,-0.153 1.346,-0.419 1.175,0.349 0.863,-0.671 2.625,0.111 1.097,-0.411 1.28,0.518 1.053,-0.796 0.784,0.442 3.056,-0.527 3.193,0.074 1.421,-0.363 2.101,0.54 0.72,-0.43 1.255,0.173 1.59,-0.734 1.79,0.461 1.296,-0.397 0.249,0.307 1.253,0.146 10.195,0.314 2.479,-0.6 3.336,0.251 0.348,-0.373 0.343,0.462 0.442,-0.222 0.451,0.354 3.403,-0.373 1.325,0.486 2.981,-0.5 2.179,0.349 4.857,-0.366 1.864,0.223 3.018,-0.531 8.932,1.011 3.777,1.097 0.962,-0.34 0.311,0.479 0.78,-0.045 1.707,0.581 3.147,0.215 4.394,1.112 3.387,0.308 1.219,0.57 0.808,-0.505 0.451,0.457 1.73,-0.416 0.699,0.314 0.986,-0.529 0.736,0.271 0.873,-0.44 2.7,-0.042 3.062,-0.716 1.774,-0.199 1.035,0.282 0.46,-0.64 0.347,0.311 0.425,-0.305 0.195,0.336 0.476,-0.707 0.208,0.404 1.553,-0.062 0.587,-0.364 1.042,0.185 1.531,-0.45 1.092,0.267 1.682,-0.669 2.702,-0.2 -0.243,-0.174 0.118,0.174 0.862,-0.581 0.374,0.271 0.276,-0.564 0.971,0.424 0.976,-0.563 0.984,0.123 1.572,-0.749 2.669,-0.044"
       id="path28" />
  </g>
  <g
     id="g29">
    <path
       fill="none"
       stroke="#000000"
       stroke-width="4"
       stroke-linecap="round"
       stroke-linejoin="round"
       d="m -583.795,539.522 0.567,0.622 0.335,-0.045 0.229,0.54 -0.73,1.571 -0.24,5.694 -1.239,3.2 0.615,1.127 1.763,0.691 -0.08,0.221 -0.061,-0.553 0.004,0.558 -0.006,-0.345 0.369,0.492 0.213,-0.397 0.381,0.087 0.302,0.443 2.755,-0.517 4.602,0.104 2.046,-0.465 0.191,0.213 0.389,-0.583 0.5,0.096 0.208,-0.444 1.615,-0.96"
       id="path29" />
  </g>
  <g
     id="g30">
    <path
       fill="none"
       stroke="#000000"
       stroke-width="4"
       stroke-linecap="round"
       stroke-linejoin="round"
       d="m -554.657,540.559 -0.263,-0.281 -0.267,1.387 -0.149,3.457 -1.127,4.958 0.346,1.238 0.02,-6.095 -0.393,-5.118 0.939,-1.258 1.121,-0.735 5.821,-1.37 1.243,0.61 0.174,-0.202"
       id="path30" />
  </g>
  <g
     id="g31">
    <path
       fill="none"
       stroke="#000000"
       stroke-width="4"
       stroke-linecap="round"
       stroke-linejoin="round"
       d="m -552.101,544.289 -0.589,1.468 0.393,-0.386 0.56,0.199 2.058,-0.546 3.223,-2.077 0.266,-0.982"
       id="path31" />
  </g>
  <g
     id="g32">
    <path
       fill="none"
       stroke="#000000"
       stroke-width="4"
       stroke-linecap="round"
       stroke-linejoin="round"
       d="m -533.868,537.597 -2.035,0.976 -1.319,1.222 -0.945,1.332 -0.325,1.234 0.694,1.344 0.387,-0.208 0.754,0.842 0.591,-0.092 1.573,1.343 2.196,0.808 1.195,1.3 0.137,1.44 -0.404,-0.432 -0.697,0.576 -2.084,0.45 -1.78,0.828 -2.603,-0.268 -0.267,-0.413"
       id="path32" />
  </g>
  <g
     id="g33">
    <path
       fill="none"
       stroke="#000000"
       stroke-width="4"
       stroke-linecap="round"
       stroke-linejoin="round"
       d="m -520.228,542.737 -0.695,4.012 -1.221,3.163 0.105,0.746 0.762,-8.212 0.819,-2.68 0.567,-0.86 0.568,-0.128 0.422,-1.031 2.455,-1.007 0.733,0.535 1.15,0.251 2.82,2.182 0.342,-0.093 0.154,0.373 -3.087,3.052 -0.532,0.447 -0.633,-0.101 -0.754,0.601 0.658,-0.73 1.351,2.622 3.043,3.711 1.588,2.695"
       id="path33" />
  </g>
  <g
     id="g34">
    <path
       fill="none"
       stroke="#000000"
       stroke-width="4"
       stroke-linecap="round"
       stroke-linejoin="round"
       d="m -667.271,436.446 1.791,-0.089 2.229,0.467 4.595,1.993 6.748,1.007 4.147,1.306 2.079,1.057 5.841,1.288 2.447,-0.222 1.18,1.128 0.441,-0.462 0.13,0.748 -0.032,-0.423 -7.662,4.121 -6.479,4.205 -1.089,0.287 -9.66,4.821 -3.259,1.101 0.034,-0.546 0.05,0.538 -0.282,-0.613 0.255,0.938 -0.115,-0.835 0.129,0.426 0.708,-2.294"
       id="path34" />
  </g>
  <g
     id="g35">
    <path
       fill="none"
       stroke="#000000"
       stroke-width="4"
       stroke-linecap="round"
       stroke-linejoin="round"
       d="m -667.949,438.516 -0.417,0.408 0.242,0.132 -0.727,8.752 0.639,6.762 0.579,1.663 -0.784,-10.005 0.321,-2.881 -0.166,0.734 0.024,-0.392 0.432,0.818 0.096,7.441 0.212,1.239 0.413,0.419 0.247,-0.567 0.443,0.197 1.74,-2.1 0.972,-1.984 0.17,-2.15 -0.497,-1.443 0.375,5.701 0.931,0.866 0.779,0.138 0.35,-0.541 0.936,-0.247 0.509,-0.901 0.223,-0.917 -0.799,-2.869 -1.856,-2.792 -0.692,-0.131 0.133,0.266 0.164,-0.413 0.499,1.038 2.367,1.868 0.628,0.272 0.798,-0.233 0.535,0.414 -0.377,-0.044 0.043,-0.439 -1.479,-2.365 -2.179,-2.719 -0.579,-0.284 0.071,0.328 0.299,-0.289 1.718,1.56 0.991,0.409 1.604,-0.015 3.265,2.068 0.365,-0.26 -1.155,-0.654 -4.342,-1.471 -0.841,-0.635 0.348,-0.145 0.329,0.457 0.17,-0.441 0.26,0.334 4.236,0.268 6.028,1.609 0.605,-0.198 0.383,0.542 0.23,-0.38 -0.275,0.501 -2.178,-0.383 -1.639,0.402 -3.816,1.821 -0.195,1.473 0.606,0.808 0.643,0.239 0.828,0.112 2.01,-0.618 4.717,-0.559 0.155,-0.446 -0.007,0.335 -0.25,-0.532 -0.05,0.611 -12.728,7.162 0.249,0.657 0.247,-0.057 0.356,-0.631 -0.261,-0.159 0.11,0.172 0.572,-0.512 4.423,-1.406 2.469,-2.067 3.642,-2.382 0.461,-0.379 -0.16,-0.128 -0.377,0.246 -0.095,0.603 -0.449,-0.381 -4.061,2.286 -5.043,3.52 -3.486,1.637 -1.314,1.448 0.965,-0.853 4.551,-1.493 2.981,-1.622 3.634,-3.196 -0.076,0.613 -0.302,-0.226 -0.781,0.752 -3.072,1.583 -1.944,1.595 -2.539,1.246 -1.879,2.391 0.429,-0.205 0.187,-0.544 0.009,0.489 -0.031,-0.595 8.776,-5.668 7.383,-4.321 3.666,-2.603 -1.257,1.654 -1.564,1.174 -8.227,5.294 -10.47,5.55 -0.703,0.172 0.054,-0.288 -0.179,0.363 -2.636,1.149 -1.814,0.344 -0.737,-0.176 -0.097,0.262 -0.428,-0.604 0.162,-3.816 0.734,-5.557 0.994,-12.441 -0.01,-0.639 -0.195,0.626 0.158,2.082"
       id="path35" />
  </g>
  <g
     id="g36">
    <path
       fill="none"
       stroke="#000000"
       stroke-width="4"
       stroke-linecap="round"
       stroke-linejoin="round"
       d="m -665.574,442.546 0.031,-1.33"
       id="path36" />
  </g>
  <g
     id="g37">
    <path
       fill="none"
       stroke="#000000"
       stroke-width="4"
       stroke-linecap="round"
       stroke-linejoin="round"
       d="m -447.019,446.846 0.551,-0.216 -0.092,-0.584 -0.196,3.717 0.444,1.013 0.63,0.231 3.017,-0.925 1.458,-1.317 1.429,-0.563 0.752,-1.909 -0.116,-1.251 -1.118,-1.432 -1.037,-0.901 -1.244,-0.405 -3.356,0.834 -2.176,2.393 -0.521,1.212 -0.237,1.905 1.003,3.84 1.48,1.174 1.737,0.423 1.197,-0.209 2.008,-1.173 1.724,-3.336 0.144,-1.195 -1.189,-2.409 -3.975,-1.475 -1.157,0.014 -2.271,0.922 -0.261,1.279 1.022,2.694"
       id="path37" />
  </g>
  <g
     id="g38">
    <path
       fill="none"
       stroke="#000000"
       stroke-width="4"
       stroke-linecap="round"
       stroke-linejoin="round"
       d="m -380.261,454.689 0.145,2.391 0.743,2.555 1.857,1.87 1.737,0.444 1.26,-0.357 2.038,-2.055 1.233,-0.405 0.468,-0.572 1.967,-4.745 -0.333,-1.854 -0.955,-0.567 -1.512,-2.26 -2.934,-0.764 -1.234,0.014 -1.559,0.628 -1.099,5.552"
       id="path38" />
  </g>
  <g
     id="g39">
    <path
       fill="none"
       stroke="#000000"
       stroke-width="4"
       stroke-linecap="round"
       stroke-linejoin="round"
       d="m -359.883,450.498 -1.788,4.123 -0.224,1.92 0.537,2.599 0.435,0.709 0.751,0.456 3.488,-1.312 2.634,-2.593 0.969,-1.692 -0.501,-2.823 -1.575,-2.294 -1.215,-0.839 -1.432,-0.48 -3.165,2.883"
       id="path39" />
  </g>
  <g
     id="g40">
    <path
       fill="none"
       stroke="#000000"
       stroke-width="4"
       stroke-linecap="round"
       stroke-linejoin="round"
       d="m -379.552,487.859 -0.042,-0.297 -0.727,0.084 -0.338,0.344 -1.011,2.106 -0.832,2.451 -0.459,2.648 0.017,2.32 0.495,1.411 2.095,2.086 1.043,0.601 2.517,-0.602 1.481,-1.044 1.577,-1.972 2.669,-5.348 0.275,-1.777 -0.228,-0.356 -2.663,-1.069 -1.826,-0.386 -1.121,0.358 -1.154,0.87 -1.507,2.06"
       id="path40" />
  </g>
  <g
     id="g41">
    <path
       fill="none"
       stroke="#000000"
       stroke-width="4"
       stroke-linecap="round"
       stroke-linejoin="round"
       d="m -363.805,493.838 -0.37,0.533 -0.094,-0.418 1.613,-1.157 3.644,-4.137 1.154,-0.813 0.761,-0.122 0.448,-0.856 -0.427,0.76 0.388,2.769 -0.515,5.442 -1.22,6.895 0.376,2.396"
       id="path41" />
  </g>
  <g
     id="g42">
    <path
       fill="none"
       stroke="#000000"
       stroke-width="4"
       stroke-linecap="round"
       stroke-linejoin="round"
       d="m -380.685,541.021 0.295,0.254 -0.124,-0.502 0.637,0.079 2.722,-1.74 5.983,-7.64 0.381,-0.352 0.256,0.278 -0.213,0.954 -0.271,-0.278 -0.141,0.303 0.023,1.972 -2.024,13.748 0.096,3.458 0.168,-0.426 -0.309,-1.062"
       id="path42" />
  </g>
  <g
     id="g43">
    <path
       fill="none"
       stroke="#000000"
       stroke-width="4"
       stroke-linecap="round"
       stroke-linejoin="round"
       d="m -358.902,538.158 1.458,0.009 -0.197,0.58 -0.931,0.494 -0.518,1.508 -0.198,2.259 0.365,1.19 1.247,1.899 1.741,-0.033 0.575,0.36 1.724,-0.983 2.637,-2.678 2.378,-3.001 1.035,-1.963 0.134,-1.01 -1.141,-2.463 -2.725,-0.384 -0.761,0.152 -3.449,1.67 -1.471,1.1 -1.903,3.745"
       id="path43" />
  </g>
  <g
     id="g44">
    <path
       fill="none"
       stroke="#000000"
       stroke-width="4"
       stroke-linecap="round"
       stroke-linejoin="round"
       d="m -381.005,586.972 1.606,-2.977 1.136,-1.368 0.641,-0.359 3.013,-3.297 1.953,-1.132 0.382,1.374 0.039,1.915 -1.68,8.656 -0.222,2.544 0.695,-0.763"
       id="path44" />
  </g>
  <g
     id="g45">
    <path
       fill="none"
       stroke="#000000"
       stroke-width="4"
       stroke-linecap="round"
       stroke-linejoin="round"
       d="m -362.651,582.214 -0.235,-0.114 0.336,0.268 1.656,-1.293 6.324,-7.035 -0.255,1.146 0.347,3.242 -1.521,9.452 -0.007,1.882 0.401,-0.77"
       id="path45" />
  </g>
  <g
     id="g46">
    <path
       fill="none"
       stroke="#000000"
       stroke-width="4"
       stroke-linecap="round"
       stroke-linejoin="round"
       d="m -377.025,617.846 0.69,1.276 -0.377,-0.037 0.541,3.216 0.209,11.407 0.5,3.702 -0.168,3.177 0.433,3.424 0.206,-0.264 0.097,5.339 0.52,1.542 -0.05,-0.347 0.603,-0.187"
       id="path46" />
  </g>
  <g
     id="g47">
    <path
       fill="none"
       stroke="#000000"
       stroke-width="4"
       stroke-linecap="round"
       stroke-linejoin="round"
       d="m -375.15,685.519 0.553,13.568 1.181,9.078 0.083,5.167 -0.872,10.258 0.234,3.922 -0.31,5.928 0.371,2.074 -0.212,0.761 -0.077,-1.112"
       id="path47" />
  </g>
  <g
     id="g48">
    <path
       fill="none"
       stroke="#000000"
       stroke-width="4"
       stroke-linecap="round"
       stroke-linejoin="round"
       d="m -352.83,610.792 0.556,-1.674 -0.249,0.494 0.377,4.422 -0.083,8.508 0.941,9.44 0.187,7.215 0.777,5.085 -0.35,1.066 0.272,0.678 -0.363,1.735 0.072,1.53 -0.299,0.087 -0.207,1.567 -1.571,-2.263"
       id="path48" />
  </g>
  <g
     id="g49">
    <path
       fill="none"
       stroke="#000000"
       stroke-width="4"
       stroke-linecap="round"
       stroke-linejoin="round"
       d="m -347.92,687.095 0.769,3.399 2.181,14.499 0.585,8.356 0.258,16.784 -0.958,21.27 0.528,6.23 -0.082,8.74 0.558,5.29 -0.85,9.189 0.257,2.506 -0.46,4.074 0.379,17.328 -0.708,12.517 0.336,2.151 -0.604,5.843 -0.372,1.169 0.072,-0.902 -0.796,-2.553"
       id="path49" />
  </g>
  <g
     id="g50">
    <path
       fill="none"
       stroke="#000000"
       stroke-width="4"
       stroke-linecap="round"
       stroke-linejoin="round"
       d="m -674.87,724.189 -0.371,-0.367 -0.32,-1.609 -0.072,0.401 -0.012,-0.343 0.191,0.409 1.196,0.189 7.034,2.8 3.243,0.872 5.77,0.822 4.239,0.078 2.732,-0.313 -0.098,0.304 -0.963,0.423 -2.191,2.015 -3.505,2.399 -4.864,2.837 -5.778,2.43 -5.96,2.026 -6.204,1.446 -0.862,1.054 0.041,0.417 0.103,-0.754 0.214,-0.032 -0.08,0.621 -0.19,-0.409 0.211,0.513 -0.093,-0.537 3.101,-7.331 1.191,-5.228 0.172,-1.627 -0.271,-1.066 0.062,0.852 -0.287,-0.158 -0.244,1.37 -1.246,2.442 -0.69,2.567 -0.331,1.726 0.311,1.499 0.32,-0.557 1.291,-0.302 1.309,-1.456 1.335,-0.846 2.586,-3.305 0.74,-0.288 -0.717,0.351 -3.166,3.585 -1.203,2.365 0.04,1.317 3.6,-1.728 3.643,-2.545 0.886,-1.415 -0.023,-0.631 -0.626,-0.607 -1.146,0.259 -2.638,1.72 -0.607,1.973 0.11,0.675 0.409,0.186 0.562,-0.044 1.525,-1.147 3.175,-1.404 2.462,-1.642 -0.146,-0.493 -0.287,0.114 -0.145,-0.712 -0.795,-0.45 -0.339,0.602 0.26,0.993 0.339,-0.891 1.909,-0.432 2.962,-1.364 1.016,-1.442 -2.849,2.017 -3.054,1.598 -0.669,0.831 1.067,0.433 0.703,-0.101 2.698,-1.4 1.583,-0.338"
       id="path50" />
  </g>
  <g
     id="g51">
    <path
       fill="none"
       stroke="#000000"
       stroke-width="4"
       stroke-linecap="round"
       stroke-linejoin="round"
       d="m -645.397,728.242 9.275,-1.062 3.124,-0.005 1.253,0.472 1.677,-0.804 4.187,0.018 3.906,-0.627 4.854,-0.187 1.509,0.261 3.538,-0.317 2.46,0.466 1.213,-0.085 7.042,-0.858 4.942,-1.034 7.377,0.289 1.827,-0.475 13.816,-0.588 2.515,0.158 2.097,-0.447 5.347,0.344 3.873,-0.282 2.378,0.133 2.269,0.814 7.971,0.543 2.864,0.534 3.465,-0.125 3.847,0.554 4.039,-0.323 4.7,0.123 4.674,0.665 6.431,-0.351 6.691,0.379 5.223,-0.155 3.271,0.563 4.962,-0.531 11.67,1.117 2.535,-0.406 5.538,0.528 3.953,-0.41 2.35,0.443 8.388,0.28 3.286,0.396 6.02,-0.22 2.429,0.7 1.6,-0.149 2.605,0.512 3.968,-0.025 2.52,0.437 4.324,-0.438 4.435,0.615 7.242,0.19 6.042,-0.223 0.832,0.248 1.125,-0.215 1.105,0.443 1.776,-0.276 1.235,0.329 2.274,-0.616 3.32,0.632 0.746,-0.312 0.404,0.605 0.461,-0.613 0.841,0.58 1.458,-0.111 0.795,0.714 1.006,-0.079 3.838,1.253 5.911,-0.294 0.803,0.378 0.138,-0.375 -0.018,0.322 1.638,0.322 0.368,-0.258 0.486,0.351 1.585,-0.168 10e-4,0.34 0.521,-0.366 1.232,0.03 0.348,0.353 0.215,-0.478 0.144,0.387 0.727,0.184 0.174,-0.254 1.084,0.285 0.151,-0.198 0.384,0.565 0.992,-0.098 0.029,-0.924"
       id="path51" />
  </g>
  <g
     id="g52">
    <path
       fill="none"
       stroke="#000000"
       stroke-width="4"
       stroke-linecap="round"
       stroke-linejoin="round"
       d="m -682.537,819.651 -0.256,-0.871 0.198,-0.342 1.453,4.806 0.118,6.223 -0.708,7.544 0.334,0.473 0.038,2.322 0.497,-0.784 3.237,-0.702 15.061,-7.273 6.047,-3.542 0.426,-0.049 -1.056,0.531 0.483,0.033 0.023,-0.509 0.021,0.517 -0.039,-0.576 -0.026,0.232 -0.845,-0.391"
       id="path52" />
  </g>
  <g
     id="g53">
    <path
       fill="none"
       stroke="#000000"
       stroke-width="4"
       stroke-linecap="round"
       stroke-linejoin="round"
       d="m -676.376,815.693 -0.552,-0.443 0.119,0.644 1.097,1.815 3.498,2.999 3.058,0.768 7.367,3.256 2.272,1.457 2.562,0.413 0.878,0.536 -0.272,0.142 -0.062,-0.229 0.118,0.396 -0.011,-0.546 0.043,0.3 -3.333,0.838 -2.358,1.219 -7.621,2.75 -3.865,0.346 -0.45,0.203 -0.501,0.951 -0.028,-0.544 0.523,0.005 4.371,-3.978 0.998,-1.888 -0.695,-1.806 -1.152,-0.122 -2.478,-0.954 -0.912,-0.018 -0.334,0.432 -0.869,0.16 -1.027,1.549 2.134,-2.806 -0.061,0.447 -0.195,-0.615 -1.265,2.098 0.533,1.185 1.197,0.857 0.825,0.29 1.319,-0.326 1.594,-1.463 -0.087,-1.165 -0.994,0.661 -3.222,4.035 -0.005,3.031 0.17,0.451 1.135,0.703 1.475,-0.246 3.706,-2.311 4.268,-2.012 0.058,-0.389 -6.073,4.549 -0.277,0.902 0.206,0.334 0.664,0.441 0.94,0.111 7.99,-4.159 -0.349,-0.01 0.014,-0.471 0.137,0.533 0.908,-1.815 -0.236,-0.694 -0.685,0.202 -1.033,-1 -1.201,-0.011 -2.96,-0.872 -3.013,-2.129 -0.364,0.42 -1.212,-0.911 -1.614,-0.433 -1.189,-1.177 -1.068,-0.482 -0.667,-1.118 -0.177,0.364 -0.298,-0.865 -1.25,-0.096 0.021,-0.257 1.053,12.728 1.07,1.783 1.634,0.133"
       id="path53" />
  </g>
  <g
     id="g54">
    <path
       fill="none"
       stroke="#000000"
       stroke-width="4"
       stroke-linecap="round"
       stroke-linejoin="round"
       d="m -653.343,828.969 4.043,-0.121 2.46,-0.646 0.875,0.306 1.675,-0.18 8.188,-1.462 10.733,-1.029 2.372,-0.738 1.911,0.344 5.664,0.033 8.32,-0.68 3.679,0.285 1.197,0.437 0.504,-0.229 1.792,0.247 0.852,-0.288 2.266,0.845 1.613,-0.164 3.573,0.437 2.7,-0.412 1.455,0.546 2.379,-0.305 9.579,0.965 3.901,-0.313 2.151,0.502 1.967,-0.525 2.314,0.287 0.588,-0.203 2.79,0.561 3.761,-0.566 1.517,0.375 6.894,-0.391 9.462,-0.118 1.902,0.264 2.103,-0.464 3.124,-0.093 6.164,0.294 3.057,-0.254 11.338,0.211 1.767,0.24 2.279,-0.634 1.511,0.618 3.597,-0.565 2.28,0.489 2.585,-0.017 1.421,0.453 2.634,-0.15 2.226,0.687 1.64,-0.397 6.545,-0.142 5.469,0.363 1.91,0.661 3.236,-0.375 0.778,0.303 1.897,-0.453 1.999,0.499 6.155,-0.183 0.975,0.319 5.215,-0.124 2.186,0.347 9.599,-0.065 1.123,0.33 2.154,-0.141 2.46,0.339 2.484,-0.299 4.545,0.476 3.461,-0.065 0.76,-0.13 0.637,-0.562 3.136,0.884 2.254,-0.384 1.619,0.182 1.553,-0.223 6.852,0.741 1.221,-0.498 7.007,0.083 2.045,-0.463 1.672,0.284 1.079,-0.463 1.591,0.522 1.475,-0.388 4.433,0.065 1.356,-0.358 1.188,0.598 2.622,-0.614 5.6,-0.6 1.706,0.289 2.348,-0.483 4.582,0.204 4.686,-0.726 0.135,0.265 2.16,-0.244 0.143,-0.302 0.764,0.396 0.605,-0.513 0.658,-0.059 2.272,0.07 0.013,0.204 0.298,-0.575 0.327,0.764 1.029,-0.612 1.192,0.219 0.331,-0.357 -0.051,0.228 0.749,0.326 2.521,-0.522 0.867,0.453 0.858,-0.111 0.826,0.314 1.56,-0.684 0.501,0.617 -0.073,-0.378 0.06,0.256 1.679,0.041"
       id="path54" />
  </g>
  <g
     id="g55">
    <path
       fill="none"
       stroke="#000000"
       stroke-width="4"
       stroke-linecap="round"
       stroke-linejoin="round"
       d="m 394.077,368.403 -0.866,0.4 0.393,-1.03 -0.196,-0.041 -0.079,0.262 0.224,0.051 -0.008,-0.416 0.133,0.549 -0.137,5.891 0.117,2.121 0.676,3.09 -0.171,1.595 0.587,13.625 -0.537,11.421 -0.731,5.637 0.293,3.295 -0.168,7.283 -0.493,5.609 0.393,7.345 -0.548,10.343 0.369,3.583 -0.167,3.599 0.332,2.493 0.119,7.585 0.243,0.422 -0.231,0.652 0.318,1.845 -0.203,1.564 -0.131,-0.331 0.635,-1.776"
       id="path55" />
  </g>
  <g
     id="g56">
    <path
       fill="none"
       stroke="#000000"
       stroke-width="4"
       stroke-linecap="round"
       stroke-linejoin="round"
       d="m 396.804,366.174 0.319,0.452 1.322,-0.988 0.765,0.314 4.141,-0.405 1.645,-0.265 1.174,-0.663 1.04,0.283 1.774,-0.208 2.062,0.413 1.517,-0.357 3.145,1.823 1.128,0.198 2.02,0.211 2.064,-0.371 1.513,0.466 0.652,-0.26 0.477,0.574 0.62,-0.272 2.442,-0.043 4.796,0.629 0.833,-0.255 0.51,0.211 0.821,-0.721 0.412,0.522 0.885,-0.742 0.478,0.104 0.083,-0.391 1.192,0.531 1.28,-0.908 2.388,-0.498 1.932,0.339 0.635,-0.359 0.423,0.379 0.797,0.074 -0.076,0.351 -0.073,-0.588 0.657,0.238 -0.32,-0.882"
       id="path56" />
  </g>
  <g
     id="g57">
    <path
       fill="none"
       stroke="#000000"
       stroke-width="4"
       stroke-linecap="round"
       stroke-linejoin="round"
       d="m 445.769,366.988 0.895,2.842 1.134,9.37 0.737,11.185 -0.183,3.23 1.29,15.897 0.177,15.66 -0.895,6.977 -0.21,4.725 0.949,8.636 -0.185,4.537 0.241,4.587 -0.246,2.371 0.347,3.607 -0.291,6.702 -0.34,0.624 0.139,0.592 -0.072,-0.421 -0.193,0.253 0.22,0.41 -0.697,-0.049"
       id="path57" />
  </g>
  <g
     id="g58">
    <path
       fill="none"
       stroke="#000000"
       stroke-width="4"
       stroke-linecap="round"
       stroke-linejoin="round"
       d="m 400.392,467.505 -0.959,0.148 0.164,-0.451 0.116,0.759 0.002,-0.236 0.628,-0.105 3.475,0.013 4.066,-0.733 1.117,0.311 1.467,-0.196 1.266,0.832 4.844,-0.255 0.75,0.369 0.798,-0.236 1.933,0.319 2.246,-0.594 3.624,0.23 1.763,-1.195 0.528,0.447 0.857,-0.406 1.403,0.251 0.688,-0.2 0.919,0.761 0.739,0.166 1.605,-0.611 3.145,-0.497 1.532,0.779 1.982,-0.387 0.847,0.381 1.073,-0.376 0.798,0.591 1.792,0.013 2.147,-0.221 0.495,-0.31 0.595,0.6 0.538,-0.599 0.602,0.32 0.974,-1.006"
       id="path58" />
  </g>
  <g
     id="g59">
    <path
       fill="none"
       stroke="#000000"
       stroke-width="4"
       stroke-linecap="round"
       stroke-linejoin="round"
       d="m 399.271,447.601 -0.126,-1.634 -0.411,0.391 -0.506,-0.294 0.013,-0.517 0.231,0.791 2.141,0.894 1.542,1.169 3.327,0.449 4.097,1.395 1.962,1.696 -0.463,0.993 -0.902,0.883 -1.548,0.7 -3.288,0.555 -0.602,0.403 -5.432,1.482 -0.221,0.543 0.174,-0.235 0.339,1.056"
       id="path59" />
  </g>
  <g
     id="g60">
    <path
       fill="none"
       stroke="#000000"
       stroke-width="4"
       stroke-linecap="round"
       stroke-linejoin="round"
       d="m 455.926,412.366 -0.757,0.631 -0.296,-0.207 0.379,-0.172 0.127,0.446 -0.215,0.024 0.442,-0.676 0.665,0.611 1.103,-0.398 8.165,1.063 1.608,-0.526 1.211,0.659 2.292,-0.168 1.268,-0.728 0.743,0.6 0.369,-0.35 0.701,0.334 2.304,0.047 0.675,-0.478 0.454,0.528 3.164,-0.259 0.274,0.196 0.556,-0.568 0.748,0.509 3.223,0.125 0.387,0.343 0.937,-0.624 0.584,0.801 1.379,-0.396 5.377,-0.45 2.372,-0.982 0.681,0.483 3.967,-0.518 0.605,0.45 0.37,-0.656 0.951,0.459 0.882,-0.35 0.881,0.235 1.447,-0.205 0.719,-0.567 0.81,-0.165 0.757,0.447 1.568,0.144 2.608,-0.245 1.499,0.255 2.225,-0.378 0.942,0.516 0.961,-0.316 0.142,0.245 1.594,-0.012 1.771,0.424 5.438,-0.203 1.276,0.369 2.417,-0.064 2.096,-0.538 0.568,0.68 0.151,-0.687 0.286,-0.081 0.512,0.577 1.818,-0.27 1.124,0.558 1.099,-0.195 0.076,0.424 0.44,-0.311 -0.208,0.071 -0.063,-0.406 0.024,0.643 0.211,-0.138 0.656,0.458"
       id="path60" />
  </g>
  <g
     id="g61">
    <path
       fill="none"
       stroke="#000000"
       stroke-width="4"
       stroke-linecap="round"
       stroke-linejoin="round"
       d="m 545.405,403.503 0.465,-1.046 1.651,12.815 0.199,3.486 -0.244,6.151 0.3,4.541 0.034,-0.552 0.074,0.55 0.132,-0.544 0.944,0.278 1.373,-1.236 3.661,-1.752 3.837,-2.702 3.301,-1.405 6.555,-3.821 1.417,0.05 1.356,-1.518 3.184,-1.77 0.886,-0.045 0.318,-0.462 0.027,-0.712 -0.225,0.97 -0.061,-0.726 -0.805,0.108 -4.247,-2.441 -10.108,-3.762 -2.407,-1.465 -2.755,-1.054 -0.778,0.123 -0.702,-0.37 -1.224,-0.078 -0.75,-0.85 -0.528,0.758 -0.761,-0.302 -0.589,0.544 0.048,-0.658 0.016,0.529 0.167,-0.2 -0.22,-0.174 -0.002,0.233 0.027,-0.348 -0.17,0.224 0.143,0.911 -0.094,-1.277 0.659,2.232 1.059,2.038"
       id="path61" />
  </g>
  <g
     id="g62">
    <path
       fill="none"
       stroke="#000000"
       stroke-width="4"
       stroke-linecap="round"
       stroke-linejoin="round"
       d="m 549.6,412.231 -0.751,1.989 -0.428,2.441 0.051,6.871 0.999,-3.378 0.052,-9.006 -0.007,9.994 0.349,1.283 0.639,0.684 0.581,-0.486 0.519,-1.746 0.996,-1.324 0.296,-1.055 0.586,-4.65 -0.545,-3.225 0.061,1.446 -0.778,2.491 -0.077,2.897 0.455,2.666 0.59,1.222 0.443,-0.582 0.301,0.055 0.885,-1.653 1.197,-3.305 -0.153,-4.07 -0.122,6.507 0.956,2.235 0.749,0.259 0.436,-0.655 0.404,0.095 0.893,-1.201 1.313,-3.245 0.036,-1.376 -1.034,-1.409 -0.486,0.036 -0.08,0.755 -0.62,0.235 -0.735,2.413 -0.323,1.711 0.231,1.825 0.467,0.934 0.798,0.417 1.251,-0.135 1.492,-2.53 0.428,-1.974 -0.064,2.724 1.239,1.235 2.387,-2.059 2.269,-3.339 0.224,-0.735 -0.267,0.085 v 0.385 l -1.512,1.669 -0.469,2.14 0.919,-0.657 1.269,-1.793 0.688,-1.477 -0.157,-0.551 -0.165,1.615 0.365,0.044 0.458,-0.81"
       id="path62" />
  </g>
  <g
     id="g63">
    <path
       fill="none"
       stroke="#000000"
       stroke-width="4"
       stroke-linecap="round"
       stroke-linejoin="round"
       d="m 570.613,413.952 -1.284,-0.782 -1.423,0.624 -0.576,0.595 -0.034,0.527 -0.118,-0.465"
       id="path63" />
  </g>
  <g
     id="g64">
    <path
       fill="none"
       stroke="#000000"
       stroke-width="4"
       stroke-linecap="round"
       stroke-linejoin="round"
       d="m 566.27,412.902 -4.339,-0.358 -0.973,-0.761 -0.899,-1.445 0.121,0.45 -0.959,-0.989"
       id="path64" />
  </g>
  <g
     id="g65">
    <path
       fill="none"
       stroke="#000000"
       stroke-width="4"
       stroke-linecap="round"
       stroke-linejoin="round"
       d="m -117.671,514.029 -2.838,0.305 0.276,0.268 0.282,-0.158 1.009,-0.584 0.485,-0.725 1.876,-1.074 4.707,-4.613 4.642,-3.239 9.5051,-8.252 4.6498,-2.734 1.7473,-1.613 3.0063,-1.478 3.038,-2.8 5.1023,-3.355 5.8438,-4.982 1.319,-0.526 0.2405,-0.329 -0.2578,0.325 -0.143,-0.319 -0.7777,0.017"
       id="path65" />
  </g>
  <g
     id="g66">
    <path
       fill="none"
       stroke="#000000"
       stroke-width="4"
       stroke-linecap="round"
       stroke-linejoin="round"
       d="m -117.982,371.301 0.162,-0.206 -0.026,0.535 1.442,0.859 2.158,0.867 0.578,-0.037 1.587,1.637 1.629,0.948 2.315,0.472 1.76,0.883 2.715,2.654 3.465,1.66 5.4257,4.028 0.72,0.413 1.5531,0.04 4.5042,3.629 2.3545,1.127 0.9253,0.846 1.7323,0.595 1.8558,1.454 0.4265,0.032 0.3717,0.692 1.2893,0.137 0.6036,1.03 0.3002,0.165 0.2607,-0.351 1.2583,0.313 0.8319,1.3 4.2918,2.036 0.5999,0.965 0.9061,-0.278 0.1881,0.611 0.5316,0.04 0.5492,0.647 -0.1574,-0.42 -0.0705,0.47 -0.0923,-0.189 -0.6076,0.788"
       id="path66" />
  </g>
  <g
     id="g67">
    <path
       fill="none"
       stroke="#000000"
       stroke-width="4"
       stroke-linecap="round"
       stroke-linejoin="round"
       d="m -31.4971,395.72 -3.5068,-0.424 -4.7562,-0.076 -2.1607,0.608 -0.6015,-0.225 -5.8963,0.945 -2.2286,1.251 -3.6889,0.715 -9.0837,4.26 -1.6663,1.481 -0.4713,0.995 -2.1582,1.207 -1.2863,1.403 -3.8185,2.983 -1.18,2.771 -1.2732,1.359 -1.1052,1.881 -1.4709,3.573 -2.3208,3.841 -1.1449,3.102 -0.3767,1.534 0.0192,4.049 -0.449,3.182 0.4254,5.671 1.3969,3.865 -0.2274,1.991 0.5239,3.239 0.6235,0.858 0.8549,2.443 2.0379,2.152 0.6297,1.735 2.228,2.847 4.8157,2.775 5.805,2.455 0.6256,1.071 1.1115,0.531 2.498,0.248 3.6171,1.162 2.2874,1.754 10.3701,-0.228 5.4141,0.294 2.2626,-0.473 1.6623,0.818 0.8363,0.039 0.6576,-0.57 4.0594,-0.83 2.1449,0.074 1.8605,-1.246 4.5877,-0.443 6.5367,-2.012 1.0188,-0.063 1.89908,-0.795 1.45148,0.045 2.12097,-1.131 4.40924,-1.057 3.46259,-1.69 2.73566,-0.359 4.526,-2.224 4.35528,-3.067 2.1664,-1.035 2.0256,-2.358 1.6442,-0.797 1.16,-1.306 2.2744,-1.571 1.4436,-2.186 5.1722,-3.936 3.5046,-3.505 1.4828,-2.469 0.4126,-0.167 1.888,-5.069 0.4535,-2.756 -0.365,-2.813 -1.0842,-3.485 -4.206,-5.649 -1.1734,-0.763 -0.545,-1.142 -0.8459,-0.816 -1.5195,-1.293 -4.5683,-2.558 -3.9887,-1.319 -3.4307,-2.421 -6.0218,-2.001 -1.29511,-0.066 -0.86859,-1.095 -1.56177,-0.027 -1.15985,-0.664 -1.10101,-0.023 -1.35956,-0.745 -1.165405,-0.031 -1.098876,-0.546 -1.018739,0.442 -0.52551,-0.142 -0.41467,-0.526 -4.28693,-1.438 -4.49508,-0.461 -5.2721,0.213 -1.6891,-0.588 -0.9946,0.408 -0.8619,-0.319 -0.9052,0.078 -0.5409,-0.419 -1.7408,0.004 -1.0783,0.386 -1.0614,-0.452 -6.6394,1.705 -0.2365,0.445 -0.7278,-0.358 -1.7963,0.115"
       id="path67" />
  </g>
  <g
     id="g68">
    <path
       fill="none"
       stroke="#000000"
       stroke-width="4"
       stroke-linecap="round"
       stroke-linejoin="round"
       d="m -51.4246,414.534 -1.6227,0.442 0.8536,-0.291 -0.1458,16.713 0.2315,1.893 0.0067,-0.679 0.1564,0.569 0.4746,-1.452"
       id="path68" />
  </g>
  <g
     id="g69">
    <path
       fill="none"
       stroke="#000000"
       stroke-width="4"
       stroke-linecap="round"
       stroke-linejoin="round"
       d="m -50.8889,442.009 -1.5403,0.72 0.2468,0.128 0.305,-0.438 0.0529,0.657 0.5358,0.7 0.829,0.073 0.296,0.376 0.4152,-0.005 1.0766,-1.475 0.8941,-0.386 0.1946,-1.109 -0.296,0.708 -1.3754,0.187 -1.1476,-0.23 -1.4497,1.805 -0.4413,-0.384"
       id="path69" />
  </g>
  <g
     id="g70">
    <path
       fill="none"
       stroke="#000000"
       stroke-width="4"
       stroke-linecap="round"
       stroke-linejoin="round"
       d="m -27.0206,423.236 1.2984,-0.3 -0.6675,-0.087 -0.7413,0.587 -0.2163,-0.188 0.2268,0.365 0.0905,-0.384 0.2151,0.259 1.6935,-0.681 4.4368,-0.841 4.1847,0.255 5.6049,-0.53 2.54332,-0.662 0.39361,-0.465 -0.31982,0.036 0.13983,0.221"
       id="path70" />
  </g>
  <g
     id="g71">
    <path
       fill="none"
       stroke="#000000"
       stroke-width="4"
       stroke-linecap="round"
       stroke-linejoin="round"
       d="m -27.5214,431.124 -1.5352,0.761 0.3231,0.284 0.129,-0.349 6.817,-0.491 4.3712,-1.646 3.4859,0.057 2.5952,-0.878 0.7295,0.241 0.024,0.47 1.79642,-0.585 -0.33496,0.326 0.07959,0.389 0.00421,-0.601"
       id="path71" />
  </g>
  <g
     id="g72">
    <path
       fill="none"
       stroke="#000000"
       stroke-width="4"
       stroke-linecap="round"
       stroke-linejoin="round"
       d="m 41.7823,428.309 9e-4,-0.509 -0.1223,0.633 0.1089,-0.46 0.1667,0.354 1.0186,-0.17 2.1836,0.478 0.913,-0.506 6.4253,-0.549 1.5749,-0.522 2.1254,0.598 0.5616,-0.298 2.2201,0.017 0.6695,-0.344 1.6606,0.066 0.9241,-0.315 2.1077,0.312 1.9787,-0.51 2,0.425 1.1215,-0.396 2.0864,0.471 1.5711,-0.488 2.4895,0.353 1.3427,-0.58 1.5237,0.487 0.712,-0.741 0.3123,0.353 0.6051,-0.438 1.9458,0.011 0.224,-0.232 0.5078,0.492 0.2584,-0.624 0.1225,0.605 -0.0059,-0.65 0.0459,0.387 -0.0827,-0.261 0.5269,-0.303"
       id="path72" />
  </g>
  <g
     id="g73">
    <path
       fill="none"
       stroke="#000000"
       stroke-width="4"
       stroke-linecap="round"
       stroke-linejoin="round"
       d="m -126.997,516.837 0.643,-0.56 8.274,-4.808"
       id="path73" />
  </g>
  <g
     id="g74">
    <path
       fill="none"
       stroke="#000000"
       stroke-width="4"
       stroke-linecap="round"
       stroke-linejoin="round"
       d="m -117.953,372.699 0.477,-0.236 0.157,0.466 0.243,-0.041 0.391,-0.642 0.035,0.379 0.239,-0.358 -0.095,0.447 -0.191,-0.249 0.246,-0.038 -0.256,0.275 -0.068,-0.408"
       id="path74" />
  </g>
  <g
     id="g75">
    <path
       fill="none"
       stroke="#000000"
       stroke-width="4"
       stroke-linecap="round"
       stroke-linejoin="round"
       d="m -157.756,519.368 1.09,-2.014 1.826,0.971 1.794,0.081 1.481,0.477 1.23,-0.175 0.514,0.325 2.206,-0.268 0.583,0.437 0.477,-0.312 0.835,0.659 0.58,0.071 0.824,-0.283 0.912,0.176 1.128,-1.349 0.262,0.442 0.883,0.318 1.871,0.289 0.593,-0.385 0.594,0.433 1.437,-0.432 0.206,0.306 0.378,-0.256 1.835,0.237 0.327,-0.502 1.065,0.113 0.613,-0.492 0.285,0.646 -0.022,-0.666 -0.41,-0.254"
       id="path75" />
  </g>
  <g
     id="g76">
    <path
       fill="none"
       stroke="#000000"
       stroke-width="4"
       stroke-linecap="round"
       stroke-linejoin="round"
       d="m -174.005,365.362 0.272,-2.24 0.092,1.115 2,0.577 4.974,-0.228 2.188,0.492 2.045,0.041 1.845,-0.158 1.172,-0.463 2.643,0.438 1.441,-0.362 3.745,0.857 2.438,-0.661 4.369,-0.295 1.67,0.166 0.502,-0.36 0.322,0.392 0.784,-0.614 2.187,0.178 0.791,0.494 0.145,-0.508 0.717,0.679 0.777,-0.403 4.288,0.441 0.558,-0.471 1.536,-0.109 0.573,0.529 0.218,-0.21 0.881,0.35 0.755,-0.163 1.037,0.447 -0.11,-0.401 0.59,0.593 0.7,-0.253 -0.206,-0.172"
       id="path76" />
  </g>
  <g
     id="g77">
    <path
       fill="none"
       stroke="#000000"
       stroke-width="4"
       stroke-linecap="round"
       stroke-linejoin="round"
       d="m -125.434,366.371 0.286,-2.152 -0.82,0.599 0.146,0.258 0.134,-0.437 2.341,2.597 1.185,1.871 0.38,0.036 3.644,3.171 1.545,0.487 0.729,-0.116"
       id="path77" />
  </g>
  <g
     id="g78">
    <path
       fill="none"
       stroke="#000000"
       stroke-width="4"
       stroke-linecap="round"
       stroke-linejoin="round"
       d="m 285.157,386.057 0.492,4.51 -0.291,5.368 0.29,4.992 -0.334,14.991 0.329,5.198 -0.25,5.588 0.455,2.546 -0.295,1.166 0.151,4.704 -0.097,0.499 -0.002,-0.366 -0.088,0.458 -0.132,-0.2 -0.712,0.791"
       id="path78" />
  </g>
  <g
     id="g79">
    <path
       fill="none"
       stroke="#000000"
       stroke-width="4"
       stroke-linecap="round"
       stroke-linejoin="round"
       d="m 288.371,384.871 0.363,-0.597 2.21,-0.316 0.626,-0.559 1.036,0.112 0.625,-0.511 2.538,0.442 3.519,-0.389 0.507,0.496 0.403,-0.965 0.097,0.377 1.91,0.498 0.28,-0.422 0.457,0.249 2.128,-0.286 0.112,0.294 0.369,-0.469 1.621,0.707 1.164,-0.179 0.906,0.799 0.585,-0.814 0.528,0.036 1.262,1.064 5.337,0.264 0.286,-0.22 0.687,0.742 0.937,-0.141 0.625,0.608 2.413,0.803 2.091,0.347 1.196,0.597 0.685,-0.07 0.914,1.015 2.02,1.204 0.705,1.368 0.916,0.896 1.324,2.444 0.18,0.955 0.986,1.467 1.184,2.681 0.335,2.512 1.796,7.184 -0.301,5.758 -0.801,5.881 -0.658,2.779 -1.108,2.663 -1.165,2.558 -0.786,0.587 -0.646,1.697 -1.268,1.011 -0.15,0.854 -0.181,-0.258 -1.918,1.747 -2.098,1.07 -0.511,0.607 -0.583,0.17 -0.661,-0.244 -0.984,0.997 -1.079,-0.382 -1.593,0.387 -0.313,-0.301 -0.905,0.253 -0.723,-0.198 -0.424,0.318 -2.856,0.259 -2.019,0.619 -1.372,-0.475 -0.447,0.521 -1.468,-0.473 -0.375,0.317 -1.709,0.168 -1.933,-0.62 -1.996,0.528 -3.459,-0.342 -1.282,0.209 -0.244,-0.3 -0.43,0.204 -0.359,-0.244 -0.636,0.278 -0.683,-0.385 -0.661,0.411 -0.92,-0.5 -0.322,0.376 -0.701,-0.417 -3.359,0.15 -0.271,-0.31 -0.8,1.182 0.632,-0.592"
       id="path79" />
  </g>
  <g
     id="g80">
    <path
       fill="none"
       stroke="#000000"
       stroke-width="4"
       stroke-linecap="round"
       stroke-linejoin="round"
       d="m 343.571,410.733 -0.586,0.502 0.352,-0.515 0.03,0.389 0.23,-0.374 -0.225,0.013 0.068,0.378 0.12,-0.491 0.994,0.464 1.201,-0.356 0.824,0.58 2.498,-0.304 0.901,-0.484 1.682,0.227 1.492,-0.789 0.387,0.43 0.824,-0.158 2.051,0.323 1.676,-0.538 0.884,0.408 0.233,-0.411 1.314,-0.22 0.781,0.276 0.447,-0.279 0.333,0.286 1.504,-0.66 1.938,0.324 2.318,-0.367 1.16,0.39 3.976,-0.796 0.637,0.177 0.532,-0.223 0.102,-0.397 0.034,0.496 2.691,-0.279 1.487,0.704 0.699,-0.652 0.148,0.299 1.858,-0.353 0.697,0.252 0.264,-0.342 0.299,0.252 0.201,-0.445 0.153,0.303 1.445,-0.18 0.388,0.239 1.042,-0.658 1.103,0.331 0.316,-0.276 0.188,0.35 0.492,-0.712 0.7,0.445 0.795,-0.278 -0.22,0.325 0.13,-0.462 0.378,0.52 1.001,-0.123 -0.372,-0.035 0.047,-0.233 1.521,0.187 1.421,-1.384"
       id="path80" />
  </g>
  <g
     id="g81">
    <path
       fill="none"
       stroke="#000000"
       stroke-width="4"
       stroke-linecap="round"
       stroke-linejoin="round"
       d="m 271.497,392.186 -0.346,0.453 -0.46,-0.302 -0.262,0.43 -0.162,-0.157 -1.133,1.786 -0.251,2.913 0.748,3.376 0.599,0.586 1.629,0.686 1.698,0.061 0.407,0.527 0.673,-0.585 0.529,0.362 0.257,-0.548 0.38,0.236 1.011,-0.774 0.138,0.229 0.745,-1.764 0.53,-0.104 0.875,-1.547 0.248,-1.229 0.009,0.599 -0.163,-1.612 -0.438,-0.535 -0.309,-1.584 -0.701,-0.466 -0.66,-1.071 -0.47,-0.21 -0.141,0.293 -0.042,-0.382 -0.371,0.065 -0.243,-0.341 -0.354,0.017 -0.192,0.589 -0.775,-0.874 -0.705,0.432 -0.446,-0.203 -1.178,0.24"
       id="path81" />
  </g>
  <g
     id="g82">
    <path
       fill="none"
       stroke="#000000"
       stroke-width="4"
       stroke-linecap="round"
       stroke-linejoin="round"
       d="m 232.929,267.084 1.689,-0.647 -0.94,1.251 -0.935,3.907 -0.408,3.876 0.246,14.181 -0.797,14.866 0.102,4.919 0.864,10.502 -0.718,16.701 0.673,8.209 0.351,13.962 0.595,2.283 0.073,1.851 -0.207,14.463 0.372,2.633 -0.18,4.401 0.174,-0.165 0.197,1.372 -0.312,7.424 0.154,-0.374 0.051,0.392 -0.078,-0.466 -0.095,0.625 10e-4,-0.547 -0.167,1.357 0.248,0.036 0.09,-0.405"
       id="path82" />
  </g>
  <g
     id="g83">
    <path
       fill="none"
       stroke="#000000"
       stroke-width="4"
       stroke-linecap="round"
       stroke-linejoin="round"
       d="m 234.357,396.728 -0.218,0.076 0.259,0.128 -0.088,-0.442 0.344,0.725 9.832,1.917 0.972,-0.39 2.038,-0.174 3.354,0.169 1.136,-0.446 0.775,0.406 2.629,-0.417 0.693,0.302 0.429,-0.269 0.651,0.263 1.852,-0.362 0.366,0.276 0.383,-0.569 0.258,0.447 1.477,-0.817 0.36,0.547 0.179,-0.492 1.004,-0.057 0.106,0.347 0.313,-0.386 0.455,0.298 0.903,-0.475 0.424,0.315 2.29,-2.415"
       id="path83" />
  </g>
  <g
     id="g84">
    <path
       fill="none"
       stroke="#000000"
       stroke-width="4"
       stroke-linecap="round"
       stroke-linejoin="round"
       d="m 227.227,252.877 1.477,-0.787 -0.903,0.29 0.368,-0.003 -0.161,-0.302 2.282,4.867 0.962,1.383 1.891,4.86 2.248,3.665 0.189,0.193 0.596,-0.352 0.428,0.249 0.863,-0.595 1.868,-2.339 3.683,-6.415 1.656,-5.077 0.62,-6.091 -0.243,0.822 -0.077,-0.341 -0.598,-0.013 -0.835,0.516 -1.727,-0.054 -0.623,0.295 -4.045,-0.835 -2.479,0.863 -1.057,-0.323 -0.962,0.708 -0.834,-0.465 -0.04,0.468 -0.058,-0.523 -0.156,3.486 0.237,1.282 0.486,1.955 1.429,3.122 2.554,-3.49 0.538,-1.255 0.052,-1.835 -1.789,5.703 0.107,1.003 0.363,0.03 0.456,0.676 2.741,-4.057 0.722,-2.225 0.107,-1.682 -1.45,4.001 -0.025,2.806 0.285,0.096 2.182,-2.14 1.23,-2.123 0.029,-1.575 -0.724,0.438 -1.495,2.091 -0.982,2.326 -0.278,1.276 0.444,1.689 2.052,-4.354 -0.787,-2.5 -1.481,0.679 -2.601,3.751 -0.184,0.787 0.312,-5.146 -0.392,-1.658 -0.918,-1.71 -1.201,-0.557 -1.069,0.073 -1.035,1.253 -0.836,2.31 0.026,0.841 0.031,-1.003 -0.611,-1.026 0.562,2.162 -0.058,-1.615"
       id="path84" />
  </g>
  <g
     id="g85">
    <path
       fill="none"
       stroke="#000000"
       stroke-width="4"
       stroke-linecap="round"
       stroke-linejoin="round"
       d="m 220.251,199.539 -0.106,-0.202 -0.411,0.244 -0.915,3.847 -0.324,3.859 0.153,7.463 0.519,-7.06 0.051,-9.846 0.561,-1.591 1.016,-0.754 1.106,0.237 0.773,-0.284 2.68,3.333 0.388,1.292 -0.124,0.675 -1.228,1.455 -1.995,1.272 -0.177,-0.144 0.653,2.316 0.766,1.368 4.152,4.696 0.689,0.176 0.008,-0.448"
       id="path85" />
  </g>
  <g
     id="g86">
    <path
       fill="none"
       stroke="#000000"
       stroke-width="4"
       stroke-linecap="round"
       stroke-linejoin="round"
       d="m 238.126,195.212 -0.763,-0.278 -0.933,0.669 -1.298,2.014 -0.136,1.807 0.67,2.119 0.614,1.2 0.745,0.606 4.239,2.134 0.81,1.703 -0.942,1.594 -1.408,1.148 -4.554,0.444 -0.952,-1.838"
       id="path86" />
  </g>
  <g
     id="g87">
    <path
       fill="none"
       stroke="#000000"
       stroke-width="4"
       stroke-linecap="round"
       stroke-linejoin="round"
       d="m 251.498,195.757 -0.716,0.662 -0.749,1.649 -0.014,1.945 0.785,10.329 0.815,-0.472"
       id="path87" />
  </g>
  <g
     id="g88">
    <path
       fill="none"
       stroke="#000000"
       stroke-width="4"
       stroke-linecap="round"
       stroke-linejoin="round"
       d="m 245.736,194.296 1.118,-0.188 -2.857,0.957 0.517,-0.517 1.478,0.416 4.65,-0.482 1.506,0.462 1.461,-0.159 1.081,0.642 1.707,-0.257 2.268,-0.854 1.427,0.182 2.552,-1.87"
       id="path88" />
  </g>
  <g
     id="g89">
    <path
       fill="none"
       stroke="#000000"
       stroke-width="4"
       stroke-linecap="round"
       stroke-linejoin="round"
       d="m 156.605,403.445 -0.337,-0.073 0.073,0.291 0.38,-0.324 0.174,0.455 1.815,-0.291 2.356,-0.814 1.778,-0.064 1.873,0.578 1.22,-0.402 4.408,0.112 1.164,0.689 0.883,-0.268 2.415,0.968 0.585,-0.045 8.163,3.385 0.675,0.734 0.957,0.14 0.967,1.081 1.08,-0.167 1.442,0.857 1.893,0.532 0.575,0.576 1.053,0.437 0.484,-0.137 1.766,1.69 0.87,-0.166 0.647,0.379 0.15,0.672 0.333,0.05 0.268,-0.642 0.455,0.919 0.494,0.168 0.52,0.762 1.404,0.5 0.972,0.764 0.176,0.535 2.173,1.094 0.883,0.814 1.906,0.642 0.361,0.78 0.176,-0.477 0.185,0.298 -0.3,-0.114 0.267,0.005 -0.063,0.242 -0.002,-0.555 0.017,0.461 -0.142,-0.312 -0.116,0.271"
       id="path89" />
  </g>
  <g
     id="g90">
    <path
       fill="none"
       stroke="#000000"
       stroke-width="4"
       stroke-linecap="round"
       stroke-linejoin="round"
       d="m 157.577,450.516 -0.151,0.3 0.98,-0.487 1.962,-0.132 2.102,-0.999 1.009,0.121 4.406,-1.071 5.349,-1.872 1.475,-0.886 0.615,0.139 0.237,-0.306 1.457,-0.176 1.633,-0.693 3.912,-2.72 0.345,0.082 3.143,-2.467 3.099,-1.706 1.047,-1.368 0.53,0.428 0.96,-1.533 1.299,-0.584 0.79,-0.851 0.605,0.048 0.458,-0.917 2.327,-2.298 1.517,-2.612 1.701,-1.345 0.768,-2.544 0.105,0.525 0.839,-2.246 0.08,0.468 -0.145,-0.642 0.808,-0.702 -0.29,-0.915"
       id="path90" />
  </g>
  <g
     id="g91">
    <path
       fill="none"
       stroke="#000000"
       stroke-width="4"
       stroke-linecap="round"
       stroke-linejoin="round"
       d="m 156.944,404.683 -0.267,0.32 0.206,-0.308 0.74,0.775 0.703,-0.022 1.413,1.746 2.563,4.823 2.686,11.515 -0.085,4.511 0.427,5.14 0.265,0.449 -0.325,3.48 -1.54,6.949 -0.608,1.096 0.058,0.683 -0.721,1.729 -0.602,0.216 -0.115,1.281 -0.255,0.295 0.051,-0.361"
       id="path91" />
  </g>
  <g
     id="g92">
    <path
       fill="none"
       stroke="#000000"
       stroke-width="4"
       stroke-linecap="round"
       stroke-linejoin="round"
       d="m 207.663,419.71 -0.822,0.42 -1.044,1.363 0.476,-0.811 0.228,-0.049 -0.13,0.392 1.931,-0.272 0.231,-0.332 0.384,0.267 0.625,-0.542 4.268,-0.689 1.079,0.427 0.999,-0.408 1.024,0.47 0.918,-0.615 0.481,0.494 1.394,-0.352 1.465,0.499 1.262,-0.767 0.907,0.516 5.076,-0.143 1.246,0.45 2.059,-1.19 0.572,0.318 1.703,0.056 0.608,-0.26 0.755,0.253 1.028,-0.393 4.385,0.955 0.815,-0.302 0.324,0.457 0.54,0.117 2.276,-0.182 0.826,0.71 2.003,-0.387 2.479,0.033 3.879,0.199 0.484,0.339 1.095,-0.167 0.567,0.32 1.806,-0.33 0.708,0.323 0.534,-0.343 0.845,0.369 2.017,-0.351 2.971,0.21 2.47,-0.458 0.685,0.296 0.92,-0.609 0.166,0.756 0.473,-0.592 0.823,0.391 0.983,-0.502 0.974,0.488 3.081,-0.561 0.58,0.292 0.996,-0.272 0.328,0.359 -0.007,-0.465 -0.039,0.576 -0.063,-0.361 1.068,-0.228 0.214,0.601 -0.116,-0.524 10e-4,0.26 0.934,0.227 0.656,-0.393 0.169,0.619 -0.025,-0.354 0.643,-0.373 0.542,0.299 -0.163,-0.37 2.041,0.61 0.475,-0.287 0.063,0.242 0.46,-0.79"
       id="path92" />
  </g>
  <g
     id="g93">
    <path
       fill="none"
       stroke="#000000"
       stroke-width="4"
       stroke-linecap="round"
       stroke-linejoin="round"
       d="m 83.0295,423.93 3.8495,-0.655 1.2628,0.072 0.3298,-0.317 0.7388,0.453 0.5323,-0.153 1.0354,0.414 0.6957,-0.199 2.1421,0.371 3.2135,-0.934 1.6915,0.592 1.4432,-0.448 1.0509,0.62 3.145,-0.336 0.753,-0.429 2.496,-0.276 0.927,-0.496 2.042,0.304 1.86,-0.698 1.077,0.593 2.123,-0.077 1.232,0.297 2.767,-0.407 1.106,0.366 0.865,-0.348 1.841,0.597 3.591,-0.002 1.149,-0.462 1.667,0.788 0.661,-0.422 3.434,-0.228 1.671,0.27 2.509,-0.355 9.566,-0.361 1.277,0.359 2.607,-0.711 1.077,0.036 0.781,0.567 2.137,-0.772 1.419,0.061 0.82,0.4 0.832,-0.583 0.392,0.377 0.171,-0.291 0.411,0.474 0.016,-0.422 0.019,0.425 -0.004,-0.774 -0.07,1.289"
       id="path93" />
  </g>
  <g
     id="g94">
    <path
       fill="none"
       stroke="#000000"
       stroke-width="4"
       stroke-linecap="round"
       stroke-linejoin="round"
       d="m 495.498,417.507 -0.292,0.608 0.145,1.351 1.006,4.164 -0.258,7.483 1.018,11.212 0.56,2.88 0.883,1.336 0.768,6.517 2.686,9.977 0.482,5.043 -0.424,7.418 1.338,6.133 0.013,1.192 -0.353,2.087 0.25,3.781 -0.65,8.834 0.064,4.481 0.342,0.741 -0.29,6.236 1.189,8.373 -0.231,1.265 0.145,0.555 0.109,-0.447 -0.095,0.479 0.085,-0.623"
       id="path94" />
  </g>
  <g
     id="g95">
    <path
       fill="none"
       stroke="#000000"
       stroke-width="4"
       stroke-linecap="round"
       stroke-linejoin="round"
       d="m 135.793,436.583 -0.079,-0.284 0.096,0.427 -0.025,-0.296 0.615,-0.022 1.948,0.79 1.393,0.045 3.041,-0.029 2.421,-0.504 2.945,0.219 2.953,-0.675 2.099,0.319 0.908,0.508 3.689,-0.073 4.376,-0.643 0.852,0.644 0.146,-0.264 0.111,0.22 -0.04,-0.699"
       id="path95" />
  </g>
  <g
     id="g96">
    <path
       fill="none"
       stroke="#000000"
       stroke-width="4"
       stroke-linecap="round"
       stroke-linejoin="round"
       d="m 135.349,439.9 -0.937,-0.53 0.071,-0.283 -0.204,0.232 -0.534,3.332 -0.025,3.728 -0.904,8.131 0.139,9.135 -1.449,16.054 0.754,5.703 0.947,4.002 0.052,8.055 0.835,7.582 0.783,2.591 -0.283,3.005 0.044,0.947 0.265,-0.088 0.108,3.401 0.239,0.422 0.118,-0.257 -0.32,0.142 0.131,0.231 -0.031,-0.33 0.654,-0.502"
       id="path96" />
  </g>
  <g
     id="g97">
    <path
       fill="none"
       stroke="#000000"
       stroke-width="4"
       stroke-linecap="round"
       stroke-linejoin="round"
       d="m 134.276,518.646 -0.107,0.388 1.09,-0.402 3.636,0.101 1.47,-0.458 1.338,0.208 1.224,-0.394 3.297,0.412 1.755,-0.271 1.575,0.835 0.371,-0.325 8.782,-0.215 7.807,1.925 8.131,-0.846 1.072,0.467 4.937,0.663 1.843,0.527 12.454,-0.75 2.974,0.074 3.279,0.76 3.538,-0.586 2.812,0.145 2.552,-0.553 3.336,0.917 2.02,-0.46 1.104,0.363 4.099,-1.203 3.347,0.553 4.87,-0.412 3.886,0.598 3.126,0.259 0.767,-0.238 2.668,0.361 1.12,-0.089 2.051,-1.093 0.903,-0.155 0.938,0.357 4.556,0.077 1.142,0.71 0.47,-0.443 1.25,-0.268 2.462,0.472 6.954,-1.034 4.613,-0.056 5.167,0.899 11.939,0.223 2.827,-0.235 2.741,0.578 2.138,-0.298 2.176,0.496 2.028,-0.492 3.651,0.083 11.88,-1.235 3.893,0.045 4.683,0.315 3.001,0.907 2.337,-0.452 3.573,0.206 6.804,-0.577 8.683,-0.075 2.073,0.254 11.938,-1.21 3.364,0.261 2.626,-0.576 1.465,0.642 3.271,-0.127 5.015,0.558 1.743,-0.242 6.119,0.904 14.07,0.392 1.81,-0.366 1.686,0.462 5.915,-0.284 0.99,-0.436 1.046,0.723 1.309,-0.207 2.271,0.381 1.147,-0.358 11.522,-0.689 4.453,0.366 1.303,0.422 0.51,0.521 2.117,0.008 0.578,0.472 0.928,-0.468 0.858,0.176 0.708,-0.281 1.438,0.721 1.639,-0.357 8.799,-0.193 8.309,-0.594 2.169,0.425 1.578,-0.587 0.159,0.716 -0.439,0.023 0.963,-0.129 2.249,0.665 0.89,-0.521 7.232,-0.06 6.589,-0.967 2.585,0.281 0.535,-0.561 -0.284,0.614 -0.347,-0.151 0.496,0.519 1.092,-0.685 0.339,0.717 -0.065,-0.475 0.621,0.33 1.735,-0.154 0.608,0.245 0.176,-0.232 0.634,0.199 0.305,-0.31 0.1,0.3 1.582,-0.077 0.67,0.432 0.139,-0.438 0.631,-0.151 3.603,0.471 0.911,-0.067 -0.048,-0.205 -0.265,0.179 0.168,-0.29 0.341,-0.017 0.476,0.642 1.628,-0.231 0.689,0.321 0.632,-0.808 0.295,-0.045 0.089,0.332 -0.324,0.286 0.31,-0.478 0.346,0.136 1.462,-0.575 0.27,0.295 0.058,-0.786 -0.108,0.23 -0.191,-0.183 0.109,0.335 0.02,-0.37 0.698,0.202 1.128,-1.574"
       id="path97" />
  </g>
  <g
     id="g98">
    <path
       fill="none"
       stroke="#000000"
       stroke-width="4"
       stroke-linecap="round"
       stroke-linejoin="round"
       d="m 613.346,397.346 -2.702,0.195 0.907,0.254 -0.076,0.544 -0.104,-0.724 -0.123,1.073 -1.293,1.356 -2.439,5.261 -3.209,8.677 1.134,1.092 0.72,1.512 1.254,0.392 0.966,1.113 0.666,-0.453 2.101,0.031 1.583,-0.528 1.597,0.3 4.28,-1.12"
       id="path98" />
  </g>
  <g
     id="g99">
    <path
       fill="none"
       stroke="#000000"
       stroke-width="4"
       stroke-linecap="round"
       stroke-linejoin="round"
       d="m 613.584,403.702 -0.4,-0.079 -0.123,0.497 0.205,-0.488 0.23,0.163 1.476,-0.522 3.806,-0.162 0.225,-0.361 0.4,0.183"
       id="path99" />
  </g>
  <g
     id="g100">
    <path
       fill="none"
       stroke="#000000"
       stroke-width="4"
       stroke-linecap="round"
       stroke-linejoin="round"
       d="m 614.416,394.457 2.02,-0.378 -0.676,-0.557 -0.184,1.125 0.287,-0.167 1.141,0.553 6.706,-0.479 9.055,-3.015"
       id="path100" />
  </g>
  <g
     id="g101">
    <path
       fill="none"
       stroke="#000000"
       stroke-width="4"
       stroke-linecap="round"
       stroke-linejoin="round"
       d="m 644.683,397.544 -2.584,-1.286 1.342,-0.245 -0.318,1.06 0.823,4.177 0.316,5.263 -0.498,4.475 -1.066,3.076 0.267,-0.808 0.215,0.181 0.3,-1.385 2.582,-16.497 1.418,-3.144 1.443,-1.2 0.915,0.337 0.822,-0.902 0.442,-0.039 2.49,1.517 1.244,1.512 0.397,1.29 -0.074,2.91 -1.026,2.054 -1.787,1.414 -1.789,0.463 -1.554,-0.168 -0.421,-0.361 0.437,-0.317 0.113,0.268 0.004,-0.286 0.129,1.172 0.45,0.256 1.236,2.894 1.47,5.107 3.234,6.735 0.735,1.149 2.234,0.377"
       id="path101" />
  </g>
  <g
     id="g102">
    <path
       fill="none"
       stroke="#000000"
       stroke-width="4"
       stroke-linecap="round"
       stroke-linejoin="round"
       d="m 678.787,397.034 -0.119,-0.476 -0.381,-0.065 -0.725,0.494 -0.728,2.346 -0.599,10.185 -0.544,2.118 -0.547,0.688 0.135,-0.526 0.107,0.387 -0.318,-3.999 0.519,-6.457 1.236,-6.623 0.359,-0.776 1.954,-1.933 2.456,-0.994 1.195,0.023 2.231,1.358 1.122,2.829 0.252,2.314 -0.721,2.533 -1.602,2.1 -2.313,1.266 -0.474,0.034 -0.399,-0.553 -0.091,0.372 0.12,-0.694 0.287,-0.026 0.322,0.785 1.473,1.251 1.248,2.185 3.61,6.889 0.783,3.562 0.271,0.146 -0.013,-0.28 0.519,0.929 -0.248,0.287"
       id="path102" />
  </g>
  <g
     id="g103">
    <path
       fill="none"
       stroke="#000000"
       stroke-width="4"
       stroke-linecap="round"
       stroke-linejoin="round"
       d="m -783.636,421.58 1.024,0.899 -0.433,-0.364 -0.675,5.469 0.365,6.601 0.511,2.603 0.335,-0.646 -0.147,-2.492 -2.249,-9.012 -0.711,-4.777 -0.061,-1.926 0.499,-1.571 1.064,0.274 2.013,1.269 2.437,0.463 3.89,2.84 2.493,1.197 3.981,2.846 0.978,2.281 -1.137,3.943 -3.223,4.493 -1.153,0.939 -3.975,1.957 -2.209,-0.303 -0.093,-1.715"
       id="path103" />
  </g>
  <g
     id="g104">
    <path
       fill="none"
       stroke="#000000"
       stroke-width="4"
       stroke-linecap="round"
       stroke-linejoin="round"
       d="m -759.721,435.011 -1.027,1.486 0.422,-1.809 2.991,-7.38 2.051,-6.46 1.951,-4.374 0.225,0.036 0.094,0.722 0.512,0.337 1.881,2.784 1.523,4.331 1.537,9.863 -0.842,5.425"
       id="path104" />
  </g>
  <g
     id="g105">
    <path
       fill="none"
       stroke="#000000"
       stroke-width="4"
       stroke-linecap="round"
       stroke-linejoin="round"
       d="m -754.139,428.589 0.295,-0.032 -0.078,0.667 0.194,-0.506 0.419,0.013 2.197,0.772 5.108,-0.502"
       id="path105" />
  </g>
  <g
     id="g106">
    <path
       fill="none"
       stroke="#000000"
       stroke-width="4"
       stroke-linecap="round"
       stroke-linejoin="round"
       d="m -730.966,421.426 1.327,-0.351 -0.923,1.224 -0.491,3.659 1.368,6.172 0.279,2.952 0.443,0.53 -0.172,-0.702"
       id="path106" />
  </g>
  <g
     id="g107">
    <path
       fill="none"
       stroke="#000000"
       stroke-width="4"
       stroke-linecap="round"
       stroke-linejoin="round"
       d="m -738.337,419.5 0.109,0.537 0.248,-0.46 -0.012,0.316 0.302,-0.26 0.744,0.742 0.448,-0.396 1.495,-0.352 2.953,0.135 5.083,-0.528 1.127,-0.526 0.925,-1.615"
       id="path107" />
  </g>
  <g
     id="g108">
    <path
       fill="none"
       stroke="#000000"
       stroke-width="4"
       stroke-linecap="round"
       stroke-linejoin="round"
       d="m -718.224,436.622 0.715,-4.219 2.472,-8.012 0.769,-3.887 0.99,-2.677 0.293,-0.066 2.116,2.47 1.505,4.025 1.633,9.449 0.444,5.817"
       id="path108" />
  </g>
  <g
     id="g109">
    <path
       fill="none"
       stroke="#000000"
       stroke-width="4"
       stroke-linecap="round"
       stroke-linejoin="round"
       d="m -711.731,430.093 0.412,0.499 0.042,-0.42 0.412,0.771 2.309,0.167 2.946,-0.858 2.784,-1.406"
       id="path109" />
  </g>
  <g
     id="g110">
    <path
       fill="none"
       stroke="#000000"
       stroke-width="4"
       stroke-linecap="round"
       stroke-linejoin="round"
       d="m -768.423,459.798 -0.46,1.084 -0.214,5.73 0.636,7.911"
       id="path110" />
  </g>
  <g
     id="g111">
    <path
       fill="none"
       stroke="#000000"
       stroke-width="4"
       stroke-linecap="round"
       stroke-linejoin="round"
       d="m -755.71,478.044 0.433,-0.17 -0.09,0.231 2.212,-4.755 2.017,-6.785 0.353,-2.426 1.305,-3.556 0.908,-1.541 -0.409,0.823 1.651,4.749 1.413,6.861 1.625,2.304 1.469,0.978 0.447,-0.116 1.04,-1.268 1.097,-0.462 1.507,-1.638 2.74,-4.882 1.627,-5.243 1.518,-1.782 0.406,-2.077"
       id="path111" />
  </g>
  <g
     id="g112">
    <path
       fill="none"
       stroke="#000000"
       stroke-width="4"
       stroke-linecap="round"
       stroke-linejoin="round"
       d="m -782.708,717.338 0.13,0.558 -0.681,2.729 -3.751,7.533 0.03,1.367 0.986,2.52 2.183,2.042 4.465,1.826 2.549,0.464 0.781,-0.08 3.449,-2.001 0.608,-1.897"
       id="path112" />
  </g>
  <g
     id="g113">
    <path
       fill="none"
       stroke="#000000"
       stroke-width="4"
       stroke-linecap="round"
       stroke-linejoin="round"
       d="m -779.316,727.073 0.342,-1.082 0.33,0.727 0.736,-0.334 0.043,0.458 0.531,-0.32 0.28,0.483 0.443,0.079 1.063,-1.131"
       id="path113" />
  </g>
  <g
     id="g114">
    <path
       fill="none"
       stroke="#000000"
       stroke-width="4"
       stroke-linecap="round"
       stroke-linejoin="round"
       d="m -781.726,718.344 0.121,-0.506 1.115,0.471 3.395,-0.275 7.217,0.76"
       id="path114" />
  </g>
  <g
     id="g115">
    <path
       fill="none"
       stroke="#000000"
       stroke-width="4"
       stroke-linecap="round"
       stroke-linejoin="round"
       d="m -757.692,719.468 -0.49,-0.548 0.285,0.527 0.325,-0.185 4.233,3.152 5.909,7.269 1.301,0.736 -0.751,-0.3"
       id="path115" />
  </g>
  <g
     id="g116">
    <path
       fill="none"
       stroke="#000000"
       stroke-width="4"
       stroke-linecap="round"
       stroke-linejoin="round"
       d="m -744.765,717.771 -0.287,-0.679 -1.041,-0.013 -2.463,2.059 -0.756,1.205 -5.037,12.269 -1.74,2.434 -1.43,2.858 -1.112,-0.243"
       id="path116" />
  </g>
  <g
     id="g117">
    <path
       fill="none"
       stroke="#000000"
       stroke-width="4"
       stroke-linecap="round"
       stroke-linejoin="round"
       d="m -733.605,723.422 0.117,0.439 0.391,-0.176 0.847,0.719 2.122,0.159 0.836,-0.375 1.602,-0.909 1.492,-1.426 0.881,-1.644 -0.201,-0.586 -1.567,-0.912 -3.188,-0.609 -1.852,0.05 -0.903,-0.416 -0.355,0.207 -2.116,3.326 -0.7,7.462 0.609,1.111 2.231,2.11 3.132,1.33 2.1,0.111 5.999,-2.295"
       id="path117" />
  </g>
  <g
     id="g118">
    <path
       fill="none"
       stroke="#000000"
       stroke-width="4"
       stroke-linecap="round"
       stroke-linejoin="round"
       d="m -703.455,720.201 -2.851,-0.92 -0.455,0.33 -1.152,-0.125 -2.532,1.052 -1.795,1.482 -1.464,2.895 -0.577,2.108 -0.162,2.545 0.373,0.894 1.237,1.413 1.922,0.94 1.542,1.366 2.771,0.992 0.334,0.418 2.355,-0.452 3.779,-2.895"
       id="path118" />
  </g>
  <g
     id="g119">
    <path
       fill="none"
       stroke="#000000"
       stroke-width="4"
       stroke-linecap="round"
       stroke-linejoin="round"
       d="m -785.231,796.975 -3.094,1.132 -0.18,0.813 -1.429,1.842 -3.796,7.048 -0.773,1.933 -0.272,2.259 0.664,2.982 1.24,1.959 1.886,1.384 2.098,0.642 2.721,-0.084 0.591,-0.362 0.754,-1.158 -0.102,-3.716 -1.021,-3.719 -1.367,-1.219 -0.639,-0.015 0.355,0.529 0.236,-0.033 -0.125,-0.36 1.489,0.785 4.558,0.955 4.3,-0.717"
       id="path119" />
  </g>
  <g
     id="g120">
    <path
       fill="none"
       stroke="#000000"
       stroke-width="4"
       stroke-linecap="round"
       stroke-linejoin="round"
       d="m -767.087,802.084 -0.566,0.866 -0.778,0.315 -0.734,3.875 0.02,5.095 -0.665,3.575 0.12,3.166 -0.243,-13.07 1.451,-3.026 1.761,-1.911 1.311,-0.016 1.629,1.139 2.632,3.783 1.446,2.756 0.119,2.401 -0.652,0.426 -1.252,0.02 -0.341,0.517 0.492,1.471 1.473,2.485 1.55,1.067 2.119,0.202 0.759,-0.22"
       id="path120" />
  </g>
  <g
     id="g121">
    <path
       fill="none"
       stroke="#000000"
       stroke-width="4"
       stroke-linecap="round"
       stroke-linejoin="round"
       d="m -746.172,805.895 -1.986,1.098 -0.315,-0.088 -1.984,2.152 -1.272,5.528 0.592,2.481 0.919,2.024 1.523,0.693 3.359,0.396 1.401,-1.034 0.827,-0.189 0.34,-0.525 1.236,-5.581 -0.347,-2.986 -2.331,-2.817 -1.714,-0.831 -1.006,-0.241 -1.804,0.147 -3.072,1.276"
       id="path121" />
  </g>
  <g
     id="g122">
    <path
       fill="none"
       stroke="#000000"
       stroke-width="4"
       stroke-linecap="round"
       stroke-linejoin="round"
       d="m -732.474,805.468 -1.982,1.137 -1.445,2.565 -0.653,2.058 0.449,3.567 1.649,2.732 0.952,0.842 2.147,1.097 2.839,-0.111 1.281,-0.755 1.302,-1.858 1.327,-3.189 -0.461,-1.696 -0.471,-0.534 -1.229,-0.231 -1.281,-0.816 0.669,-0.233"
       id="path122" />
  </g>
  <g
     id="g123">
    <path
       fill="none"
       stroke="#000000"
       stroke-width="4"
       stroke-linecap="round"
       stroke-linejoin="round"
       d="m -714.759,809.276 -0.47,0.286 -0.58,1.92 -0.181,4.33 0.489,3.903 -0.922,-17.666 0.085,0.294 0.448,-1.038 1.244,-0.526 1.271,0.716 1.312,0.194 4.787,3.712 0.928,2.381 -0.076,0.554 -1.243,0.823 -4.057,1.778 -0.796,-0.222 -0.749,1.161 -1.222,-0.087"
       id="path123" />
  </g>
  <g
     id="g124">
    <path
       fill="none"
       stroke="#000000"
       stroke-width="4"
       stroke-linecap="round"
       stroke-linejoin="round"
       d="m -786.019,852.642 -0.596,-7.234 0.287,-2.109 0.885,-1.618 1.852,-0.978 4.525,0.408 3.196,-0.198 2.119,-0.715 1.729,-1.29 0.418,0.178 0.397,-0.223 0.157,0.399 -0.266,0.372 0.195,1.992 -1.224,4.722 -0.641,4.955 2.11,0.786 0.496,-0.524"
       id="path124" />
  </g>
  <g
     id="g125">
    <path
       fill="none"
       stroke="#000000"
       stroke-width="4"
       stroke-linecap="round"
       stroke-linejoin="round"
       d="m -759.942,845.81 -1.453,3.244 -0.278,2.694 0.279,0.694 1.182,0.585 2.2,0.382 3.706,-0.673 1.18,-0.707 2.407,-2.491 0.505,-1.325 0.075,-1.701 -3.341,-0.685 -4.308,0.571 -0.879,-1.289"
       id="path125" />
  </g>
  <g
     id="g126">
    <path
       fill="none"
       stroke="#000000"
       stroke-width="4"
       stroke-linecap="round"
       stroke-linejoin="round"
       d="m -735.907,846.599 -0.364,-0.194 0.1,0.719 -0.47,0.386 -1.192,3.562 -0.501,4.703 0.239,-1.09 -0.194,-5.165 -0.674,-3.036 -1.276,-3.665 0.191,0.774 4.318,2.619 1.777,0.657 2.702,1.937 1.237,1.348 0.93,2.097 -0.158,0.915 -0.793,1.075 -3.098,3.28 -1.984,1.326 -0.847,0.388 -1.092,-0.008 -0.124,0.354 0.469,-0.399"
       id="path126" />
  </g>
  <g
     id="g127">
    <path
       fill="none"
       stroke="#000000"
       stroke-width="4"
       stroke-linecap="round"
       stroke-linejoin="round"
       d="m -719.142,849.081 -0.56,0.549 -0.062,0.674 0.162,-0.178 3.119,1.036 2.439,-0.192 1.493,-0.79 0.577,-1.062 0.098,-1.821 -1.349,-1.732 -3.531,-1.482 -0.062,0.346 -1.061,-0.045 -0.227,0.468 -1.884,1.122 -1.625,2.235 -0.303,1.405 -0.483,0.403 -0.152,1.637 0.467,2.538 0.882,1.153 0.841,0.056 0.974,1.366 0.545,0.244 5.007,1.462 1.513,0.823 3.695,-0.238"
       id="path127" />
  </g>
  <g
     id="g128">
    <path
       fill="none"
       stroke="#000000"
       stroke-width="4"
       stroke-linecap="round"
       stroke-linejoin="round"
       d="m 223.554,252.18 0.149,-0.275 -0.673,-0.786 0.213,-1.621 -0.063,0.538 0.112,-0.179 0.224,0.64 1.649,1.552 3.994,5.739 2.51,4.792 1.963,2.305 0.532,0.165 0.573,1.181 1.412,1.584 -0.13,-0.601 0.134,0.178 0.363,-1.08 3.576,-5.759 4.002,-9.256 1.583,-4.346 0.112,-1.146 -0.194,0.753 -0.125,-0.602 -0.22,0.718 -3.197,0.24 -1.484,-0.462 -1.675,0.737 -2.009,0.054 -2.127,0.782 -3.913,0.45 -1.228,0.441 -1.009,-0.209 -0.525,0.564 -0.471,-0.208 -0.278,0.431 -0.193,-0.392 0.151,-0.185 0.342,0.684 -0.25,-0.05 -0.022,-0.662 0.108,0.271 0.173,-0.236 -0.036,0.306 0.043,-0.313 1.995,-0.149 3.14,-0.069 1.755,0.373 1.444,-0.799 0.973,-0.06 0.699,0.471 1.016,-0.262 0.355,0.522 0.103,-0.296 -0.336,0.471 -2.056,0.874 -2.6,1.775 -1.374,1.708 0.914,-0.13 0.928,0.53 2.171,0.31 2.458,-1.494 -1.087,1.475 -3.78,9.199 0.557,-0.223 0.314,-0.889 2.168,-2.136 1.128,-1.696 0.756,-3.135 -0.194,-0.211 -0.131,0.873 -2.16,4.843 -0.52,1.979 0.205,0.432 0.552,-0.898 1.738,-0.838 1.967,-1.72 1.399,-1.697 1.27,-3.098 -0.364,-1.257 -0.368,1.371 -1.652,0.997 -0.813,1.176 0.338,0.828 0.257,-0.86 2.446,-2.136 0.278,-1.497 -2.365,3.298 -1.06,2.291 -0.56,2.205 2.179,-5.592 0.236,-1.657 -0.495,0.344 0.007,0.478 -1.054,0.192 -1.473,1.205 0.204,0.292 -0.466,-0.112"
       id="path128" />
  </g>
  <g
     id="g129">
    <path
       fill="none"
       stroke="#000000"
       stroke-width="4"
       stroke-linecap="round"
       stroke-linejoin="round"
       d="m -73.8336,477.154 -0.1242,-0.475 -1.2287,1.915 0.5099,-0.667 2.4363,-1.047 1.8625,-1.228 3.9163,-3.753 2.9538,-3.669 1.2556,-0.854 0.5979,-1.29 0.2155,0.423 -0.2818,-0.742"
       id="path129" />
  </g>
</g>
<metadata
   id="metadata129">
  <rdf:RDF>
    <cc:Work
       rdf:about="">
      <dc:title>Regfile</dc:title>
    </cc:Work>
  </rdf:RDF>
</metadata>
</svg>
