<?xml version="1.0" encoding="UTF-8" standalone="no"?>
<svg
   width="1600"
   height="450"
   viewBox="-936 0 1600 450"
   version="1.2"
   id="svg293"
   sodipodi:docname="gen_fb_w.svg"
   inkscape:version="1.4 (e7c3feb100, 2024-10-09)"
   xmlns:inkscape="http://www.inkscape.org/namespaces/inkscape"
   xmlns:sodipodi="http://sodipodi.sourceforge.net/DTD/sodipodi-0.dtd"
   xmlns="http://www.w3.org/2000/svg"
   xmlns:svg="http://www.w3.org/2000/svg"
   xmlns:rdf="http://www.w3.org/1999/02/22-rdf-syntax-ns#"
   xmlns:cc="http://creativecommons.org/ns#"
   xmlns:dc="http://purl.org/dc/elements/1.1/"><defs
   id="defs293" />
<sodipodi:namedview
   id="namedview293"
   pagecolor="#ffffff"
   bordercolor="#000000"
   borderopacity="0.25"
   inkscape:showpageshadow="2"
   inkscape:pageopacity="0.0"
   inkscape:pagecheckerboard="0"
   inkscape:deskcolor="#d1d1d1"
   inkscape:zoom="0.50854097"
   inkscape:cx="923.22945"
   inkscape:cy="680.37783"
   inkscape:window-width="1918"
   inkscape:window-height="1178"
   inkscape:window-x="0"
   inkscape:window-y="20"
   inkscape:window-maximized="1"
   inkscape:current-layer="svg293" />
<title
   id="title1">Regfile</title>

\n<g
   id="g294"
   transform="translate(-378.0674,-473.775)">
  <g
     id="g220">
    <path
       fill="none"
       stroke="#000000"
       stroke-width="4"
       stroke-linecap="round"
       stroke-linejoin="round"
       d="m 232.305,524.884 -0.546,1.14 0.312,0.034 -0.575,1.839 0.012,4.341 -0.47,2.231 0.085,3.478 -0.315,1.194 0.549,9.346 -0.121,9.377 -0.756,3.826 0.376,5.607 -0.361,2.946 0.248,2.702 -0.254,3.808 0.377,0.168 -0.105,-0.744 -0.355,2.345 0.28,-1.358 -0.174,0.761 -0.485,-1.528"
       id="path220" />
  </g>
  <g
     id="g221">
    <path
       fill="none"
       stroke="#000000"
       stroke-width="4"
       stroke-linecap="round"
       stroke-linejoin="round"
       d="m 230.25,574.267 -0.225,0.207 0.155,3.027 0.578,3.189 -0.183,5.441 0.642,5.326 0.024,6.964 1.188,11.443 0.232,10.418 1.459,13.584 -0.586,8.002 -0.066,12.516 -0.937,8.912 0.135,4.557 -0.673,7.824 0.456,3.734 -0.51,8.492 0.094,10.483 0.643,4.252 0.369,11.302 -0.321,5.503 0.315,4.58 -0.1,1.151 -0.121,0.381 -0.086,-0.599 -0.064,0.389"
       id="path221" />
  </g>
  <g
     id="g222">
    <path
       fill="none"
       stroke="#000000"
       stroke-width="4"
       stroke-linecap="round"
       stroke-linejoin="round"
       d="m 237.133,724.79 -1.927,-0.008 0.504,0.303 3.315,-2.931 5.008,-2.728 3.921,-2.735 4.384,-3.752 2.091,-0.95 2.745,-2.04 4.584,-2.637 4.322,-1.897 1.454,-1.386 3.4,-2.108 3.176,-2.611 0.631,-1.075 0.699,0.026 0.364,-0.192 -0.198,-0.264 0.134,0.303 1.06,-0.835 1.109,-0.246 -0.283,-0.092 -0.175,0.534"
       id="path222" />
  </g>
  <g
     id="g223">
    <path
       fill="none"
       stroke="#000000"
       stroke-width="4"
       stroke-linecap="round"
       stroke-linejoin="round"
       d="m 238.191,526.966 -0.774,0.214 0.438,-0.488 0.077,0.433 1.313,-0.787 0.581,0.082 0.461,0.562 5.681,2.133 3.114,1.829 1.123,1.176 2.598,1.73 1.78,0.77 0.794,0.885 2.043,0.513 2.458,1.158 2.158,1.474 3.929,1.939 0.258,-0.167 1.47,1.673 1.375,0.209 0.994,0.61 0.298,-0.251 1.133,1.414 0.941,-0.191 1.041,1.185 2.844,1.055 0.594,0.599 1.973,0.111 0.916,0.627 0.541,-0.412 0.621,0.795 1.133,0.36 0.065,-0.205 -0.05,0.727 0.106,-0.216 0.306,0.425 0.253,-0.248"
       id="path223" />
  </g>
  <g
     id="g224">
    <path
       fill="none"
       stroke="#000000"
       stroke-width="4"
       stroke-linecap="round"
       stroke-linejoin="round"
       d="m 290.059,550.658 -3.022,-0.055 0.863,0.387 -1.095,5.51 -0.248,13.55 0.56,6.088 0.702,3.79 0.23,5.592 -0.415,5.751 -1.311,8.966 -0.014,5.6 0.695,8.68 -0.177,5.794 0.473,2.753 -0.101,5.867 -0.356,2.042 0.103,7.086 0.437,3.371 -0.404,7.809 0.158,8.812 -0.237,3.433 0.402,3.377 0.387,17.015 -0.215,6.514 -0.36,1.936 0.876,-0.442"
       id="path224" />
  </g>
  <g
     id="g225">
    <path
       fill="none"
       stroke="#000000"
       stroke-width="4"
       stroke-linecap="round"
       stroke-linejoin="round"
       d="m 274.339,697.175 -0.207,-0.054 0.208,-0.376 6.235,-2.774 0.48,-0.705"
       id="path225" />
  </g>
  <g
     id="g226">
    <path
       fill="none"
       stroke="#000000"
       stroke-width="4"
       stroke-linecap="round"
       stroke-linejoin="round"
       d="m 260.248,710.47 1.179,14.473 0.589,14.952 1.404,11.506 0.564,7.9 0.639,3.714 -0.21,2.896 0.228,3.724 -0.118,-0.344 -0.09,0.397"
       id="path226" />
  </g>
  <g
     id="g227">
    <path
       fill="none"
       stroke="#000000"
       stroke-width="4"
       stroke-linecap="round"
       stroke-linejoin="round"
       d="m 238.196,803.087 -0.534,0.996 -0.015,3.146 0.953,5.96 -0.143,0.819 -0.556,-6.249 -1.799,-7.336 0.268,-3.015 0.833,-1.092 1.355,-0.146 1.606,-0.652 3.679,-0.047 2.872,-1.677"
       id="path227" />
  </g>
  <g
     id="g228">
    <path
       fill="none"
       stroke="#000000"
       stroke-width="4"
       stroke-linecap="round"
       stroke-linejoin="round"
       d="m 239.892,803.528 0.463,-1.414 -0.018,0.764 2.115,0.532 1.334,-0.081 5.344,-2.164"
       id="path228" />
  </g>
  <g
     id="g229">
    <path
       fill="none"
       stroke="#000000"
       stroke-width="4"
       stroke-linecap="round"
       stroke-linejoin="round"
       d="m 257.419,798.573 0.451,-0.553 -0.132,2.087 0.961,5.002 0.031,3.844 -0.338,1.531 0.045,-0.408 0.361,0.577 0.116,-0.484"
       id="path229" />
  </g>
  <g
     id="g230">
    <path
       fill="none"
       stroke="#000000"
       stroke-width="4"
       stroke-linecap="round"
       stroke-linejoin="round"
       d="m 256.873,800.343 0.5,-1.73 -0.169,-0.535 1.756,-3.335 0.886,-0.358 0.541,-0.639 2.451,-0.738 1.479,0.589 0.727,0.94 0.395,2.253 -0.73,1.783 -1.576,1.574 -0.415,0.316 -1.049,-0.048 -0.59,0.431 -0.429,-0.142 0.3,-0.347 0.153,0.299 0.94,-0.079 4.157,-0.978 0.671,0.105 1.821,1.301 1.379,2.048 0.617,1.291 -0.037,1.302 -0.484,1.228 -1.688,1.832 -2.03,1.161 -1.46,-0.271 -2.706,0.141 -1.459,0.708 -0.27,-0.218 0.938,-0.863"
       id="path230" />
  </g>
  <g
     id="g231">
    <path
       fill="none"
       stroke="#000000"
       stroke-width="4"
       stroke-linecap="round"
       stroke-linejoin="round"
       d="m 233.586,824.298 1.003,-1.357 -0.558,0.258 -0.318,0.687 -1.939,1.437 -2.04,2.855 -0.052,1.143 0.489,0.021 0.291,0.585 1.404,0.72 5.811,1.632 1.942,1.582 -0.505,1.003 -1.357,1.234 -5.547,3.101 -0.711,0.263 -0.788,-0.367 0.976,-1.272"
       id="path231" />
  </g>
  <g
     id="g232">
    <path
       fill="none"
       stroke="#000000"
       stroke-width="4"
       stroke-linecap="round"
       stroke-linejoin="round"
       d="m 252.111,826.104 -0.319,0.051 -0.25,1.557 -1.589,3.252 -1.269,4.827 -0.213,2.888 0.524,0.539 0.976,0.025 3.544,-0.55 1.641,-0.407 2.411,-1.684"
       id="path232" />
  </g>
  <g
     id="g233">
    <path
       fill="none"
       stroke="#000000"
       stroke-width="4"
       stroke-linecap="round"
       stroke-linejoin="round"
       d="m 252.13,828.985 0.507,0.864 0.743,-0.386 1.772,0.243 1.29,-0.596 3.443,-0.498"
       id="path233" />
  </g>
  <g
     id="g234">
    <path
       fill="none"
       stroke="#000000"
       stroke-width="4"
       stroke-linecap="round"
       stroke-linejoin="round"
       d="m 252.213,824.465 0.131,-0.319 1.11,-0.157 1.089,-0.656 2.362,-0.45 2.739,0.521 2.327,-0.3"
       id="path234" />
  </g>
  <g
     id="g235">
    <path
       fill="none"
       stroke="#000000"
       stroke-width="4"
       stroke-linecap="round"
       stroke-linejoin="round"
       d="m 270.247,822.227 -0.883,7.862 -1.192,3.272 0.361,1.357 2.193,1.096 2.989,-0.186 3.293,-0.712 5.823,-1.961"
       id="path235" />
  </g>
  <g
     id="g236">
    <path
       fill="none"
       stroke="#000000"
       stroke-width="4"
       stroke-linecap="round"
       stroke-linejoin="round"
       d="m 231.247,853.109 -0.783,-0.366 0.025,-0.288 1.879,0.526 1.569,-0.356 3.931,-1.415 2.297,-1.176 3.426,-3.407"
       id="path236" />
  </g>
  <g
     id="g237">
    <path
       fill="none"
       stroke="#000000"
       stroke-width="4"
       stroke-linecap="round"
       stroke-linejoin="round"
       d="m 230.007,855.235 0.554,-0.946 -0.048,0.854 -1.167,4.012 -1.602,8.33 0.222,1.427 1.256,3.428 3.7,0.326 1.903,-0.763 1.806,0.073 1.35,-0.786 1.38,0.717 1.943,-0.807"
       id="path237" />
  </g>
  <g
     id="g238">
    <path
       fill="none"
       stroke="#000000"
       stroke-width="4"
       stroke-linecap="round"
       stroke-linejoin="round"
       d="m 246.41,864.274 2.811,-3.12 4.283,-5.634 1.731,-1.042 -0.269,0.082 0.463,1.315 0.022,5.501 -0.5,3.212 0.031,2.555 0.032,0.25 1.337,-0.343"
       id="path238" />
  </g>
  <g
     id="g239">
    <path
       fill="none"
       stroke="#000000"
       stroke-width="4"
       stroke-linecap="round"
       stroke-linejoin="round"
       d="m 266.309,858.058 -0.299,0.083 0.915,0.561"
       id="path239" />
  </g>
  <g
     id="g240">
    <path
       fill="none"
       stroke="#000000"
       stroke-width="4"
       stroke-linecap="round"
       stroke-linejoin="round"
       d="m 267.239,867.079 -0.519,-0.828 0.035,0.444 0.573,1.153"
       id="path240" />
  </g>
  <g
     id="g241">
    <path
       fill="none"
       stroke="#000000"
       stroke-width="4"
       stroke-linecap="round"
       stroke-linejoin="round"
       d="m 279.905,857.933 -1.961,3.512 -0.855,3.218 0.074,0.497 1.523,1.693 1.874,0.618 1.779,-0.164 1.684,-0.827 4.126,-6.273 0.547,-2.252 -0.628,0.264 -1.118,-0.757 -3.053,-0.995 -4.386,0.136 -0.111,0.253"
       id="path241" />
  </g>
  <g
     id="g242">
    <path
       fill="none"
       stroke="#000000"
       stroke-width="4"
       stroke-linecap="round"
       stroke-linejoin="round"
       d="m 290.377,849.467 -0.052,-0.31 0.263,0.369 2.077,-0.805 3.448,-0.439 0.989,0.024 1.587,0.582 0.253,-0.164 -0.242,0.427 1.482,4.352 0.635,4.56 -0.921,8.069 0.631,3.381 0.094,-0.316 0.686,0.004 0.287,0.375 -0.115,-0.284 -0.099,0.306 -2.971,0.217 -4.76,1.634 -0.768,0.549 -0.396,-0.852 -0.317,0.792 -0.841,-0.584"
       id="path242" />
  </g>
  <g
     id="g243">
    <path
       fill="none"
       stroke="#000000"
       stroke-width="4"
       stroke-linecap="round"
       stroke-linejoin="round"
       d="m 294.085,612.038 -0.229,0.091 0.173,0.323 10e-4,-0.456 0.392,0.314 0.054,-0.291 0.9,0.051 1.895,-0.832 0.681,0.59 0.266,-0.69 0.372,-0.033 0.54,0.398 1.35,-0.347 1.216,0.484 1.752,-0.692 4.559,0.447 0.795,-0.464 1.323,0.316 1.116,-0.585 1.658,0.183 0.705,-0.316 0.194,0.318 0.315,-0.268 0.614,0.206 3.43,-0.209 1.132,-0.326 0.97,0.516 1.276,0.085 3.173,-0.301 0.465,-0.34 2.537,0.423 0.642,-0.343 2.529,-0.062 0.149,0.337 0.42,-0.627 0.512,0.51 0.22,-0.398 1.563,-0.217 1.099,0.25 0.314,-0.374 0.154,0.312 1.614,0.049 0.764,-0.4 0.398,0.415 0.179,-0.484 0.191,0.505 0.249,-0.35 1.489,0.113 0.189,-0.346 0.772,-0.044 0.713,0.395"
       id="path243" />
  </g>
  <g
     id="g244">
    <path
       fill="none"
       stroke="#000000"
       stroke-width="4"
       stroke-linecap="round"
       stroke-linejoin="round"
       d="m 344.976,601.06 -0.343,0.053 0.178,0.266 0.242,-0.227 8.012,0.054 2.16,0.445 4.234,2.169 0.881,1.645 0.157,-0.155 -0.31,1.539 -4.411,3.945 -2.276,1.054 -5.71,3.763 -3.904,0.974 -2.706,-0.06 -0.665,-0.904 -0.759,-0.116 -1.189,0.28 1.317,-2.28 1.759,-6.11 1.127,-2.833 0.139,-1.937 -0.298,-0.185 -0.19,0.359 -0.414,-0.921 0.038,0.482 -0.019,-0.429 0.003,0.356 -0.077,-0.26 3.884,-0.031 2.818,-0.429 1.82,-0.864 0.741,0.019 -0.341,0.463 0.34,0.93 -0.96,1.572 -5.106,5.094 -0.969,1.899 1.097,-1.14 1.075,-0.076 6.482,-4.333 0.915,-0.829 0.361,-0.844 -0.493,0.679 -0.654,0.116 -1.775,1.168 -4.893,3.742 -0.881,1.991 0.026,0.407 1.038,0.765 3.486,-2.445 2.056,-2.599 -0.056,-0.664 -0.62,-0.478 -3.212,1.366 -2.443,2.441 2.721,-5.289 -0.468,-2.685 -1.168,0.162 -1.606,1.311 0.544,-0.714 -0.19,0.125 -0.142,-0.361 v 0.401 l -0.093,-0.484 -0.325,0.744 -1.03,0.23 -0.818,0.629 -0.784,-0.067 0.27,-0.616 -0.363,-0.014 -0.825,-1.293 -0.742,-0.368 -0.271,2.937 1.346,8.529 -0.853,4.243 0.596,1.829 0.816,0.379 3.529,-1.778 4.771,-4.64 1.662,-2.27 1.05,-2.124 0.812,-2.891 -0.086,-0.988 -5.098,3.113 -1.706,1.616 1.348,-0.449 0.983,-0.738 3.493,-2.784 1.024,-1.324 -0.166,-0.123 -3.032,3.361 -1.156,1.786"
       id="path244" />
  </g>
  <g
     id="g245">
    <path
       fill="none"
       stroke="#000000"
       stroke-width="4"
       stroke-linecap="round"
       stroke-linejoin="round"
       d="m 386.752,585.877 -0.902,-1.708 -0.223,-0.205 -0.038,0.268 0.369,0.816 -0.446,6.691 0.057,4.2 0.735,2.142 0.207,-0.82 -0.287,-0.152 0.482,-0.592 0.099,-2.846 -0.604,-2.155 -0.963,-6.951 -0.404,-0.608 0.152,-0.269 0.036,0.432 0.73,-1.45 0.445,-0.538 2.031,-0.762 4.387,-0.973 2.673,-0.023 4.417,1.02"
       id="path245" />
  </g>
  <g
     id="g246">
    <path
       fill="none"
       stroke="#000000"
       stroke-width="4"
       stroke-linecap="round"
       stroke-linejoin="round"
       d="m 388.363,589.749 0.004,0.726 1.335,0.947 4.799,-1.538 1.91,-1.251"
       id="path246" />
  </g>
  <g
     id="g247">
    <path
       fill="none"
       stroke="#000000"
       stroke-width="4"
       stroke-linecap="round"
       stroke-linejoin="round"
       d="m 412.015,581.406 -2.375,0.46 0.215,0.372 0.402,-0.209 0.546,0.534 0.181,2.007 -0.174,8.296 -0.172,2.973 -0.14,-0.636"
       id="path247" />
  </g>
  <g
     id="g248">
    <path
       fill="none"
       stroke="#000000"
       stroke-width="4"
       stroke-linecap="round"
       stroke-linejoin="round"
       d="m 415.018,581.002 -3.268,-0.21 0.993,-0.018 3.99,-2.21 2.394,-0.907 1.435,0.145 2.531,1.189 1.008,1.894 -2.889,3.439 -1.763,1.279 -0.74,0.933 -0.784,0.235 -1.043,-0.922 -0.927,-0.296 0.477,-0.454 2.439,-0.297 2.428,1.012 1.972,0.107 1.324,1.707 0.595,1.943 -0.294,1.174 -1.475,1.322 -3.603,1.323 -1.918,0.119 -1.732,0.661 -1.533,0.019 -1.636,-0.168 0.084,-0.712"
       id="path248" />
  </g>
  <g
     id="g249">
    <path
       fill="none"
       stroke="#000000"
       stroke-width="4"
       stroke-linecap="round"
       stroke-linejoin="round"
       d="m 383.914,618.757 -0.542,-0.32 -2.599,2.592 -1.951,2.428 -1.158,2.365 -0.081,1.659 0.583,3.113 1.147,2.507 1.325,0.798 0.825,0.091 1.753,-0.103 2.257,-0.812 3.304,-1.972 2.526,-2.885 1.073,-2.492 -0.156,-1.935 -1.733,-2.546 -2.783,-2.079 -0.841,-0.275 -3.402,0.091 -1.921,1.851 0.149,0.787"
       id="path249" />
  </g>
  <g
     id="g250">
    <path
       fill="none"
       stroke="#000000"
       stroke-width="4"
       stroke-linecap="round"
       stroke-linejoin="round"
       d="m 406.149,619.824 -0.973,-0.574 -2.024,2.942 -0.831,2 -0.054,2.672 0.48,1.51 1.67,2.207 1.173,0.292 2.336,-0.249 1.723,-1.145 4.124,-3.816 1.541,-2.263 0.023,-1.703 -0.803,-1.717 -2.194,-1.535 -0.848,0.317"
       id="path250" />
  </g>
  <g
     id="g251">
    <path
       fill="none"
       stroke="#000000"
       stroke-width="4"
       stroke-linecap="round"
       stroke-linejoin="round"
       d="m 426.399,620.174 -1.225,10.98 -0.482,2.075 0.499,-0.289 -0.111,-0.798"
       id="path251" />
  </g>
  <g
     id="g252">
    <path
       fill="none"
       stroke="#000000"
       stroke-width="4"
       stroke-linecap="round"
       stroke-linejoin="round"
       d="m 423.896,616.819 2.698,-0.222 -0.332,-0.449 -0.569,1.184 4.095,1.042 6.731,-0.02 3.387,-0.819"
       id="path252" />
  </g>
  <g
     id="g253">
    <path
       fill="none"
       stroke="#000000"
       stroke-width="4"
       stroke-linecap="round"
       stroke-linejoin="round"
       d="m 183.915,548.297 1.228,0.075 4.87,-1.147 6.535,-0.145 4.906,-0.811 1.492,-0.604 0.591,-0.003 0.426,0.377 0.433,-0.223 0.304,0.531 3.864,-0.278 2.493,0.156 2.41,-0.341 0.921,0.642 0.994,-0.522 2.045,-0.004 1.877,-0.403 0.769,-0.653 0.408,0.604 3.761,-0.568 1,0.292 0.312,-0.492 0.079,0.638 0.295,-0.501 0.555,0.333 1.131,-0.678 0.404,0.105 -0.137,0.297 0.374,0.227 1.426,-0.431"
       id="path253" />
  </g>
  <g
     id="g254">
    <path
       fill="none"
       stroke="#000000"
       stroke-width="4"
       stroke-linecap="round"
       stroke-linejoin="round"
       d="m 184.361,596.722 2.988,0.68 2.398,-0.253 0.849,0.302 1.309,-0.297 1.584,0.346 5.355,0.077 9.261,-1.308 1.207,0.096 0.08,0.386 0.297,-0.137 0.521,0.414 1.676,-0.432 1.235,0.214 4.014,-0.953 0.733,0.694 3.669,-0.009 0.77,0.368 0.789,-0.647 0.213,0.394 1.802,-0.404 0.238,-0.421 0.278,0.424 2.919,-0.558 2.329,0.069 1.96,-0.56 1.193,-1.043"
       id="path254" />
  </g>
  <g
     id="g255">
    <path
       fill="none"
       stroke="#000000"
       stroke-width="4"
       stroke-linecap="round"
       stroke-linejoin="round"
       d="m 185.254,645.156 6.634,-0.222 1.141,0.317 2.509,-0.239 2.241,0.247 1.262,-0.371 2.133,0.626 2.683,-0.421 4.895,0.362 4.797,-0.379 2.038,-0.756 1.814,0.286 1.132,-0.399 1.151,-0.949 1.695,0.543 0.298,-0.33 0.591,0.163 4.369,-0.497 0.807,-0.363 0.002,-0.349 -0.13,0.626 -0.03,-0.337 0.606,-0.255 1.944,-0.135 -0.866,-1.203"
       id="path255" />
  </g>
  <g
     id="g256">
    <path
       fill="none"
       stroke="#000000"
       stroke-width="4"
       stroke-linecap="round"
       stroke-linejoin="round"
       d="m 183.468,694.159 1.097,0.254 3.597,-0.211 2.287,0.698 0.341,-0.34 6.293,-1.082 1.591,0.058 2.68,-0.854 8.001,-0.889 0.631,-0.557 0.598,0.361 0.501,-0.567 0.491,0.195 1.467,-0.567 1.253,0.175 0.636,-0.437 2.234,-0.121 1.384,-0.416 3.001,-0.085 0.746,-0.421 2.459,-0.265 0.499,-0.309 1.713,0.315 1.078,-0.24 0.992,0.648 1.607,-0.429 1.771,0.08 1.186,-0.625 0.049,0.23 -0.241,0.051 -0.32,-1.271"
       id="path256" />
  </g>
  <g
     id="g257">
    <path
       fill="none"
       stroke="#000000"
       stroke-width="4"
       stroke-linecap="round"
       stroke-linejoin="round"
       d="m 69.6375,538.639 -1.3171,0.685 -4.5015,0.244 -1.6661,0.866 -2.3594,2.536 -2.0122,4.592 -0.4782,2.171 0.206,1.643 0.6454,0.755 0.7082,0.111 1.5987,1.36 5.6576,-1.342 0.9332,-0.555 0.6378,-1.067"
       id="path257" />
  </g>
  <g
     id="g258">
    <path
       fill="none"
       stroke="#000000"
       stroke-width="4"
       stroke-linecap="round"
       stroke-linejoin="round"
       d="m 79.1012,536.022 -0.1182,1.844 -1.5957,3.873 -1.5639,9.649 0.5506,0.879 4.1622,-0.288 2.2668,-0.623 0.683,0.261"
       id="path258" />
  </g>
  <g
     id="g259">
    <path
       fill="none"
       stroke="#000000"
       stroke-width="4"
       stroke-linecap="round"
       stroke-linejoin="round"
       d="m 92.6716,535.392 -1.2041,4.052 -0.9966,5.633 0.1417,4.934"
       id="path259" />
  </g>
  <g
     id="g260">
    <path
       fill="none"
       stroke="#000000"
       stroke-width="4"
       stroke-linecap="round"
       stroke-linejoin="round"
       d="m 93.0968,543.805 0.133,-0.572 3.1018,-2.335 0.8969,-0.085 0.6487,-0.53 0.8998,0.164 0.6023,-0.523"
       id="path260" />
  </g>
  <g
     id="g261">
    <path
       fill="none"
       stroke="#000000"
       stroke-width="4"
       stroke-linecap="round"
       stroke-linejoin="round"
       d="m 94.5463,544.151 -1.6498,0.319 0.4407,-0.071 2.6866,3 0.5124,1.539 1.6227,2.489 0.5791,0.341 -0.2416,-0.275"
       id="path261" />
  </g>
  <g
     id="g262">
    <path
       fill="none"
       stroke="#000000"
       stroke-width="4"
       stroke-linecap="round"
       stroke-linejoin="round"
       d="m 120.457,535.549 -2.822,2.822 -3.527,4.422 -1.672,4.232 0.215,2.831 1.725,1.734 1.244,0.741 2.04,-0.19 1.266,-1.324 1.289,-2.64 0.632,-2.218 -0.035,-1.126 -0.647,-1.696 -0.26,-0.329 -0.716,0.573 -0.415,-0.054 -0.152,1.038 0.022,-0.612 0.251,0.315 1.043,-0.488 0.565,0.405 2.787,0.688 1.035,-0.297"
       id="path262" />
  </g>
  <g
     id="g263">
    <path
       fill="none"
       stroke="#000000"
       stroke-width="4"
       stroke-linecap="round"
       stroke-linejoin="round"
       d="m 133.762,540.546 -0.508,0.853 0.118,0.566 0.213,-0.991 0.85,0.35 1.169,-0.244 1.477,-1.018 1.544,-2.419 0.12,-0.848 -1.309,-0.649 -2.903,0.994 -1.327,0.888 -1.385,2.249 -0.966,4.135 -0.154,2.578 0.441,1.301 0.382,0.429 3.751,0.25 3.137,-0.769"
       id="path263" />
  </g>
  <g
     id="g264">
    <path
       fill="none"
       stroke="#000000"
       stroke-width="4"
       stroke-linecap="round"
       stroke-linejoin="round"
       d="m 146.864,548.594 1.414,-5.483 1.369,-3.004 1.494,-2.135 1.738,3.194 0.772,4.966 0.735,2.455 1.334,1.474 1.212,-2.522 4.878,-7.634 0.443,-1.147 -0.201,-0.19 -0.142,0.678 -0.11,-0.65"
       id="path264" />
  </g>
  <g
     id="g265">
    <path
       fill="none"
       stroke="#000000"
       stroke-width="4"
       stroke-linecap="round"
       stroke-linejoin="round"
       d="m 66.252,579.479 -2.0026,1.741 0.166,-0.513 0.6013,-0.132 -0.1416,-0.221 -0.9181,-0.224 -1.0783,0.333 -0.9628,-0.578 -2.2239,1.086 -2.384,2.026 -2.2882,3.998 2.1621,2.315 2.0378,1.634 3.3835,1.958 0.2317,-0.741"
       id="path265" />
  </g>
  <g
     id="g266">
    <path
       fill="none"
       stroke="#000000"
       stroke-width="4"
       stroke-linecap="round"
       stroke-linejoin="round"
       d="m 80.4962,577.024 -1.4823,0.793 0.2786,-0.02 -0.03,0.299 -2.0737,3.83 -1.3087,4.26 -1.3133,6.813 1.716,0.414 0.9211,0.695 2.5088,-0.154 4.1907,-2.576 0.0594,-1.531"
       id="path266" />
  </g>
  <g
     id="g267">
    <path
       fill="none"
       stroke="#000000"
       stroke-width="4"
       stroke-linecap="round"
       stroke-linejoin="round"
       d="m 95.8855,577.583 -1.0667,1.054 -0.0827,-0.364 -0.4199,1.308 -1.2358,7.959 -0.0828,4.592"
       id="path267" />
  </g>
  <g
     id="g268">
    <path
       fill="none"
       stroke="#000000"
       stroke-width="4"
       stroke-linecap="round"
       stroke-linejoin="round"
       d="m 97.314,586.588 -0.1236,-0.763 0.0251,0.877 0.2333,0.021 -0.1291,-0.573 0.3792,0.029 2.6331,-2.597 4.3,-3.402 1.636,-0.581 0.75,-0.423 0.025,-0.323"
       id="path268" />
  </g>
  <g
     id="g269">
    <path
       fill="none"
       stroke="#000000"
       stroke-width="4"
       stroke-linecap="round"
       stroke-linejoin="round"
       d="m 100.501,586.113 -0.306,0.248 0.129,0.867 -0.6544,2.094 0.5104,1.232 1.677,0.955 3.895,1.321 0.747,0.027 1.477,-1.267"
       id="path269" />
  </g>
  <g
     id="g270">
    <path
       fill="none"
       stroke="#000000"
       stroke-width="4"
       stroke-linecap="round"
       stroke-linejoin="round"
       d="m 128.115,585.313 -1.289,0.568 0.443,0.11 0.336,1.071 0.096,2.224 -0.135,3.907 -0.561,1.966 0.389,-1.286 -0.82,-6.111 -0.13,-7.891 0.353,-1.613 0.801,-1.432 1.779,0.497 1.699,0.934 0.305,0.343 0.414,2.377 -1.442,2.93 -1.876,0.783 0.336,-0.243 0.42,0.774 2.166,1.929 2.615,3.896 1.426,1.311 2.026,0.83"
       id="path270" />
  </g>
  <g
     id="g271">
    <path
       fill="none"
       stroke="#000000"
       stroke-width="4"
       stroke-linecap="round"
       stroke-linejoin="round"
       d="m 146.967,579.664 -1.725,1.253 0.391,0.145 -0.178,4.061 -0.914,6.281 -0.71,2.247 0.436,-1.369 0.316,-6.072 -0.992,-6.421 0.31,0.518 0.099,-0.767 0.957,0.05 1.44,-0.482 0.972,0.122 5.109,-1.803"
       id="path271" />
  </g>
  <g
     id="g272">
    <path
       fill="none"
       stroke="#000000"
       stroke-width="4"
       stroke-linecap="round"
       stroke-linejoin="round"
       d="m 149.357,586.234 -0.436,-0.465 -0.692,-0.084 -0.278,0.21 0.222,0.25 0.013,-0.318 0.234,0.176 1.613,-0.389 1.838,-0.988 5.441,-2.016"
       id="path272" />
  </g>
  <g
     id="g273">
    <path
       fill="none"
       stroke="#000000"
       stroke-width="4"
       stroke-linecap="round"
       stroke-linejoin="round"
       d="m 67.3897,637.043 -1.483,0.815 0.1538,0.162 0.0906,-0.298 -0.8486,-0.053 -2.571,0.244 -1.0764,0.582 -1.95,1.957 -1.5236,0.713 -1.0869,2.852 -1.0223,5.708 0.8075,1.155 0.986,0.629 5.8019,1.278 6.1377,-3.193"
       id="path273" />
  </g>
  <g
     id="g274">
    <path
       fill="none"
       stroke="#000000"
       stroke-width="4"
       stroke-linecap="round"
       stroke-linejoin="round"
       d="m 82.0499,635.544 -1.0273,0.954 0.0473,0.894 -0.7915,1.353 -2.0664,9.529 0.0779,1.534 1.572,-0.032 0.7187,0.504 0.6693,-0.405 4.8573,-0.017 1.2131,-0.481 0.2692,-0.963"
       id="path274" />
  </g>
  <g
     id="g275">
    <path
       fill="none"
       stroke="#000000"
       stroke-width="4"
       stroke-linecap="round"
       stroke-linejoin="round"
       d="m 98.6533,635.997 -0.2364,6.34 -1.3581,9.728 0.3039,0.691 0.3787,-0.692"
       id="path275" />
  </g>
  <g
     id="g276">
    <path
       fill="none"
       stroke="#000000"
       stroke-width="4"
       stroke-linecap="round"
       stroke-linejoin="round"
       d="m 102.271,643.999 1.19,-0.5 -0.146,0.359 -0.283,-0.449 2.232,-2.953 3.681,-2.908 1.192,-0.406 -0.163,0.736"
       id="path276" />
  </g>
  <g
     id="g277">
    <path
       fill="none"
       stroke="#000000"
       stroke-width="4"
       stroke-linecap="round"
       stroke-linejoin="round"
       d="m 103.744,643.743 0.596,1.841 1.617,2.28 2.1,0.782 0.675,0.548 2.504,-0.675"
       id="path277" />
  </g>
  <g
     id="g278">
    <path
       fill="none"
       stroke="#000000"
       stroke-width="4"
       stroke-linecap="round"
       stroke-linejoin="round"
       d="m 136.472,639.035 -2.045,0.78 -1.23,0.121 -3.607,2.399 -1.707,2.154 -1.018,3.339 0.273,2.314 2.444,0.796 4.835,-0.105 0.959,-1.362"
       id="path278" />
  </g>
  <g
     id="g279">
    <path
       fill="none"
       stroke="#000000"
       stroke-width="4"
       stroke-linecap="round"
       stroke-linejoin="round"
       d="m 142.311,649.946 0.216,-3.101 2.062,-4.953 5.528,-6.675 0.331,4.911 -1.312,8.107"
       id="path279" />
  </g>
  <g
     id="g280">
    <path
       fill="none"
       stroke="#000000"
       stroke-width="4"
       stroke-linecap="round"
       stroke-linejoin="round"
       d="m 148.224,644.57 -1.457,0.65 0.105,0.197 0.787,-0.752 1.257,1.331 0.747,0.022 0.805,-0.884"
       id="path280" />
  </g>
  <g
     id="g281">
    <path
       fill="none"
       stroke="#000000"
       stroke-width="4"
       stroke-linecap="round"
       stroke-linejoin="round"
       d="m 162.282,638.833 -1.38,0.99 -0.286,-0.081 0.263,0.226 -1.122,5.144 -0.722,5.608 -0.222,-0.456"
       id="path281" />
  </g>
  <g
     id="g282">
    <path
       fill="none"
       stroke="#000000"
       stroke-width="4"
       stroke-linecap="round"
       stroke-linejoin="round"
       d="m 161.327,637.56 2.931,-3.039 3.676,-1.429 2.981,-0.178 1.231,1.906 0.131,2.411 -0.566,2.155 -0.767,1.194 -2.325,0.834 -3.861,0.36 -1.407,0.75 0.199,0.466 -0.269,-0.998"
       id="path282" />
  </g>
  <g
     id="g283">
    <path
       fill="none"
       stroke="#000000"
       stroke-width="4"
       stroke-linecap="round"
       stroke-linejoin="round"
       d="m 54.9882,688.344 -0.4936,-0.408 -0.8794,-0.079 -1.7378,0.273 -2.0744,1.415 -1.6949,2.113 -2.4551,4.435 -1.2507,3.477 -0.1735,3.153 0.9091,2.027 1.0755,1.437 1.3065,0.916 4.5531,0.779 2.1583,-1.34 0.7151,-1.708 0.0671,-1.733 -0.3952,-1.611 -0.4138,-1.082 -1.2846,-1.623 0.1984,0.304 0.9203,-0.376 2.8942,0.649 3.9496,-1.408"
       id="path283" />
  </g>
  <g
     id="g284">
    <path
       fill="none"
       stroke="#000000"
       stroke-width="4"
       stroke-linecap="round"
       stroke-linejoin="round"
       d="m 71.4575,687.875 -1.452,0.835 0.4307,-0.253 -0.0053,0.871 -0.5461,0.446 -1.2798,2.563 -2.1756,7.871 -0.1627,2.986 0.5133,1.095 1.3758,0.808 1.037,0.066 0.9159,0.466 0.9162,-0.578 2.6611,-0.497 0.0929,-1"
       id="path284" />
  </g>
  <g
     id="g285">
    <path
       fill="none"
       stroke="#000000"
       stroke-width="4"
       stroke-linecap="round"
       stroke-linejoin="round"
       d="m 87.5826,689.69 -1.1086,1.462 -0.2106,-0.122 0.4409,-0.244 0.0718,0.711 -1.4225,7.593 -0.3245,3.337 0.5119,3.186 0.2216,-0.29"
       id="path285" />
  </g>
  <g
     id="g286">
    <path
       fill="none"
       stroke="#000000"
       stroke-width="4"
       stroke-linecap="round"
       stroke-linejoin="round"
       d="m 86.9692,690.172 0.1158,-0.981 0.0676,0.558 1.2163,-0.268 0.8329,-0.853 0.9724,-0.411 2.1612,0.422 1.6901,1.228 0.9788,1.52 -0.68,1.836 -2.6112,2.545 -2.2749,1.139 0.5103,-1.026 1.1798,-0.723 0.9666,0.684 0.3774,-0.285 1.6896,-0.083 1.4565,1.147 0.8883,1.389 0.2153,0.917 -0.6423,1.726 -1.5553,0.732 -1.0595,1.83 -0.7502,0.588 -1.3895,0.151 -2.8027,1.054 -2.0333,-0.177"
       id="path286" />
  </g>
  <g
     id="g287">
    <path
       fill="none"
       stroke="#000000"
       stroke-width="4"
       stroke-linecap="round"
       stroke-linejoin="round"
       d="m 120.734,686.431 -2.025,2.32 -0.309,1.449 -2.189,4.557 -0.915,3.025 -0.936,5.235 0.157,2.204 0.66,0.715 1.19,0.056 1.803,0.715 4.233,-1.448 2.131,-1.303 0.578,-0.71 0.442,-0.914 -0.279,-2.099"
       id="path287" />
  </g>
  <g
     id="g288">
    <path
       fill="none"
       stroke="#000000"
       stroke-width="4"
       stroke-linecap="round"
       stroke-linejoin="round"
       d="m 119.922,695.848 -1.07,1.036 0.099,-0.345 2.513,-1.158 1.802,0.196"
       id="path288" />
  </g>
  <g
     id="g289">
    <path
       fill="none"
       stroke="#000000"
       stroke-width="4"
       stroke-linecap="round"
       stroke-linejoin="round"
       d="m 119.209,690.096 -0.149,-0.436 3.007,-0.353 3.727,-1.332 0.914,-1.034"
       id="path289" />
  </g>
  <g
     id="g290">
    <path
       fill="none"
       stroke="#000000"
       stroke-width="4"
       stroke-linecap="round"
       stroke-linejoin="round"
       d="m 130.169,706.965 1.63,-1.059 -0.399,-0.557 0.48,-1.96 5.067,-13.011 0.437,-0.174 -0.072,0.804 1.193,1.697 1.125,5.315 0.671,2.113 0.44,0.264 0.621,-0.777 0.601,-0.188 3.122,-4.856 3.203,-4.006 2.914,-1.68 0.065,-0.724"
       id="path290" />
  </g>
  <g
     id="g291">
    <path
       fill="none"
       stroke="#000000"
       stroke-width="4"
       stroke-linecap="round"
       stroke-linejoin="round"
       d="m 152.93,704.273 -0.897,0.072 -0.049,-0.219 1.578,-8.433 2.233,-4.393 2.133,-3.229 -0.271,0.895 1.53,2.607 1.12,3.531 1.864,11.074 0.04,2.132 0.129,-0.582"
       id="path291" />
  </g>
  <g
     id="g292">
    <path
       fill="none"
       stroke="#000000"
       stroke-width="4"
       stroke-linecap="round"
       stroke-linejoin="round"
       d="m 154.236,698.551 -1.266,0.868 0.628,-0.354 0.032,-0.406 2.111,0.594 0.601,-0.208 2.684,0.252 0.508,-0.485"
       id="path292" />
  </g>
  <g
     id="g293">
    <path
       fill="none"
       stroke="#000000"
       stroke-width="4"
       stroke-linecap="round"
       stroke-linejoin="round"
       d="m 288.213,688.212 -1.722,0.391 -0.132,0.275 0.329,-0.186 -0.569,0.702 -0.945,0.582 -9.542,5.011 -2.105,0.143"
       id="path293" />
  </g>
</g>
<metadata
   id="metadata293">
  <rdf:RDF>
    <cc:Work
       rdf:about="">
      <dc:title>Regfile</dc:title>
    </cc:Work>
  </rdf:RDF>
</metadata>
</svg>
