<?xml version="1.0" encoding="UTF-8" standalone="no"?>
<svg
   width="1600"
   height="800"
   viewBox="-936 0 1600 800"
   version="1.2"
   id="svg113"
   sodipodi:docname="gen_we_w.svg"
   inkscape:version="1.4 (e7c3feb100, 2024-10-09)"
   xmlns:inkscape="http://www.inkscape.org/namespaces/inkscape"
   xmlns:sodipodi="http://sodipodi.sourceforge.net/DTD/sodipodi-0.dtd"
   xmlns="http://www.w3.org/2000/svg"
   xmlns:svg="http://www.w3.org/2000/svg"
   xmlns:rdf="http://www.w3.org/1999/02/22-rdf-syntax-ns#"
   xmlns:cc="http://creativecommons.org/ns#"
   xmlns:dc="http://purl.org/dc/elements/1.1/"><defs
   id="defs113" />
<sodipodi:namedview
   id="namedview113"
   pagecolor="#ffffff"
   bordercolor="#000000"
   borderopacity="0.25"
   inkscape:showpageshadow="2"
   inkscape:pageopacity="0.0"
   inkscape:pagecheckerboard="0"
   inkscape:deskcolor="#d1d1d1"
   inkscape:zoom="0.26768072"
   inkscape:cx="-22.414763"
   inkscape:cy="814.40307"
   inkscape:window-width="1918"
   inkscape:window-height="1178"
   inkscape:window-x="0"
   inkscape:window-y="20"
   inkscape:window-maximized="1"
   inkscape:current-layer="svg113" />
<title
   id="title1">Regfile</title>

\n<g
   id="g114"
   transform="translate(-43.227195,-7.7527149)">
  <g
     id="g1">
    <path
       fill="none"
       stroke="#000000"
       stroke-width="4"
       stroke-linecap="round"
       stroke-linejoin="round"
       d="m -286.942,210.958 0.418,3.018 0.003,6.125 0.354,3.165 -0.276,4.869 1.317,19.424 -0.486,8.158 0.75,10.836 -0.411,11.982 1.155,10.514 -0.018,13.748 -0.452,4.099 0.192,0.719 -0.277,-0.771"
       id="path1" />
  </g>
  <g
     id="g2">
    <path
       fill="none"
       stroke="#000000"
       stroke-width="4"
       stroke-linecap="round"
       stroke-linejoin="round"
       d="m -278.997,311.749 -0.325,0.61 -0.017,-0.32 7.668,-3.553 5.339,-3.87 1.347,-0.364 4.562,-2.199 6.224,-4.897 1.167,-0.191 3.569,-1.978 7.849,-3.528 0.38,0.247 1.565,-1.493 0.282,0.251 1.727,-0.52 0.297,-0.44 0.416,0.224 1.306,-1.245 -0.559,-2.706"
       id="path2" />
  </g>
  <g
     id="g3">
    <path
       fill="none"
       stroke="#000000"
       stroke-width="4"
       stroke-linecap="round"
       stroke-linejoin="round"
       d="m -281.496,209.036 -0.197,0.099 0.256,-0.146 -0.034,0.862 0.022,-0.998 0.057,0.695 0.212,-0.152 2.475,1.264 3.67,1.229 3.174,1.989 3.539,1.412 1.463,0.133 1.982,1.633 1.321,0.53 0.946,-0.045 2.058,1.388 1.772,-0.09 1.357,0.893 1.145,-0.51 0.873,0.685 3.53,1.051 0.545,-0.174 0.788,0.681 0.939,-0.222 1.251,0.781 4.194,1.593 0.298,0.451 0.387,0.126 0.222,-0.671 0.259,0.029 0.419,0.705 0.911,0.41 2.265,0.412 0.292,0.428 0.425,-0.276 0.27,0.231 -0.235,-0.145"
       id="path3" />
  </g>
  <g
     id="g4">
    <path
       fill="none"
       stroke="#000000"
       stroke-width="4"
       stroke-linecap="round"
       stroke-linejoin="round"
       d="m -234.982,225.317 -0.515,4.538 0.832,10.922 -0.511,3.025 0.027,2.39 0.642,14.602 0.376,3.427 0.639,1.843 -0.092,3.701 0.887,8.812 -0.075,5.563 0.446,0.343 -0.273,-0.247 0.22,0.19 -0.196,0.915 -0.118,-0.727"
       id="path4" />
  </g>
  <g
     id="g5">
    <path
       fill="none"
       stroke="#000000"
       stroke-width="4"
       stroke-linecap="round"
       stroke-linejoin="round"
       d="m -226.59,259.975 2.586,0.195 -0.279,0.233 -0.465,-0.415 -0.743,-0.022 1.203,0.113 0.639,-0.558 1.631,0.357 2.153,-0.445 1.182,0.469 0.119,-0.393 0.554,-0.248 2.079,0.301 0.519,-0.339 1.749,0.14 2.214,-0.502 0.621,0.281 0.561,-0.479 0.65,0.608 0.951,-0.873 0.378,0.417 0.568,-0.208 0.309,0.478 0.599,-0.721 0.52,0.469 1.765,0.009 0.739,0.393 0.251,-0.349 0.392,0.683 0.464,-0.347 0.289,0.327 0.497,-0.166 0.728,0.384 0.277,-0.392 1.167,0.268 0.513,-0.505 0.144,0.418 0.326,0.062 0.253,-0.374 0.592,0.429 0.276,-0.294 1.029,-0.038 0.301,-0.347 0.846,0.513 0.415,-0.405 0.844,0.163 0.466,-0.231 0.588,0.438 0.056,-0.396 0.385,-0.144 0.615,0.391 0.599,-0.904 0.153,0.679 -0.051,-0.415 1.373,0.135 0.224,-0.288 0.456,0.336 0.101,-0.341 0.902,-0.12 0.184,0.355 0.544,-0.328 0.446,0.475 0.135,-0.509 3.762,0.658 0.11,-0.589 0.187,0.703 0.483,-0.351 0.2,0.299 0.387,-0.455 0.386,0.384 0.689,-0.528 0.098,0.413 -0.025,-0.402 0.425,0.531 -0.02,-0.389 0.432,0.346 0.25,0.615 0.986,0.069"
       id="path5" />
  </g>
  <g
     id="g6">
    <path
       fill="none"
       stroke="#000000"
       stroke-width="4"
       stroke-linecap="round"
       stroke-linejoin="round"
       d="m -181.024,212.981 0.932,-0.946 -0.617,0.705 0.099,0.824 -1.178,5.025 -0.857,9.105 -0.153,5.208 0.677,7.566 -0.099,10.907 0.474,2.443 0.067,11.94 0.418,2.65 0.055,5.383 0.875,4.141 0.011,2.353 1.263,5.227 -0.052,1.002 0.857,2.688 0.879,10.22 -0.202,5.071 -0.569,3.908 0.287,-0.005 -0.362,0.748 -0.296,2.566 -0.329,-0.957"
       id="path6" />
  </g>
  <g
     id="g7">
    <path
       fill="none"
       stroke="#000000"
       stroke-width="4"
       stroke-linecap="round"
       stroke-linejoin="round"
       d="m -179.451,211.865 0.67,-0.301 0.834,0.325 0.881,-0.21 1.682,0.705 2.338,-0.057 1.262,-0.47 5.775,-0.219 2.79,0.611 7.419,0.158 6.476,-0.647 2.526,0.546 0.922,0.545 0.872,-0.138 2.143,0.365 1.255,-0.583 1.883,-0.144 3.181,0.184 2.734,-0.265 1.141,0.493 0.449,-0.758 0.712,0.601 0.089,-0.367 0.972,0.484 0.859,-0.04"
       id="path7" />
  </g>
  <g
     id="g8">
    <path
       fill="none"
       stroke="#000000"
       stroke-width="4"
       stroke-linecap="round"
       stroke-linejoin="round"
       d="m -127.793,214.783 -0.273,0.417 -0.106,-0.182 -0.671,0.376 -0.678,2.035 -0.547,3.581 1.805,13.106 0.002,10.207 0.816,9.459 -0.007,2.816 -0.96,9.006 0.039,5.766 -0.329,2.653 1.056,14.241 -0.845,11.827 -0.117,8.327 -0.526,3.989 -0.25,0.032 -0.408,2.407 -0.818,-0.303"
       id="path8" />
  </g>
  <g
     id="g9">
    <path
       fill="none"
       stroke="#000000"
       stroke-width="4"
       stroke-linecap="round"
       stroke-linejoin="round"
       d="m -174.54,310.162 1.396,-0.27 -0.601,0.492 -0.125,0.237 0.23,0.017 -0.013,-0.352 2.189,0.378 1.03,-0.478 0.534,0.074 1.106,0.994 1.505,-0.339 4.401,0.041 6.062,0.656 2.073,-0.578 1.631,0.66 0.806,-0.316 0.515,0.909 2.485,-0.706 0.366,-0.407 0.56,0.696 0.341,-0.655 1.509,0.215 1.019,-0.455 0.428,0.033 0.328,0.609 0.23,-0.372 0.708,0.066 0.442,-0.361 1.557,0.188 0.847,-0.333 0.681,0.507 1.027,-0.253 0.82,0.305 2.634,-0.278 0.541,0.384 0.223,-0.296 1.508,-0.052 3.68,0.648 1.774,-0.552 1.386,0.372 0.437,-0.475 -0.342,0.381 -0.13,-0.185"
       id="path9" />
  </g>
  <g
     id="g10">
    <path
       fill="none"
       stroke="#000000"
       stroke-width="4"
       stroke-linecap="round"
       stroke-linejoin="round"
       d="m -178.022,289.18 1.135,-1.118 -0.142,0.434 -0.327,-0.325 0.002,0.519 0.04,-0.335 0.207,0.437 1.39,0.155 4.637,2.33 5.617,1.563 1.541,1.173 1.519,-0.066 0.664,0.602 0.893,0.188 0.128,0.59 -0.011,-0.473 -0.039,0.639 -10.022,2.394 -1.104,1.257 -1.046,0.582 0.08,0.206 -0.054,-0.401 0.07,0.473 -0.019,-0.445"
       id="path10" />
  </g>
  <g
     id="g11">
    <path
       fill="none"
       stroke="#000000"
       stroke-width="4"
       stroke-linecap="round"
       stroke-linejoin="round"
       d="m -335.036,283.082 0.737,-0.967 -0.502,0.479 -0.553,0.037 -1.133,1.343 0.305,-0.376 1.25,0.734 0.788,-0.292 0.591,0.16 1.283,0.795 0.428,-0.349 1.343,0.069 1.663,0.519 1.191,-0.234 1.203,0.173 1.725,-0.617 1.378,0.56 0.537,-0.285 4.716,0.041 0.857,0.444 1.426,-0.974 1.55,0.383 2.785,-0.078 0.689,0.326 1.67,-0.529 6.197,0.052 0.524,0.242 0.28,-0.419 1.557,0.239 1.121,-0.439 1.433,0.756 0.822,-0.386 1.641,0.135 3.827,-0.817 3.014,0.419 0.754,-0.826 0.407,-0.047 0.575,0.54 0.831,-0.144 -0.744,-2.272"
       id="path11" />
  </g>
  <g
     id="g12">
    <path
       fill="none"
       stroke="#000000"
       stroke-width="4"
       stroke-linecap="round"
       stroke-linejoin="round"
       d="m -338.566,292.366 -1.405,1.086 0.601,-0.306 -0.377,0.716 -0.067,11.514 0.004,11.631 0.715,12.964 -0.297,5.083 0.91,9.956 -0.731,14.273 0.071,7.107"
       id="path12" />
  </g>
  <g
     id="g13">
    <path
       fill="none"
       stroke="#000000"
       stroke-width="4"
       stroke-linecap="round"
       stroke-linejoin="round"
       d="m -123.988,258.167 1.881,0.028 -1.229,0.269 0.247,-0.613 0.212,0.546 7.569,-0.244 1.912,0.28 2.904,-0.174 1.517,0.382 1.316,-0.472 2.797,0.217 1.641,-0.353 0.959,0.489 1.109,-0.103 1.8099,0.409 7.8491,-0.88 2.2309,0.335 0.9696,-0.489 2.2972,0.829 0.8744,-0.431 5.527,-0.465 3.0516,-1.094 0.911,0.372 1.6313,-0.261 4.2583,0.612 5.8861,0.038 1.1073,-0.459 0.3885,0.421 0.5504,-0.253 2.2825,1.167 1.8145,-0.021 5.826,1.349 7.4066,0.671 3.2527,-0.537 0.8831,0.407 1.7212,-0.162 0.8578,0.224 1.2192,-0.489 1.2013,0.262 1.9752,-0.436 4.429,-0.203 1.455,-0.751 2.1851,0.489 0.9142,-1.041 1.557,0.337 0.7717,-0.165 0.1268,0.3 0.4611,-0.82 0.0688,0.57 -0.252,-0.147"
       id="path13" />
  </g>
  <g
     id="g14">
    <path
       fill="none"
       stroke="#000000"
       stroke-width="4"
       stroke-linecap="round"
       stroke-linejoin="round"
       d="m -333.367,367.293 -2.539,-0.263 0.248,-0.25 0.889,0.074 -0.047,-0.235 0.082,0.45 0.868,-0.36 2.838,0.829 0.448,-0.462 1.201,0.119 1.047,-0.354 1.954,0.302 4.993,-0.232 4.921,-0.849 3.819,0.628 1.041,-0.426 1.898,-0.078 2.799,0.728 6.85,-0.47 4.337,-1.131 4.607,-0.527 2.74,-0.654 3.64,0.271 7.466,-0.166 3.363,-0.786 1.977,0.206 1.83,-0.486 1.451,0.263 3.161,-0.821 4.439,0.378 4.245,-0.489 2.938,0.366 10.172,-1.095 3.365,0.256 1.034,-0.183 3.302,0.597 2.451,-0.144 2.795,0.382 8.275,-0.804 2.719,0.292 11.147,-0.55 1.347,0.219 3.368,-0.179 3.279,0.595 15.145,-0.356 4.151,0.697 0.799,0.436 2.795,-0.634 1.563,0.71 1.856,-0.318 0.301,0.392 0.905,-0.717 0.423,0.576 0.76,-0.207 4.29,0.302 2.009,-0.608 2.595,0.556 1.756,-0.9 0.948,-0.058 1.177,0.451 4.439,0.264 3.986,-0.172 2.406,0.332 2.475,-0.605 7.149,-0.154 3.333,0.53 6.96,-0.134 1.721,0.44 2.273,0.073 1.455,-0.367 8.517,-0.236 1.467,-0.556 4.938,-0.456 3,0.589 0.743,-0.223 1.835,0.215 0.641,0.46 0.451,-0.54 1.138,0.3 0.994,-0.124 3.1181,0.737 1.3968,-0.52 2.4929,0.097 0.9068,-0.322 1.3562,0.446 0.5854,-0.532 0.7332,0.489 1.6146,-0.456 0.2283,0.36 0.3755,-0.387 0.5848,0.403 1.1939,-0.469 0.4422,0.274 0.1434,-0.241 0.0268,0.292 0.3785,-0.443 0.3718,0.488 0.7422,-0.194 0.287,-0.641 0.4127,0.141 0.5845,-0.326 0.0839,-1.068"
       id="path14" />
  </g>
  <g
     id="g15">
    <path
       fill="none"
       stroke="#000000"
       stroke-width="4"
       stroke-linecap="round"
       stroke-linejoin="round"
       d="m -78.2083,261.027 0.4407,3.888 -1.1582,8.642 1.1445,17.775 0.2352,8.879 0.6748,6.53 0.9874,17.961 0.9356,5.82 0.8699,2.055 0.8831,4.848 0.1827,2.867 -0.1082,5.588 -0.9935,3.984 0.1093,11.484"
       id="path15" />
  </g>
  <g
     id="g16">
    <path
       fill="none"
       stroke="#000000"
       stroke-width="4"
       stroke-linecap="round"
       stroke-linejoin="round"
       d="m -443.895,112.419 3.431,-1.298 -0.373,0.547 -1.156,0.241 0.828,3.848 0.358,3.83 -0.592,11.413 0.439,4.256 1.746,8.741 0.877,6.878 -0.152,6.322 0.543,8.043 0.076,8.94 1.453,8.081 1.058,22.571 -0.487,5.919 0.308,1.814 -0.175,5.439 0.232,2.405 -0.481,3.995 -0.329,0.444 -0.095,4.469 -0.649,1.249 -0.247,1.323"
       id="path16" />
  </g>
  <g
     id="g17">
    <path
       fill="none"
       stroke="#000000"
       stroke-width="4"
       stroke-linecap="round"
       stroke-linejoin="round"
       d="m -438.895,236.247 -0.113,-0.366 0.331,0.303 -0.023,-0.308 -0.233,0.34 0.243,0.039 -0.027,-0.308 0.231,0.48 0.318,-0.061 0.728,0.606 0.961,-0.182 2.051,0.563 2.619,0.057 0.968,0.407 16.663,0.283 2.679,0.342 1.214,0.68 2.562,-0.708 1.943,0.781 1.122,0.036 3.434,-0.571 5.602,0.475 2.632,-0.493 1.194,0.211 2.199,-0.289 15.084,0.581 2.507,-0.032 3.631,-0.848 2.912,0.424 4.797,-0.696 5.262,0.439 4.896,-0.369 4.628,-1.093 2.301,0.586 3.478,-0.601 7.142,0.475 2.414,-0.384 1.885,0.812 0.96,-0.037 1.898,-0.978 5.067,0.021 3.815,-0.75 5.456,0.222 0.37,-0.365 0.648,0.418 0.93,-0.889 1.05,0.708 2.717,-0.363 0.206,0.399 0.841,-0.62 1.121,0.289 0.114,-0.279 0.951,0.053 0.273,0.307 0.617,-0.379 1.243,0.075 0.091,-0.222 0.513,0.254 0.826,-0.134 0.399,0.57 0.533,-0.703 0.536,0.444 -0.345,-0.05 0.215,0.104 0.194,-0.37 -0.373,0.378 0.013,-0.311"
       id="path17" />
  </g>
  <g
     id="g18">
    <path
       fill="none"
       stroke="#000000"
       stroke-width="4"
       stroke-linecap="round"
       stroke-linejoin="round"
       d="m -455.501,99.7116 4.868,0.0697 -0.497,0.4837 -1.35,-0.8186 0.174,0.5766 0.047,-0.7982 0.167,0.4873 2.032,1.3149 3.7,6.239 1.239,0.944 2.775,3.581 1.042,0.39 0.147,0.54 0.044,-0.446 0.388,0.242 0.904,-0.679 1.574,-1.924 1.219,-2.916 2.178,-7.5343 0.195,-0.2815 0.449,0.0757 2.695,-5.7694 -0.421,1.2583 -0.104,-0.3838 -0.004,0.3154 -2.267,0.0686 -5.11,-0.653 -1.267,0.0651 -0.798,0.394 -1.414,0.0668 -0.845,-0.3309 -5.45,0.4734 -1.391,0.2794 -0.066,0.2511 -0.326,-0.5482 -0.473,0.3539 -0.237,-0.1841 -0.225,0.5462 -0.079,-0.2811 0.324,-0.0471 -0.207,0.0195 0.046,-0.5289 0.094,0.6858 -0.109,-0.3111 -0.119,0.3819 0.269,-0.0344 -0.326,-0.1922 0.047,0.4164 0.034,-0.6797 -0.096,0.4708 0.016,-0.3926 -0.108,0.3554 -1.777,0.1329 0.238,0.162 0.256,-0.3562 -0.129,0.4524 1.735,3.3594 0.473,1.9041 1.286,2.242 2.528,2.857 0.726,0.013 0.382,0.523 0.177,-0.692 0.399,0.35 0.253,-0.318 2.256,-5.527 2.22,-3.6024 -0.324,0.8436 -0.066,2.7538 -0.464,1.29 0.047,0.853 0.193,-0.805 1.022,-0.107 2.403,-2.022 0.98,-2.1917 -2.096,3.5627 -1.743,4.665 0.341,-1.059 0.374,0.048 1.508,-2.454 0.262,-1.238 -0.257,-0.438 -0.166,0.146 -0.167,1.083 -0.831,0.48 -0.252,0.588 0.062,1.32 0.285,-0.285 0.165,0.469 0.379,-0.761 3.341,-1.914 0.145,-1.164 -1.634,-1.0511 -1.204,0.4505 -2.053,-0.01 -4.955,3.0996 0.06,-0.99 -0.703,-0.74 -1.346,-3.5168 -1.129,-0.1009 0.236,-0.1784 0.045,0.2577 -0.003,-0.2211 2.964,1.3768 2.043,0.028 1.79,0.8728 6.535,-1.5973 -0.73,0.8238 -0.633,-0.0915 -2.057,0.8317 -1.803,0.3232 0.128,0.328 0.722,-0.7168 2.197,1.5088 0.525,1.118 0.018,1.197 -1.112,2.569 -3.083,3.032 0.736,0.021 0.692,-0.821 0.868,-0.127 1.061,-0.867 1.647,-2.01 -0.068,-0.769 -0.164,0.89 0.615,-0.551 0.885,-0.026 2.006,-1.683 0.007,-0.256 -0.434,0.424 -0.43,-0.566 -0.53,-0.128 -0.451,-0.8 0.315,-0.111"
       id="path18" />
  </g>
  <g
     id="g19">
    <path
       fill="none"
       stroke="#000000"
       stroke-width="4"
       stroke-linecap="round"
       stroke-linejoin="round"
       d="m -479.643,24.292 0.908,-0.2994 0.292,-0.4241 -3.195,0.7301 -3.281,2.4868 -0.724,1.5912 0.394,0.5406 2.712,1.5838 1.972,2.0617 1.3,0.8301 0.54,1.3032 -0.056,0.8013 -0.72,0.9926 -0.481,0.0619 -0.941,1.1399 -0.656,0.1873 -0.456,0.7455 -1.416,0.9525 -1.337,-0.4316 -0.581,-0.9705 -0.128,-1.1546"
       id="path19" />
  </g>
  <g
     id="g20">
    <path
       fill="none"
       stroke="#000000"
       stroke-width="4"
       stroke-linecap="round"
       stroke-linejoin="round"
       d="m -470.946,25.9233 -1.314,6.0818 -0.339,3.8497 0.443,-0.3178 -0.015,-1.2124 0.95,-2.6948 0.939,0.3595 4.023,-0.9266 1.177,0.1478 2.827,-2.276 -0.261,-0.8706 -1.391,9.4719 -0.815,0.4749"
       id="path20" />
  </g>
  <g
     id="g21">
    <path
       fill="none"
       stroke="#000000"
       stroke-width="4"
       stroke-linecap="round"
       stroke-linejoin="round"
       d="m -452.465,28.3075 0.206,4.818 -0.443,4.7432 -0.452,0.8534 -0.09,-0.3169"
       id="path21" />
  </g>
  <g
     id="g22">
    <path
       fill="none"
       stroke="#000000"
       stroke-width="4"
       stroke-linecap="round"
       stroke-linejoin="round"
       d="m -440.763,30.5797 3.922,-0.4255 1.729,0.0621 1.213,0.4421 -1.259,0.3735 -0.99,-0.3477 -0.146,3.5534 -0.946,5.3602 0.289,0.6407 -0.28,-10.6327 0.369,-1.3985 0.245,-0.3653 0.058,0.5046 1.564,-0.7646 0.653,0.0792 0.743,-0.4084 2.754,-2.8156 0.872,0.2186 0.789,-0.4816"
       id="path22" />
  </g>
  <g
     id="g23">
    <path
       fill="none"
       stroke="#000000"
       stroke-width="4"
       stroke-linecap="round"
       stroke-linejoin="round"
       d="m -419.432,28.9705 -2.006,0.1738 0.399,0.1805 -0.523,1.3166 0.111,-0.4934 -0.539,-1.396"
       id="path23" />
  </g>
  <g
     id="g24">
    <path
       fill="none"
       stroke="#000000"
       stroke-width="4"
       stroke-linecap="round"
       stroke-linejoin="round"
       d="m -441.484,33.3674 1.619,0.2904 -0.292,0.1304 -0.157,-0.4373 0.16,0.281 0.704,-0.562 1.68,0.4881 2.783,-0.087 2.347,-0.6974"
       id="path24" />
  </g>
  <g
     id="g25">
    <path
       fill="none"
       stroke="#000000"
       stroke-width="4"
       stroke-linecap="round"
       stroke-linejoin="round"
       d="m -428.419,30.3437 -0.078,-0.4003 1.396,0.2776 5.511,-0.0412 2.382,-0.4622 1.109,0.7453 0.815,0.0219 1.759,-0.5876"
       id="path25" />
  </g>
  <g
     id="g26">
    <path
       fill="none"
       stroke="#000000"
       stroke-width="4"
       stroke-linecap="round"
       stroke-linejoin="round"
       d="m -423.45,31.5397 1.148,0.0275 0.723,0.8425 -0.532,-0.538 -0.272,0.2219 -0.304,3.9445 -1.028,5.0377 -0.456,0.9616 0.009,0.8648 0.132,-0.9324 0.387,2.1644 0.331,0.5985 -0.05,-0.4398"
       id="path26" />
  </g>
  <g
     id="g27">
    <path
       fill="none"
       stroke="#000000"
       stroke-width="4"
       stroke-linecap="round"
       stroke-linejoin="round"
       d="m -466.853,63.9924 -2.743,-0.8222 -0.004,-0.9128 0.399,0.1774 -0.122,0.4464 -0.201,-0.1502 0.207,0.3776 -0.454,8.7853 -0.568,5.3359 0.296,0.731 -0.233,-0.104"
       id="path27" />
  </g>
  <g
     id="g28">
    <path
       fill="none"
       stroke="#000000"
       stroke-width="4"
       stroke-linecap="round"
       stroke-linejoin="round"
       d="m -454.965,75.6259 -0.321,-1.1134 0.372,-2.8823 1.383,-4.0035 0.574,-0.8876 -0.256,0.6237 0.715,2.2484 1.146,7.0869 0.85,1.1191 0.228,-0.6025 0.815,0.2645 0.55,-0.2033 2.128,-1.9355 4.778,-6.4518 0.32,-0.9272 -0.057,-1.1331"
       id="path28" />
  </g>
  <g
     id="g29">
    <path
       fill="none"
       stroke="#000000"
       stroke-width="4"
       stroke-linecap="round"
       stroke-linejoin="round"
       d="m -437.967,364.269 -0.022,-0.295 -0.016,0.486 -0.006,-0.422 0.115,0.412 0.045,-0.284 0.625,0.549 4.469,1.315 4.436,-0.566 2.353,-0.724 2.905,1.156 6.592,-0.852 1.136,0.275 4.008,0.046 2.777,0.806 1.482,-0.753 0.84,-0.064 1.796,0.665 4.216,-0.167 0.96,-0.354 0.614,0.414 0.42,-0.498 0.678,0.525 5.072,-0.084 1.627,-0.455 0.823,0.366 1.284,-0.758 1.266,1.04 2.37,0.104 0.744,-0.248 1.569,0.25 0.644,-0.22 2.013,0.571 1.92,-0.454 2.023,0.312 2.432,-0.261 3.242,0.121 1.195,-0.34 2.379,0.649 4.498,-0.57 1.062,0.251 0.686,-0.183 3.75,0.844 1.71,-0.372 1.314,0.739 1.51,-0.766 1.74,0.699 1.172,-0.514 1.171,0.188 1.042,-0.679 0.981,0.52 0.617,-0.042 2.027,-0.611 1.032,0.126 1.858,-0.843 1.092,0.499 0.409,-0.515 1.698,0.124 1.412,-0.563 -0.278,0.293 -0.163,-0.228 0.029,0.279"
       id="path29" />
  </g>
  <g
     id="g30">
    <path
       fill="none"
       stroke="#000000"
       stroke-width="4"
       stroke-linecap="round"
       stroke-linejoin="round"
       d="m -440.939,369.315 -1.42,0.831 0.565,-0.34 0.06,0.228 -0.095,7.013 0.494,10.004 -0.276,12.967 1.668,11.925 0.36,4.72 -1.415,5.423 -0.697,11.399 0.906,10.421 -0.524,5.023 0.05,2.382 0.53,4.599 1.465,7.213 0.175,2.885 -0.297,3.888 1.006,9.04 -0.565,5.53 0.365,7.013 -0.385,6.619 0.066,5.437 -0.708,8.795 0.564,8.007 0.052,14.65 -0.341,5.406 0.488,10.257 -0.526,5.733 0.151,1.481 -0.656,4.901 -0.108,8.024 0.46,4.693 0.436,1.502 -0.464,9.199 0.525,2.3 0.196,-0.115 -0.799,6.899 0.166,3.33 -0.411,4.312 0.122,1.647 -0.546,3.557 0.291,2.414 -0.822,7.086 0.075,1.791 -0.199,-0.128 -0.051,0.526 -0.583,-1.432"
       id="path30" />
  </g>
  <g
     id="g31">
    <path
       fill="none"
       stroke="#000000"
       stroke-width="4"
       stroke-linecap="round"
       stroke-linejoin="round"
       d="m -449.493,611.802 0.722,3.334 1.054,2.435 1.206,4.246 0.753,5.841 1.002,2.641 0.931,1.07 2.835,-4.268 3.574,-8.282 4.166,-7.825 -0.274,0.112 0.274,10e-4 -0.108,-0.569 0.017,0.489 -0.015,-0.385 -1.023,-0.301 -1.1,-1.041 -0.996,0.227 -3.356,-1.402 -3.431,0.34 -4.712,2.276 0.499,-0.782 -0.165,0.514 2.35,5.839 0.857,4.103 0.505,1.03 -0.098,-0.816 2.719,-4.767 0.563,-2.626 -0.65,8.895 2.338,-4.603 1.092,-2.871 -0.43,1.544 0.113,1.16"
       id="path31" />
  </g>
  <g
     id="g32">
    <path
       fill="none"
       stroke="#000000"
       stroke-width="4"
       stroke-linecap="round"
       stroke-linejoin="round"
       d="m -461.04,642.824 -1.294,-0.982 -0.729,-0.062 -2.067,0.88 -1.029,0.88 -2.569,3.329 -1.429,1.152 -1.883,2.649 0.096,0.281 1.606,0.458 5.257,0.667 3.243,1.999 1.352,1.497 0.275,1.605 -0.292,1.246 -1.424,2.069 -1.367,1.284 -2.114,1.405 -2.158,-1.282 -0.219,-0.601"
       id="path32" />
  </g>
  <g
     id="g33">
    <path
       fill="none"
       stroke="#000000"
       stroke-width="4"
       stroke-linecap="round"
       stroke-linejoin="round"
       d="m -448.166,644.303 -1.35,4.624 -0.439,5.645 0.611,-1.774 1.605,-2.019 0.711,0.294 0.885,-0.27 1.169,0.295 2.368,-1.937 2.14,-3.649 0.599,-1.878 -0.18,-0.294 -0.056,0.205 0.093,1.521 -1.695,4.476 -0.88,4.596 -0.255,4.006 0.219,1.598 0.944,-0.182"
       id="path33" />
  </g>
  <g
     id="g34">
    <path
       fill="none"
       stroke="#000000"
       stroke-width="4"
       stroke-linecap="round"
       stroke-linejoin="round"
       d="m -428.933,641.719 -1.866,0.45 -3.725,13.784 -0.436,3.799"
       id="path34" />
  </g>
  <g
     id="g35">
    <path
       fill="none"
       stroke="#000000"
       stroke-width="4"
       stroke-linecap="round"
       stroke-linejoin="round"
       d="m -424.128,646.193 -0.628,2.486 -0.448,11.289 1.052,-3.949 0.304,-5.944 1.087,-7.438 0.733,0.461 0.291,-0.488 1.243,-0.54 2.586,-0.106 3.173,-1.427"
       id="path35" />
  </g>
  <g
     id="g36">
    <path
       fill="none"
       stroke="#000000"
       stroke-width="4"
       stroke-linecap="round"
       stroke-linejoin="round"
       d="m -420.057,652.079 1.818,-0.619 -0.419,0.377 0.815,0.388 3.643,-0.38 0.661,-0.475 0.177,-1.216"
       id="path36" />
  </g>
  <g
     id="g37">
    <path
       fill="none"
       stroke="#000000"
       stroke-width="4"
       stroke-linecap="round"
       stroke-linejoin="round"
       d="m -395.948,646.347 -1.724,0.677 0.147,-0.329 0.293,0.336 0.173,-0.169 -1.333,3.117 -0.046,4.405 0.621,1.407 0.094,-0.309"
       id="path37" />
  </g>
  <g
     id="g38">
    <path
       fill="none"
       stroke="#000000"
       stroke-width="4"
       stroke-linecap="round"
       stroke-linejoin="round"
       d="m -400.565,642.969 -1.28,0.194 0.25,0.366 2.846,-0.552 5.189,2.064"
       id="path38" />
  </g>
  <g
     id="g39">
    <path
       fill="none"
       stroke="#000000"
       stroke-width="4"
       stroke-linecap="round"
       stroke-linejoin="round"
       d="m -467.197,684.953 -0.804,-0.091 -1.407,1.273 -0.984,2.832 -0.796,4.151 1.004,3.421 1.23,1.129 2.429,0.512 2.434,-0.536 1.62,-1.096 1.894,-2.696 0.253,-1.393 -0.584,-2.097 -1.236,-1.651 -4.372,-2.443 0.521,-0.219 0.823,0.282"
       id="path39" />
  </g>
  <g
     id="g40">
    <path
       fill="none"
       stroke="#000000"
       stroke-width="4"
       stroke-linecap="round"
       stroke-linejoin="round"
       d="m -450.056,684.747 -1.896,3.77 -0.411,3.035 0.201,1.547 0.815,1.922 1.155,1.408 1.354,0.941 2.39,0.131 1.429,-0.724 1.244,-1.223 2.238,-4.052 0.21,-1.47 -0.746,-1.209 -0.277,0.02 0.069,0.246 0.191,0.23 0.037,-0.516 -0.136,-1.212"
       id="path40" />
  </g>
  <g
     id="g41">
    <path
       fill="none"
       stroke="#000000"
       stroke-width="4"
       stroke-linecap="round"
       stroke-linejoin="round"
       d="m -428.092,686.115 0.082,10.35"
       id="path41" />
  </g>
  <g
     id="g42">
    <path
       fill="none"
       stroke="#000000"
       stroke-width="4"
       stroke-linecap="round"
       stroke-linejoin="round"
       d="m -432.021,685.07 1.55,-1.521 0.042,0.389 -0.365,0.298 0.876,0.562 5.652,1.418 2.549,1.03"
       id="path42" />
  </g>
  <g
     id="g43">
    <path
       fill="none"
       stroke="#000000"
       stroke-width="4"
       stroke-linecap="round"
       stroke-linejoin="round"
       d="m -183.557,420.183 -1.267,0.807 0.632,-0.217 0.576,4.795 -0.497,8.189 0.072,6.752 1.523,12.926 -1.06,9.119 0.183,2.994 0.643,2.535 -0.159,11.303 0.341,13.732 -1.052,7.561 0.957,4.322 -0.116,4.137 0.651,3.597 -0.018,2.092 0.548,3.786 -0.175,0.778"
       id="path43" />
  </g>
  <g
     id="g44">
    <path
       fill="none"
       stroke="#000000"
       stroke-width="4"
       stroke-linecap="round"
       stroke-linejoin="round"
       d="m -178.915,414.926 1.213,-0.806 -0.286,0.268 0.163,0.363 2.235,0.739 3.957,-0.112 3.322,-1.021 2.952,0.523 4.166,-0.086 1.259,0.312 2.65,-1.028 2.643,0.016 2.189,0.724 0.63,-0.414 1.167,0.205 1.138,-0.457 0.821,0.418 2.03,-0.024 2.586,-0.831 0.665,0.237 2.5,-0.508 4.639,0.99 0.912,-0.696 0.273,0.55 1.568,0.076 0.216,-0.252 0.557,0.766 0.969,-0.729 0.791,0.159 1.068,-0.7 0.105,0.292 0.374,-0.503 0.162,0.399 -1.185,-1.499"
       id="path44" />
  </g>
  <g
     id="g45">
    <path
       fill="none"
       stroke="#000000"
       stroke-width="4"
       stroke-linecap="round"
       stroke-linejoin="round"
       d="m -129.614,412.632 -1.222,1.466 0.288,2.389 -0.676,8.794 0.5,3.65 2.93,11.89 0.55,5.253 0.475,10.222 -1.046,9.588 -1.239,6.879 -0.374,4.821 0.216,5.71 -0.394,4.616 -0.062,6.387 0.866,6.94 0.196,4.818 -0.703,4.61 0.231,12 -0.24,1.421 -0.982,-1.266"
       id="path45" />
  </g>
  <g
     id="g46">
    <path
       fill="none"
       stroke="#000000"
       stroke-width="4"
       stroke-linecap="round"
       stroke-linejoin="round"
       d="m -177.808,523.459 0.314,0.253 0.843,-0.117 1.237,0.728 3.794,0.68 6.981,-0.385 1.463,-0.708 3.682,0.953 1.4,0.007 1.663,-0.9 0.456,0.311 1.996,-0.581 1.634,0.351 1.101,-0.175 0.709,0.451 0.723,-0.485 2.384,0.361 0.936,-0.699 4.032,-1.013 2.345,-0.146 0.39,0.401 0.305,-0.195 0.275,0.422 1.607,-0.973 1.604,0.401 0.715,-0.79 2.235,-0.644 0.431,0.532 1.849,0.258 0.923,-1.086 -1.486,-1.769"
       id="path46" />
  </g>
  <g
     id="g47">
    <path
       fill="none"
       stroke="#000000"
       stroke-width="4"
       stroke-linecap="round"
       stroke-linejoin="round"
       d="m -181.676,496.867 -0.899,-0.356 -0.374,0.199 0.163,-0.241 0.207,0.316 -0.043,-0.379 0.026,0.376 2.727,0.774 4.073,0.526 3.024,1.264 1.375,-0.291 2.31,1.47 1.974,0.195 1.018,0.625 0.625,1.165 0.044,-0.57 -1.3,2.118 -2.896,2.846 -0.675,0.091 -1.44,1.059 -0.764,-0.099 -2.538,0.898 -1.264,0.791 -1.607,0.207 -0.674,1.123 -0.224,-0.801 0.659,0.719"
       id="path47" />
  </g>
  <g
     id="g48">
    <path
       fill="none"
       stroke="#000000"
       stroke-width="4"
       stroke-linecap="round"
       stroke-linejoin="round"
       d="m -127.147,467.96 1.385,0.121 0.697,-0.441 1.269,0.594 0.577,-0.059 0.6,-0.442 2.328,-0.628 0.888,0.495 1.647,-0.324 1.665,0.113 0.929,-0.437 1.797,0.26 1.906,-0.869 0.259,0.36 1.923,0.009 3.041,0.721 1.136,-0.063 0.772,0.477 0.925,-0.344 0.343,0.217 4.0955,-0.257 0.6905,-0.572 0.7972,0.557 0.2978,-0.308 0.621,0.195 1.0484,-0.454 1.9129,0.408 2.0104,-0.746 1.2524,0.636 0.932,-0.398 1.6488,0.047 0.9633,0.584 1.1644,-0.659 0.9502,0.225 1.193,-0.266 2.3861,0.263 0.3921,-0.211 0.4366,0.317 0.5079,-0.359 2.5262,0.662 2.1775,-0.119 0.9763,-0.359 0.6389,0.308 3.9448,0.446 3.5475,-0.689 5.6896,0.155 1.1936,-0.784 0.669,-0.036 1.4938,0.559 3.3988,-0.423 2.6659,0.148 1.7425,-0.337 1.0908,0.587 0.9575,0.076 2.4236,-0.957 5.9113,0.267 4.63,-0.326 2.7074,-0.57 1.6236,0.279 0.2431,-0.308 0.9591,0.477 0.5762,-0.376 3e-4,0.337 0.164,-0.438 -0.0136,0.308 0.494,0.158 1.2795,-0.519 0.6087,0.521 0.391,-0.747 0.4381,0.338 1.5294,-0.138 1.4271,0.292 1.6691,-0.34 1.891,0.272 0.4843,-0.266 2.8209,0.597 15.93287,-0.337 4.85113,-0.713 1.8526,0.493 1.24121,-0.024 7.40909,-1.081 0.27,0.026 0.068,0.685 0.2696,-0.326 1.6636,0.153 2.4719,-0.706 4.6482,-0.261 1.9663,0.129 0.0935,0.61 0.4159,0.179 1.119,-0.684 0.5875,0.274 4.076,0.281 0.2492,0.304 0.2797,-0.805 0.2981,-0.014 0.7356,1.022 5.5937,0.29 2.8778,-0.282 1.4104,0.285 0.0623,-0.874 0.6071,0.813 0.591,-0.655 1.7427,0.249 1.5673,-0.345 0.9572,-0.436 -0.1797,-0.338 0.1574,0.873 0.5342,-0.338 7.2186,-1.392 0.8088,0.497 0.2493,-0.895 -0.1334,0.495 2.4773,-0.629 0.9208,0.438 0.6984,-0.664 -0.3452,0.026 0.1846,0.363 1.6523,-0.193 1.5017,0.337 0.3462,-0.274 0.281,0.322 1.1797,0.096 0.9777,-0.235 0.4038,0.665 0.423,0.069 0.304,-0.436 2.0168,-0.238 1.9461,0.154 -0.3461,0.015 0.0474,0.225 0.4353,0.211 0.4655,-0.213 0.1466,0.247 -0.4443,-0.242"
       id="path48" />
  </g>
  <g
     id="g49">
    <path
       fill="none"
       stroke="#000000"
       stroke-width="4"
       stroke-linecap="round"
       stroke-linejoin="round"
       d="m -604.823,462.181 -1.053,-0.904 -0.053,0.336 -0.003,-0.408 0.327,0.441 1.234,0.083 1.862,0.877 1.059,-0.101 5.84,3.119 5.385,1.994 7.346,1.825 -0.443,-0.181 -0.047,0.482 -0.815,0.408 -4.606,1.492 -3.335,2.902 -3.573,1.548 -5.692,3.899 -0.136,-0.207 -0.2,0.262 0.008,-0.44 -0.843,1.34 0.106,-0.639 0.196,0.509"
       id="path49" />
  </g>
  <g
     id="g50">
    <path
       fill="none"
       stroke="#000000"
       stroke-width="4"
       stroke-linecap="round"
       stroke-linejoin="round"
       d="m -604.524,464.745 0.025,-0.259 -0.337,0.437 -0.145,4.63 -0.652,5.948 -0.634,2.384 0.211,2.891 0.411,0.593 -0.288,0.277 0.288,-0.262 -0.505,-2.869 0.484,-4.857 -0.585,-3.094 0.283,-1.666 0.042,0.821 1.874,1.327 1.183,0.184 0.989,1.558 0.415,-0.488 1.195,0.106 1.884,-1.007 0.692,-0.037 0.746,-1.303 0.245,0.317 0.435,-0.751 -1.346,1.488 -1.151,2.284 -1.487,1.268 -0.284,1.047 0.197,0.368 2.191,-1.37 2.187,-0.456 3.034,-2.033 0.959,-1.407 0.018,-0.96 -1.055,1.071 -1.862,0.956 -1.715,1.531 -2.495,1.344 -1.931,1.496 2.633,-1.543 3.421,-0.994 1.4,-1.532 -0.337,0.742 -0.404,0.274 -0.121,-0.196 -0.432,0.709 0.858,2.012"
       id="path50" />
  </g>
  <g
     id="g51">
    <path
       fill="none"
       stroke="#000000"
       stroke-width="4"
       stroke-linecap="round"
       stroke-linejoin="round"
       d="m -582.009,469.092 -0.198,-0.537 0.212,0.411 2.796,0.16 3.776,-1.409 2.063,0.329 2.285,-0.487 1.298,0.193 0.423,0.48 1.085,0.238 2.129,0.004 1.782,-0.492 1.306,0.188 0.268,0.374 0.328,-0.239 0.505,0.434 1.537,0.383 2.276,0.057 0.768,-0.277 0.979,0.603 2.567,-0.284 8.334,0.632 2.321,-0.424 1.345,0.572 1.464,-0.237 4.865,0.59 3.115,-1.037 1.783,0.723 1.057,-0.021 3.106,-1.048 10.894,-0.353 8.556,-1.313 1.629,0.176 0.286,-0.412 0.897,0.476 1.354,-0.111 3.507,0.584 2.942,-0.348 2.358,0.264 4.818,1.266 1.616,-0.297 1.635,0.88 0.504,-0.228 1.927,0.196 1.654,0.777 1.612,-0.166 1.442,0.343 4.16,-0.834 1.626,0.468 3.052,-0.323 0.248,0.388 0.337,-0.047 0.389,-0.848 -0.031,0.92 -0.046,-0.963 0.544,0.82 0.152,-0.542 -0.027,0.414 1.122,0.86"
       id="path51" />
  </g>
  <g
     id="g52">
    <path
       fill="none"
       stroke="#000000"
       stroke-width="4"
       stroke-linecap="round"
       stroke-linejoin="round"
       d="m -424.134,467.429 0.064,0.316 0.093,-0.237 4.011,0.874 2.455,-0.451 2.074,1.08 0.986,-0.295 1.046,0.291 0.65,-0.583 0.626,0.208 3.078,-0.678 10.294,0.637 5.477,-0.799 7.322,0.554 1.672,0.398 2.486,-0.318 0.867,-0.44 3.046,0.523 2.935,-0.497 5.12,-0.11 3.761,0.828 3.295,-0.122 6.357,1.509 2.442,0.107 1.339,0.618 3.29,-0.166 0.897,0.405 3.674,0.547 6.639,-0.115 2.077,-0.641 1.304,-0.053 1.278,0.846 0.807,-0.546 0.321,0.378 5.648,0.421 3.177,-0.777 3.659,0.351 0.87,-0.232 0.518,0.469 2.303,-0.173 2.757,0.35 4.221,-1.199 0.861,-0.101 1.314,0.371 0.564,-0.369 2.646,-0.027 2.302,-0.767 3.319,0.567 3.886,0.053 1.523,0.302 6.562,-1.3 2.366,-0.212 1.964,0.675 0.529,-0.432 1.006,0.258 0.337,-0.335 3.92,-0.191 1.894,-0.488 3.067,0.9 0.977,-0.322 13.438,-0.923 5.59,-0.212 6.175,0.374 1.059,-0.351 2.375,0.531 3.334,0.198 1.82,-0.521 2.824,-0.11 0.341,0.306 1.678,-0.573 1.408,0.38 6.663,-0.165 2.072,0.262 1.205,-0.245 1.937,1.051 1.976,-0.353 1.762,0.502 4.933,-0.453 0.548,-0.402 0.782,0.931 0.555,-0.501 4.743,-0.144 0.448,0.216 1.881,-0.681 1.235,0.303 0.846,-0.306 1.842,0.032 0.017,0.626 0.163,-0.599 0.812,0.392 2.668,-1.048 1.61,0.45 1.093,-1.251 0.961,0.618 0.152,-0.235 0.049,0.549 0.312,0.099 0.375,-1.296 0.548,0.564 0.676,-0.423 1.286,-0.188 -0.31,-0.207 -0.159,0.448 0.22,-0.629 0.018,0.516 0.81,-0.41 1.35,0.318"
       id="path52" />
  </g>
  <g
     id="g53">
    <path
       fill="none"
       stroke="#000000"
       stroke-width="4"
       stroke-linecap="round"
       stroke-linejoin="round"
       d="m -682.091,433.253 2.175,9.484 1.367,1.58 1.351,0.189 1.544,-1.506 2.218,-2.978 3.608,-7.232 0.331,0.094 -0.24,0.711 2.047,7.069 0.487,0.902 1.175,0.267 1.933,-0.652 2.278,-1.584 4.887,-6.645 0.389,-1.282 -0.304,-0.44 1.362,-0.959"
       id="path53" />
  </g>
  <g
     id="g54">
    <path
       fill="none"
       stroke="#000000"
       stroke-width="4"
       stroke-linecap="round"
       stroke-linejoin="round"
       d="m -640.215,431.351 -0.122,-0.395 -0.158,0.676 0.096,-0.27 0.245,0.269 4.835,-1.428 0.308,-0.461 -0.1,-0.542 1.256,-1.269 0.572,-1.082 0.161,-0.997 -0.367,-0.624 -0.517,-0.359 -0.575,0.354 -0.816,-0.574 -0.741,0.017 -2.009,0.79 -2.679,2.437 -1.165,0.476 -0.213,0.981 -0.154,-0.384 -1.97,3.938 -0.54,0.184 -0.293,1.432 0.293,1.895 1.704,4.066 0.745,0.039 2.071,0.991 1.662,0.248 2.394,-0.703 2.371,0.11 1.147,-0.308 0.522,0.357 2.311,-0.256 2.027,-0.826 1.606,-1.933"
       id="path54" />
  </g>
  <g
     id="g55">
    <path
       fill="none"
       stroke="#000000"
       stroke-width="4"
       stroke-linecap="round"
       stroke-linejoin="round"
       d="m -680.408,461.798 -1.684,0.298 0.649,0.359 1.071,7.936 0.538,6.351 -0.387,1"
       id="path55" />
  </g>
  <g
     id="g56">
    <path
       fill="none"
       stroke="#000000"
       stroke-width="4"
       stroke-linecap="round"
       stroke-linejoin="round"
       d="m -666.303,474.19 -0.279,0.06 0.121,-4.399 1.068,-4.836 1.058,-2.5 0.022,-0.985 0.078,0.895 0.34,0.064 1.81,3.937 2.404,7.182 1.329,2.417 0.974,-0.055 3.74,-1.565 1.543,-2.038 2.085,-4.791 0.612,-3.9 -0.148,-2.04 0.106,0.646 0.414,-2.641"
       id="path56" />
  </g>
  <g
     id="g57">
    <path
       fill="none"
       stroke="#000000"
       stroke-width="4"
       stroke-linecap="round"
       stroke-linejoin="round"
       d="m -334.796,284.667 0.075,-0.508 0.004,0.415 0.118,-0.335 -0.487,0.228 -1.63,-0.825 -5.416,0.061 0.026,0.298 -0.11,-0.449 0.006,0.243 0.003,-0.206 -0.769,0.274 0.868,5.065 0.164,4.778 0.408,1.126 -0.139,-0.498 0.106,0.962 -0.125,-0.599 -0.382,3.211"
       id="path57" />
  </g>
  <g
     id="g58">
    <path
       fill="none"
       stroke="#000000"
       stroke-width="4"
       stroke-linecap="round"
       stroke-linejoin="round"
       d="m -288.76,232.629 -1.998,0.414 0.5,0.262 0.21,-0.258 -0.524,-0.065 -0.092,0.318 0.068,-0.446 -0.154,0.371 -1.893,0.185 -0.249,-0.491 -3.176,0.124 -2.047,-0.322 -0.536,0.41 0.043,-0.247"
       id="path58" />
  </g>
  <g
     id="g59">
    <path
       fill="none"
       stroke="#000000"
       stroke-width="4"
       stroke-linecap="round"
       stroke-linejoin="round"
       d="m 79.4692,386.985 0.1653,0.66 -0.0323,-0.307 0.2214,0.151 -0.1633,0.2 0.2633,-0.03 -0.3513,0.061 -0.3561,5.149 0.3621,2.705 -0.3224,5.061 0.4022,5.017 -0.0209,6.958 0.5519,2.429 0.1055,4.982 -0.213,6.887 -0.3528,1.41 0.4398,5.41 -0.4574,5.56 0.3767,3.726 -0.3061,5.131 0.267,1.841 -0.4809,3.105 0.0799,4.659 -0.7406,4.237 0.2569,2.876 -0.5138,3.569 -0.1169,6.497 0.4523,9.58 -0.5352,8.243 0.1436,3.507 -0.3577,2.587 0.3825,2.631 -0.4267,9.183 0.6876,8.129 1.0144,4.957 -0.096,5.407 0.363,0.648 0.0961,4.648 0.3469,0.281 0.4336,3.389 -0.2995,2.193 0.2905,1.46 -0.1767,5.596 0.1469,0.814 -0.1205,-0.725 0.0889,0.284 0.5518,-1.571"
       id="path59" />
  </g>
  <g
     id="g60">
    <path
       fill="none"
       stroke="#000000"
       stroke-width="4"
       stroke-linecap="round"
       stroke-linejoin="round"
       d="m 86.4219,385.575 3e-4,-0.335 0.2666,0.539 4.807,0.449 2.5929,-0.216 2.8017,0.555 1.3337,-0.23 1.6907,0.303 0.8262,-0.322 3.98,-0.042 0.577,-0.306 1.388,0.497 2.31,-0.355 1.87,0.109 2.885,-0.652 2.428,0.261 1.278,0.618 0.388,-0.23 0.79,0.262 0.7,-0.444 0.686,0.401 0.635,-0.253 0.629,0.244 0.198,-0.236 0.533,0.55 1.981,0.146 1.608,0.623 3.557,0.454 1.095,-0.256 0.27,0.334 2.361,0.717 0.312,-0.242 0.643,0.507 0.796,-0.486 1.206,0.516 2.671,-0.305 0.747,0.533 1.967,-0.634 0.979,0.519 1.211,-0.728 0.476,0.477 2.064,0.127 6.617,-0.416 0.743,-0.355 2.808,-0.238 0.422,0.214 0.591,-0.391 0.686,0.225 1.299,-0.711 2.209,-0.132 1.23,-0.249 0.069,-0.3 -0.12,0.462 0.125,-0.469 0.402,0.367 0.407,-0.536 -0.073,0.509 -0.196,0.118 0.012,-0.262"
       id="path60" />
  </g>
  <g
     id="g61">
    <path
       fill="none"
       stroke="#000000"
       stroke-width="4"
       stroke-linecap="round"
       stroke-linejoin="round"
       d="m 84.7258,549.07 -1.2674,0.45 0.6223,-0.333 -0.0137,0.457 0.1126,-0.267 1.6041,0.381 3.514,-1.082 2.6568,-0.338 4.0058,-0.434 7.2077,-0.175 6.281,1.107 8.286,0.168 3.723,0.855 3.502,-0.977 0.342,0.544 1.052,-0.583 2.416,-0.511 1.235,0.224 1.112,-0.805 1.8,0.371 2.609,-0.208 0.794,-0.349 0.933,0.703 1.573,-0.388 0.396,0.312 1.021,-0.767 2.119,-0.109 0.444,-0.552 0.446,0.708 2.237,-0.308 0.549,-0.357 0.612,0.195 0.512,-0.425 0.131,0.609 0.492,-0.405 2.242,-0.109 -0.057,-0.249 0.108,0.679 1.883,-0.103 0.977,1.239 0.759,-0.863 -0.652,-1.534"
       id="path61" />
  </g>
  <g
     id="g62">
    <path
       fill="none"
       stroke="#000000"
       stroke-width="4"
       stroke-linecap="round"
       stroke-linejoin="round"
       d="m 168.291,384.589 -0.837,10e-4 0.157,0.269 0.156,-0.162 -0.057,0.401 0.234,-0.834 0.249,0.39 1.266,0.004 1.44,-0.378 2.206,0.028 1.238,-0.412 1.103,0.193 1.277,-0.454 2.7,0.123 3.514,-0.778 1.206,-0.655 1.35,0.419 1.159,-0.176 0.754,0.354 0.089,-0.282 0.239,0.301 0.161,-0.267 1.295,-0.15 4.169,0.01 0.689,0.601 0.534,-0.6 0.576,0.528 1.477,0.14 1.875,0.986 1.675,-0.533 0.874,0.485 1.41,0.059 0.6,0.515 1.126,-0.077 1.004,0.878 1.947,-0.037 1.365,0.635 1.711,0.091 0.64,0.573 1.61,0.475 0.636,-0.306 0.704,0.271 0.7,-0.229 1.3,0.216 0.422,0.545 0.51,-0.025 0.362,0.594 0.452,-0.055 1.021,0.749 0.071,-0.266 0.293,0.935 0.228,-0.216 1.029,0.742 0.912,0.141 0.556,0.728 1.423,0.736 0.71,-0.006 0.264,0.395 3.176,1.437 1.487,1.329 0.634,-0.273 1.082,1.325 2.532,1.156 0.923,1.376 0.692,-0.167 0.309,0.862 1.554,0.51 1.065,0.819 1.144,1.647 0.888,0.428 1.893,2.087 0.39,1.077 1.729,1.164 1.349,1.514 0.967,0.338 0.78,1.695 3.316,3.318 1.134,2.801 1.194,1.425 1.466,3.115 1.112,1.391 0.127,1.402 0.859,0.711 1.444,2.292 0.782,3.453 1.566,3.061 0.091,1.464 1.39,3.031 0.325,2.295 0.43,0.156 -0.057,1.215 0.773,1.827 0.121,1.375 0.669,1.034 0.288,1.678 -0.342,8.006 0.69,2.383 -0.156,1.601 0.487,3.203 0.261,0.262 -0.098,1.799 -0.351,0.771 0.314,-0.377 0.051,1.486 0.007,-0.803 -0.008,0.667 -0.216,-0.191 -0.897,6.98 1.547,5.182 0.76,3.968 0.423,0.765 -0.187,3.37 0.337,2.129 -0.561,3.41 -1.162,4.119 0.126,2.671 -2.324,7.628 -0.496,-0.04 -0.846,1.877 -0.211,0.309 -0.429,-0.044 -1.391,2.691 -0.183,-0.468 -0.036,0.67 -0.691,0.082 -1.495,2.694 -0.397,0.284 -0.091,-0.691 -2.285,3.629 -0.442,-0.01 -1.309,1.307 -0.228,0.694 0.098,-0.387 -0.08,0.359 -0.299,-0.125 -1.058,1.744 -1.425,1.134 -0.147,0.622 -0.468,0.022 -0.383,1.102 -0.365,0.267 -0.567,-0.266 -0.37,0.679 -0.645,-0.017 -0.989,0.913 -1.212,0.176 -2.237,1.275 -0.683,0.994 -0.55,-0.132 -0.573,0.328 -0.757,1.313 -0.991,-0.239 -0.88,1.193 -0.426,-0.19 -0.836,0.277 -1.434,0.984 -0.882,0.064 -0.127,0.419 -1.179,0.02 -0.493,0.803 -0.714,-0.273 -1.588,1.058 -1.249,-0.218 -2.157,1.022 -0.679,0.715 -0.49,-0.12 -0.394,-0.785 -0.531,0.888 -1.441,0.122 -0.69,0.804 -0.632,0.16 -1.083,-0.673 -1.527,1.181 -0.789,-0.164 -3.635,0.635 -1.54,0.996 -1.017,-0.337 -1.345,0.65 -0.724,-0.463 -0.588,0.637 -0.546,-0.062 -1.653,0.898 -0.751,-0.722 -0.563,0.004 -0.977,1.212 -0.695,0.26 -2.938,0.678 -0.729,-0.316 -1.01,0.71 -2.266,0.368 -2.135,0.991 -0.117,-0.422 -1.8,0.358 -0.63,-0.224 -1.031,0.537 -2.136,0.11 -1.224,0.451 -1.5,-0.415 -1.267,0.532 -2.166,0.331 -2.615,1.321 -1.691,0.388 -0.205,-0.549 -0.33,0.541 -0.257,-0.311 -2.3,-0.127 -0.377,-0.328 -0.496,0.659 -0.26,-0.627 -0.355,0.44 -0.513,-0.436 -0.7,0.333 -0.337,-0.326 -0.656,0.227 -0.246,-0.201 -0.433,0.505 -0.608,0.065 -0.41,-0.551 -0.973,0.26 -1.862,-0.647 -0.523,0.396 -1.445,0.02 -1.008,0.414 -1.023,-0.213 -0.444,0.392 -0.492,-0.847 -0.686,0.294 -1.124,-0.583 0.148,0.276 0.016,-0.22 -1.048,0.45"
       id="path62" />
  </g>
  <g
     id="g63">
    <path
       fill="none"
       stroke="#000000"
       stroke-width="4"
       stroke-linecap="round"
       stroke-linejoin="round"
       d="m 161.327,545.144 -1.531,0.174 0.195,0.285 0.361,-0.163 -0.472,0.374 -0.838,-0.111 -0.442,0.47 -2.078,0.523 -0.454,0.397 -2.657,-0.114 -1.335,-0.811 -1.121,-0.166 -1.517,0.071 -0.956,1.042"
       id="path63" />
  </g>
  <g
     id="g64">
    <path
       fill="none"
       stroke="#000000"
       stroke-width="4"
       stroke-linecap="round"
       stroke-linejoin="round"
       d="m 129.147,472.493 -0.321,0.709 -0.524,0.118 0.609,-3.152 4.54,-10.738 4.476,-8.078 2.9,-3.89 1.947,3.058 1.308,3.936 0.695,3.282 0.899,6.4 0.013,2.781 -0.521,4"
       id="path64" />
  </g>
  <g
     id="g65">
    <path
       fill="none"
       stroke="#000000"
       stroke-width="4"
       stroke-linecap="round"
       stroke-linejoin="round"
       d="m 138.203,461.689 -1.576,0.179 0.848,-0.077 0.134,-0.271 0.13,0.247 0.869,-0.211 1.186,0.367 2.636,-0.816"
       id="path65" />
  </g>
  <g
     id="g66">
    <path
       fill="none"
       stroke="#000000"
       stroke-width="4"
       stroke-linecap="round"
       stroke-linejoin="round"
       d="m 155.527,468.575 0.165,-2.022 0.896,-2.704 2.17,-3.386 2.133,-2.236 2.078,-3.774 -0.165,0.873 0.696,0.624 0.754,2.159 0.914,5.819 1.384,4.166 0.919,0.679 0.996,-0.512 3.009,-3.955 3.287,-6.69 1.333,-3.805 0.567,-2.635 -0.112,-1.639 -0.21,-0.239 -0.046,0.851 -0.213,-0.15"
       id="path66" />
  </g>
  <g
     id="g67">
    <path
       fill="none"
       stroke="#000000"
       stroke-width="4"
       stroke-linecap="round"
       stroke-linejoin="round"
       d="m 188.123,456.979 -0.349,-1.119 0.567,10.358 -0.198,2.288 0.292,-1.289 0.055,-9.797 -0.731,-5.692 -0.701,-3.694 -0.449,-0.891 0.604,1.272 8.283,9.677 4.013,8.543 -0.014,1.661 -3.076,1.543 -2.728,0.596 -5.806,0.392 -0.494,0.09 -0.013,0.542"
       id="path67" />
  </g>
  <g
     id="g68">
    <path
       fill="none"
       stroke="#000000"
       stroke-width="4"
       stroke-linecap="round"
       stroke-linejoin="round"
       d="m 266.23,466.525 -0.001,-2.514 0.242,1.027 0.697,0.158 1.981,-0.122 0.571,0.283 2.214,-0.853 0.459,0.442 3.478,0.444 4.355,-0.412 1.551,-0.522 3.549,1.076 2.486,-0.221 1.891,0.736 3.73,0.556 2.424,-0.798 1.734,0.514 0.866,-0.409 1.292,0.585 3.046,0.333 2.653,-0.214 4.671,-0.966 0.811,0.233 2.2,-0.312 1.067,0.325 0.938,-0.335 1.011,0.607 1.054,-0.579 1.44,0.718 6.729,0.188 1.819,0.56 3.666,-0.33 0.535,0.207 0.48,-0.309 0.767,0.588 1.609,0.025 1.157,-0.473 1.749,0.609 1.124,-0.36 1.376,0.092 1.179,-0.406 2.908,-0.252 2.009,-1.145 1.017,0.795 1.158,-0.367 4.986,-0.16 2.984,0.893 1.066,-0.388 1.677,-0.088 4.504,0.588 0.943,-0.343 0.792,0.263 1.597,-0.094 1.143,-0.556 2.555,-0.564 0.394,0.331 0.787,-0.216 0.388,0.363 1.358,-0.155"
       id="path68" />
  </g>
  <g
     id="g69">
    <path
       fill="none"
       stroke="#000000"
       stroke-width="4"
       stroke-linecap="round"
       stroke-linejoin="round"
       d="m -24.0159,309.98 0.0171,0.367 0.3948,-0.274 0.2371,0.507 0.1667,-0.257 0.5775,0.273 0.9912,-0.174 0.6756,0.826 1.1944,0.4 0.3767,0.765 0.6408,-0.159 0.5126,0.829 2.1024,0.669 2.5524,1.864 0.5949,-0.128 2.4752,1.688 1.00327,0.165 0.66833,1.037 0.55151,-0.466 0.09253,0.403 1.34479,0.565 6.129334,1.164 1.002503,-0.171 0.908933,0.698 1.2558,-0.224 1.62433,0.273 0.95361,-0.469 0.73914,0.422 1.90503,0.189 2.2586,-0.106 1.08699,0.363 0.3555,-0.246 0.8241,0.669 0.4461,-0.382 0.8434,0.4 1.1096,-0.254 2.6746,0.452 5.126,-0.628 0.4657,-0.309 0.4369,0.611 0.4007,-0.659 0.7258,0.404 1.3547,-0.342 0.5057,0.383 0.959,-0.979 0.3253,0.605 1.4886,-0.91 1.5926,-0.174 1.363,-0.686 0.8834,0.304 0.4548,-0.654 0.4575,0.368 1.6734,-0.733 1.2648,0.13 0.609,-0.692 1.4869,-0.36 4.1362,-2.261 0.3465,0.175 1.6087,-1.739 0.7477,-0.069 1.632,-1.547 0.2666,0.07 0.1542,-0.513 0.1895,0.268 -0.0244,-0.482 0.4407,0.066 0.8729,-0.647 0.4863,-0.793 0.0228,0.467 -0.1769,-0.312 -0.0381,0.28"
       id="path69" />
  </g>
  <g
     id="g70">
    <path
       fill="none"
       stroke="#000000"
       stroke-width="4"
       stroke-linecap="round"
       stroke-linejoin="round"
       d="m -19.4036,309.481 0.212,0.026 -0.4275,0.318 -0.4137,2.036 0.4105,2.45 -0.24,3.844 -1.0041,3.05 -0.3898,5.327 -0.2953,-0.039 -0.378,3.761 0.4152,1.448 0.0861,5.635 0.5291,1.955 0.5157,6.142 2.252,6.174 0.5362,3.878 0.8905,1.235 1.4592,4.06 2.8275,4.043 1.5155,3.604 1.09616,0.865 1.26655,2.624 0.48486,0.017 1.10895,1.498 0.45312,-0.07 0.27924,1.024 0.78674,0.328 0.78455,1.469 0.73895,-0.048 0.3681,0.309 1.05579,1.878 1.2655,0.637 2.41327,2.104 4.09869,4.129 0.5539,-0.018 0.66784,1.073 3.57329,3.772 0.4638,0.325 0.3985,-0.159 0.5731,1.019 0.7439,0.374 0.0698,-0.287 -0.1879,-0.164 -0.054,0.869 0.2504,-0.025 -0.1716,-0.848 0.2432,-0.061 -0.1964,0.814 -0.1867,-0.598"
       id="path70" />
  </g>
  <g
     id="g71">
    <path
       fill="none"
       stroke="#000000"
       stroke-width="4"
       stroke-linecap="round"
       stroke-linejoin="round"
       d="m 48.9249,310.824 -0.0586,1.792 1.8704,3.4 1.0189,3.458 0.2598,2.462 0.6156,2.08 0.4347,7.009 0.3924,0.991 -0.3091,5.867 0.1615,2.621 -0.6752,7.282 -0.5564,1.147 -1.0926,4.331 -1.3893,6.876 -1.8908,5.041 -1.3044,2.002 -0.3099,1.498 -0.1797,-0.114 -0.4045,0.682 -2.0166,4.517 -0.3748,0.007 -0.0394,0.467 -0.0881,-0.257 -0.4876,1.787 -1.091,0.878 -0.412,1.266 -0.4132,-0.066 -0.2407,0.801 -0.9742,0.687 -0.7205,1.281 -1.3565,1.344 -0.2979,0.778 -0.3353,-0.425 -0.3536,1.018 -0.6171,0.206 -0.3322,0.802 -0.7382,0.015 -0.7938,1.475 -1.1108,0.646 -0.046,0.337 -1.4492,0.673 -1.5191,1.53 -0.2019,0.679 -0.2959,-0.678 -0.1157,1.06 -0.2571,-0.435 -0.0659,1.008 -0.3532,0.242 -0.5394,-0.755 -0.0492,0.657 -0.8207,0.112 -1.3968,0.955 -0.3932,-0.095 -0.3216,0.946 -0.0427,-0.328 -0.2378,0.147 -0.4007,-0.421 -2.1943,0.936 -0.1946,-0.454 -0.4266,-0.018 -0.1164,0.51 -0.2587,-0.397 -0.6626,0.422 0.0686,-0.454 0.0177,0.488 -0.0039,-0.346"
       id="path71" />
  </g>
  <g
     id="g72">
    <path
       fill="none"
       stroke="#000000"
       stroke-width="4"
       stroke-linecap="round"
       stroke-linejoin="round"
       d="m 16.6951,391.811 -0.5182,-0.048 0.0905,-0.19 0.1166,0.311 -0.3682,2.143 0.424,6.099 -0.3494,3.931 0.6247,4.228 -0.0259,-0.358 -0.1632,0.259 -0.4883,3.391 -0.6343,9.007 0.2856,0.124 0.0252,1.443 0.0628,-0.523 0.0255,0.288 1.4944,0.982 0.8221,-0.388 0.2134,0.182 0.4722,-0.435 0.3364,0.416 2.492,0.342 0.5569,0.429 3.2146,0.017 1.0459,-0.713 0.0967,0.562 0.5853,-0.322 0.3029,0.444 0.5909,-0.359 0.8496,0.404 1.941,-0.752 2.2425,-0.26 0.0855,-0.24 2.3962,-0.028 1.3116,-0.668 2.6208,-0.321 0.3786,-0.415 0.9878,0.507 0.8947,-0.413 2.8324,-0.003 1.4014,-0.432 0.8214,0.367 0.8237,-0.454 5.4999,-0.607 5.9649,-0.177 1.1968,0.497 0.6094,-0.664 0.344,0.514 0.6008,-0.256 0.3537,0.217 0.5265,-0.441 0.2433,0.382 2.327,-0.145 0.9876,0.364 1.3612,-0.615 0.8669,0.737 0.4997,-0.661 0.2194,0.227 0.6916,-0.156 0.4967,-0.417 0.1546,0.292 0.0421,-0.262 0.5663,0.294 1.6397,-0.11 0.3258,-0.273 1.266,0.166 0.7501,-0.472 0.2165,0.338 2.5436,0.108 0.8322,0.462 0.388,-0.598 -0.1383,0.492 0.2201,-0.309 0.284,0.572 0.2679,-0.393 -0.1185,0.661 0.0807,-0.299 0.23,0.281 -0.0663,-0.325 0.5354,0.415"
       id="path72" />
  </g>
  <g
     id="g73">
    <path
       fill="none"
       stroke="#000000"
       stroke-width="4"
       stroke-linecap="round"
       stroke-linejoin="round"
       d="m 2.32123,343.912 -1.963015,0.263 -0.055236,-0.245 0.249145,0.142 -0.746277,0.473 -1.064817,1.812 -0.7218,2.139 -0.16156,1.762 0.41619,2.601 1.005925,1.171 2.101685,0.528 5.35303,-0.391 3.24292,-2.724 2.26828,-2.782 0.9588,-1.959 -0.0777,-1.026 -0.6094,-1.274 -2.2186,-2.294 -1.42435,0.014 -1.81689,-0.883 -1.55695,0.561 -0.8454,1.037"
       id="path73" />
  </g>
  <g
     id="g74">
    <path
       fill="none"
       stroke="#000000"
       stroke-width="4"
       stroke-linecap="round"
       stroke-linejoin="round"
       d="m 21.9627,342.569 -1.0867,4.456 -0.0888,4.696 0.354,-0.805 0.0581,-7.662 1.3154,-4.374 1.4128,-1.367 2.2927,2.201 1.4756,3.246 -0.3858,1.046 -1.4829,0.78 -0.1599,-0.338 0.8396,2.552 1.9075,3.646 1.6923,-0.188"
       id="path74" />
  </g>
  <g
     id="g75">
    <path
       fill="none"
       stroke="#000000"
       stroke-width="4"
       stroke-linecap="round"
       stroke-linejoin="round"
       d="m -20.2171,256.561 -1.6013,0.23 0.1109,-0.837 0.5316,0.498 0.9608,-0.584 6.3932,-0.799 1.6942,0.177 2.62746,-0.295 0.39099,0.314 1.76477,-0.67 1.87927,0.1 0.60065,-0.319 2.28155,0.307 0.12671,0.318 1.0733,0.099 0.485356,0.512 0.100037,-0.535 -0.356203,1.054 0.605226,7.417 -0.201599,5.688 1.125305,8.116 -0.029846,4.705 0.843934,4.102 0.05731,3.211 0.77594,2.001 -0.15576,1.201 0.4986,2.355 -0.06257,7.165 0.11945,-0.321 0.51141,1.884 -0.32306,1.868 0.3501,3.093 -0.02417,6.934 0.15357,0.17 -0.05121,-0.429 0.07757,0.54 0.49414,0.232"
       id="path75" />
  </g>
  <g
     id="g76">
    <path
       fill="none"
       stroke="#000000"
       stroke-width="4"
       stroke-linecap="round"
       stroke-linejoin="round"
       d="m 22.3197,314.608 0.4014,-1.293 0.0655,-9.466 1.1712,-5.646 2.1327,-16.574 1.5046,-6.03 0.6503,-8.43 -0.4085,-3.369 0.0933,-5.293 1.0021,-3.354 0.1109,0.716 -0.0247,-0.287 1.0969,0.086 1.0496,1.194 0.9862,-0.408 1.5575,0.592 3.9351,0.276 2.2952,1.024 1.6958,0.141 3.6535,-0.838 2.7398,-0.223 0.5776,0.024 0.3399,0.384 2.4389,0.275 3.2519,-0.54 1.3817,-0.535 1.9344,0.251 1.4091,-0.292 1.5841,0.37 1.8999,-0.397 0.9372,0.363 0.3164,-0.307 4.1613,-0.077 4.2526,-0.942 3.3047,-0.007 1.5731,-0.902 2.7117,-0.426 3.141,-1.305 0.8915,0.311 1.545,-0.404 0.9024,0.346 2.1525,-0.123 4.7867,-1.077 1.0359,0.594 0.7895,-0.416 3.491,0.292 1.5699,-0.146 0.589,-0.352 0.471,0.079 0.44,0.597 2.521,0.59 4.092,-0.019 0.805,0.349 0.197,-0.589 0.134,0.575 1.75,-0.184 0.84,0.438 2.533,0.331 0.738,-0.262 0.689,0.279 0.363,-0.376 0.132,0.459 0.693,-0.09 0.474,0.308 0.535,-0.513 0.514,0.712 -0.012,-0.677 -0.2,0.555 -0.659,-0.468"
       id="path76" />
  </g>
  <g
     id="g77">
    <path
       fill="none"
       stroke="#000000"
       stroke-width="4"
       stroke-linecap="round"
       stroke-linejoin="round"
       d="m 120.705,258.044 2.502,0.039 -0.295,0.401 -0.431,-0.053 0.869,0.093 1.608,-0.629 4.236,-2.742 1.321,-0.44 2.428,-1.99 10.14,-6.714 -1.004,0.906 -0.419,-0.192 -0.396,0.797 -3.979,2.329 -4.427,1.226 -1.91,1.036 -2.462,0.413 -3.298,1.914 -2.402,0.745 -0.38,-0.221 -0.103,0.383 0.506,1.443 0.038,-0.511 0.51,1.004 1.15,0.732 4.616,4.961 5.946,3.86 8.058,2.348 2.898,0.063 -0.163,-0.245 -0.108,0.572 0.094,-0.516 -0.42,0.125 0.116,-0.342 -0.925,-2.176 -0.291,-2.416 -0.13,-2.727 0.563,-8.365 -0.115,-2.884 -0.154,0.481 -0.113,-0.245 -0.172,-1.268 0.039,0.527 -0.313,-0.284 0.139,0.445 -0.238,-0.421 -0.981,0.846 -1.015,0.145 -4.275,3.009 -0.799,0.633 0.112,0.283 -0.171,-0.289 0.431,-1.191 -0.712,1.326 -3.967,3.681 5.293,-3.776 1.613,-2.147 0.154,-0.936 -0.896,1.36 -2.712,1.802 -0.688,1.167 -1.267,2.947 0.054,1.951 0.611,2.073 1.378,0.357 2.383,-1.124 3.156,-3.105 0.845,-1.661 -0.258,-0.687 -0.428,1.178 -0.675,-0.186 -2.01,2.07 -1.706,2.335 0.062,0.387 0.537,-0.978 3.001,-1.561 2.477,-2.186 1.277,-2.185 0.389,-0.001 -0.636,0.178 -0.216,0.886 -0.259,-0.133 -0.57,0.541 -1.276,1.851 -0.391,1.36 0.388,-0.983 0.521,-0.191 1.699,-1.981 1.706,-1.404 0.315,-0.526 -0.608,0.21 -1.101,3.649 -0.154,2.563 -0.013,-0.613 0.149,0.23 0.082,-0.605 2.224,-3.095 10e-4,-0.382 -0.232,0.135 -0.097,0.729 -2.386,2.65 0.397,-0.023 -0.06,-0.455 0.381,0.127 -0.045,-1.041 0.647,-0.014 0.875,-1.039"
       id="path77" />
  </g>
  <g
     id="g78">
    <path
       fill="none"
       stroke="#000000"
       stroke-width="4"
       stroke-linecap="round"
       stroke-linejoin="round"
       d="m 178.31,212.991 1.599,-0.545 -2.574,0.377 -2.821,1.49 -1.412,1.321 -1.697,2.864 -0.734,2.317 -0.023,1.37 1.81,5.409 1.906,1.287 2.189,-0.469 2.999,-3.328 0.587,-1.784 -0.243,-2.068 -0.924,0.419 -1.139,-0.276 0.002,-0.242 0.506,0.124 0.136,-0.28 0.206,0.563 1.853,0.179 1.713,0.782 0.146,-0.836"
       id="path78" />
  </g>
  <g
     id="g79">
    <path
       fill="none"
       stroke="#000000"
       stroke-width="4"
       stroke-linecap="round"
       stroke-linejoin="round"
       d="m 197.209,212.361 -0.968,1.016 -0.957,2.304 -2.155,9.199 0.399,0.539 1.493,0.193 1.135,1.165 1.118,-0.742 1.683,0.038 0.313,-0.431"
       id="path79" />
  </g>
  <g
     id="g80">
    <path
       fill="none"
       stroke="#000000"
       stroke-width="4"
       stroke-linecap="round"
       stroke-linejoin="round"
       d="m 213.377,215.369 -1.439,1.619 -1.263,2.231 -1.216,3.517 0.432,0.824 1.426,0.893 3.213,-0.194 0.996,-0.487 1.966,-1.526 2.563,-3.918 0.602,-0.453 -0.271,-1.244 -1.519,-0.599 -2.787,0.212 -3.461,1.046 -2.358,-0.184"
       id="path80" />
  </g>
  <g
     id="g81">
    <path
       fill="none"
       stroke="#000000"
       stroke-width="4"
       stroke-linecap="round"
       stroke-linejoin="round"
       d="m 230.986,215.057 1.736,-0.636 -0.471,-0.523 -0.585,1.201 -1.085,5.967 0.355,-1.329 -0.291,-10.758 0.304,-0.982 0.141,0.784 0.893,-0.292 0.456,0.278 4.944,0.612 0.736,0.495 0.433,0.993 0.17,1.529 -0.272,1.726 -0.483,1.405 -1.511,0.819 -0.862,-0.033 -0.357,0.568 0.241,-0.145 0.179,0.274 0.174,-0.517 2.93,1.225 2.683,1.917 -2.646,3.253 -2.756,1.731 -0.833,0.285 -1.504,-0.082 -0.529,0.396 -1.832,0.256 -0.46,-0.15"
       id="path81" />
  </g>
  <g
     id="g82">
    <path
       fill="none"
       stroke="#000000"
       stroke-width="4"
       stroke-linecap="round"
       stroke-linejoin="round"
       d="m 245.517,222.468 0.666,-2.386 1.549,-3.135 3.753,-6.258 0.86,-0.439 0.777,-1.249 -0.197,0.581 1.374,2.154 0.392,3.12 -0.17,2.621 -1.177,5.92"
       id="path82" />
  </g>
  <g
     id="g83">
    <path
       fill="none"
       stroke="#000000"
       stroke-width="4"
       stroke-linecap="round"
       stroke-linejoin="round"
       d="m 249.445,216.151 2.35,-0.359 -0.264,0.646 -0.397,0.105 -0.316,-0.588 1.073,0.82 1.329,0.079"
       id="path83" />
  </g>
  <g
     id="g84">
    <path
       fill="none"
       stroke="#000000"
       stroke-width="4"
       stroke-linecap="round"
       stroke-linejoin="round"
       d="m 268.023,208.279 -0.133,0.588 -0.029,-0.514 -0.576,0.978 -0.475,1.436 -1.395,6.017 0.112,4.062 0.281,0.334 0.65,-0.526 1.688,-0.19 3.617,-1.786 3.11,-0.975 0.596,-0.094 0.904,0.623"
       id="path84" />
  </g>
  <g
     id="g85">
    <path
       fill="none"
       stroke="#000000"
       stroke-width="4"
       stroke-linecap="round"
       stroke-linejoin="round"
       d="m 183.201,248.124 -2.299,9.934 -0.403,3.982 0.946,-0.418 3.472,1.094 2.934,-1.172 3.291,-1.87 0.32,-0.82"
       id="path85" />
  </g>
  <g
     id="g86">
    <path
       fill="none"
       stroke="#000000"
       stroke-width="4"
       stroke-linecap="round"
       stroke-linejoin="round"
       d="m 183.647,254.941 0.215,-0.416 2.422,-1.001 3.657,0.667 0.835,-0.42"
       id="path86" />
  </g>
  <g
     id="g87">
    <path
       fill="none"
       stroke="#000000"
       stroke-width="4"
       stroke-linecap="round"
       stroke-linejoin="round"
       d="m 187.129,246.993 -0.008,-0.243 -0.171,0.262 5.332,-0.252 2.416,-0.589 0.796,-1.521"
       id="path87" />
  </g>
  <g
     id="g88">
    <path
       fill="none"
       stroke="#000000"
       stroke-width="4"
       stroke-linecap="round"
       stroke-linejoin="round"
       d="m 204.451,259.604 -0.145,0.361 -0.195,-0.177 0.271,-1.077 -0.13,-1.26 0.469,-1.782 1.494,-3.105 1.017,-0.93 1.214,-2.982 1.612,3.488 1.8,9.146 0.953,0.024 0.227,-0.691 4.025,-4.804 4.791,-7.764 0.522,-0.402 -0.579,0.752 -1.066,-1.37"
       id="path88" />
  </g>
  <g
     id="g89">
    <path
       fill="none"
       stroke="#000000"
       stroke-width="4"
       stroke-linecap="round"
       stroke-linejoin="round"
       d="m 232.291,258.764 -1.141,0.416 0.678,-0.896 0.68,-3.166 3.793,-9.606 0.951,-1.415 0.59,-1.749 0.395,-0.145 -0.163,1.139 1.376,3.049 0.939,6.135 -0.041,3.244 -1.742,11.969 0.163,1.09"
       id="path89" />
  </g>
  <g
     id="g90">
    <path
       fill="none"
       stroke="#000000"
       stroke-width="4"
       stroke-linecap="round"
       stroke-linejoin="round"
       d="m 235.25,252.871 0.099,0.331 3.187,0.363 1.051,-0.236 0.387,-1.177"
       id="path90" />
  </g>
  <g
     id="g91">
    <path
       fill="none"
       stroke="#000000"
       stroke-width="4"
       stroke-linecap="round"
       stroke-linejoin="round"
       d="m -258.107,301.862 0.3,5.341 0.98,5.137 -0.136,2.243 0.307,1.414 -0.669,6.286 0.018,6.131 -0.453,1.977 0.519,3.192 -0.492,3.083 0.072,4.123 0.745,6.525 -0.046,-0.475 0.365,0.49"
       id="path91" />
  </g>
  <g
     id="g92">
    <path
       fill="none"
       stroke="#000000"
       stroke-width="4"
       stroke-linecap="round"
       stroke-linejoin="round"
       d="m -258.909,376.95 0.093,11.198 0.341,2.688 -0.324,3.795 0.081,8.039 -0.683,4.656 -0.519,7.381 0.613,11.776 -0.467,5.484 0.371,2.228 -0.357,2.927 -0.4,0.649 0.023,2.569 -0.517,4.289 0.242,4.508 -0.503,1.996"
       id="path92" />
  </g>
  <g
     id="g93">
    <path
       fill="none"
       stroke="#000000"
       stroke-width="4"
       stroke-linecap="round"
       stroke-linejoin="round"
       d="m -263.908,483.8 0.073,8.39 -0.323,2.809 0.806,6.482 0.044,9.281 0.666,4.832 0.071,8.426 0.953,3.656 0.007,9.866 0.41,9.278 -0.598,7.016 -0.707,3.683 0.126,2.422 -0.64,4.239 -0.357,8.878 -1.068,5.527 0.125,4.105 -1.008,4.529 -1.444,11.755 -0.545,1.097 -0.668,2.896 0.673,6.428 -0.104,3.655 -0.45,1.802 0.044,6.26 -0.674,4.745 -0.345,9.559 0.23,13.748 -0.355,2.989 0.726,8.399 -0.385,9.009"
       id="path93" />
  </g>
  <g
     id="g94">
    <path
       fill="none"
       stroke="#000000"
       stroke-width="4"
       stroke-linecap="round"
       stroke-linejoin="round"
       d="m -279.895,699.5 -0.778,1.041 0.819,-0.883 1.51,-4.983 3.452,-8.508 2.267,-8.322 0.548,-0.323 2.431,-3.862 -0.206,0.713 1.594,2.768 2.333,6.737 2.676,11.481 0.907,4.664 -0.182,0.146 0.394,0.696 -0.096,0.806 -0.221,-0.413 -2.547,0.739 -2.02,0.166 -2.44,0.849 -2.24,-0.238 -3.827,0.757 -2.468,0.842 -1.074,0.82 0.081,-0.262 0.133,0.298 0.683,-2.775 1.825,-4.721 3.145,-12.538 0.118,0.838 0.32,-0.612 0.151,3.766 -0.756,7.225 0.079,1.796 0.265,0.283 0.517,-0.114 2.878,-6.092 1.069,-2.97 0.008,-1.092 -0.49,0.952 -0.635,5.157 0.174,9.441 0.999,-2.74 1.281,-6.155 0.322,-2.785 -0.361,-1.379 -0.218,1.185 -0.46,0.403 -2.276,5.23 2.832,-2.215 2.914,-4.84 -1.203,5.657 0.278,4.269 0.304,-1.195 1.928,-3.7 0.43,-2.494"
       id="path94" />
  </g>
  <g
     id="g95">
    <path
       fill="none"
       stroke="#000000"
       stroke-width="4"
       stroke-linecap="round"
       stroke-linejoin="round"
       d="m -291.784,723.688 -3.61,1.397 -1.624,1.148 -1.826,1.618 -3.529,4.299 -1.909,4.285 -0.138,2.485 0.66,3.088 1.874,2.85 3.119,2.471 1.059,0.259 3.337,-0.691 0.934,-0.655 1.451,-1.795 1.19,-2.818 0.018,-1.772 -0.602,-2.88 -1.262,-2.816 -0.588,-0.265 -1.106,0.694 0.597,-0.219 1.225,0.78 1.874,0.363 4.97,-1.145"
       id="path95" />
  </g>
  <g
     id="g96">
    <path
       fill="none"
       stroke="#000000"
       stroke-width="4"
       stroke-linecap="round"
       stroke-linejoin="round"
       d="m -273.269,723.742 -0.636,0.166 -0.368,0.945 -2.19,8.349 -0.346,5.575 0.226,1.648 0.64,1.62 0.934,1.495 4.119,0.584 0.867,-0.319 4.023,-3.432 0.355,-1.54"
       id="path96" />
  </g>
  <g
     id="g97">
    <path
       fill="none"
       stroke="#000000"
       stroke-width="4"
       stroke-linecap="round"
       stroke-linejoin="round"
       d="m -257.313,728.879 -1.188,0.739 -0.563,0.004 -2.278,4.816 -0.518,4.446 0.218,2.703 1.058,2.262 1.607,1.189 1.873,0.146 2.074,-0.418 2.18,-1.129 1.062,-1.23 2.412,-4.328 1.504,-4.447 0.013,-1.236 -0.234,-0.915 -1.147,-1.737 -5.984,-3.257"
       id="path97" />
  </g>
  <g
     id="g98">
    <path
       fill="none"
       stroke="#000000"
       stroke-width="4"
       stroke-linecap="round"
       stroke-linejoin="round"
       d="m -235.335,728.988 -1.215,0.809 -1.27,3.102 0.35,6.451 0.363,-0.485 -0.456,-8.388 -0.943,-5.363 0.615,-0.861 1.14,-0.315 1.451,0.135 2.987,1.485 0.631,0.549 1.777,3.034 -0.079,1.63 -0.339,-0.049 -1.73,1.644 -3.812,2.735 1.015,-0.682 6.818,-0.082 1.312,0.814 0.734,1.126 -0.02,1.617 -1.126,1.951 -1.546,1.846 -3.667,3.459 -2.895,0.849 -1.388,-0.509 -1.009,-1.449"
       id="path98" />
  </g>
  <g
     id="g99">
    <path
       fill="none"
       stroke="#000000"
       stroke-width="4"
       stroke-linecap="round"
       stroke-linejoin="round"
       d="m -219.299,742.392 -1.228,0.886 1.307,-2.87 3.151,-9.801 1.94,-3.63 0.744,-0.718 0.109,0.879 0.717,0.044 0.345,0.442 1.535,4.16 0.622,11.167"
       id="path99" />
  </g>
  <g
     id="g100">
    <path
       fill="none"
       stroke="#000000"
       stroke-width="4"
       stroke-linecap="round"
       stroke-linejoin="round"
       d="m -215.073,734.035 0.046,-0.511 0.165,0.399 2.115,1.15 4.216,-0.738"
       id="path100" />
  </g>
  <g
     id="g101">
    <path
       fill="none"
       stroke="#000000"
       stroke-width="4"
       stroke-linecap="round"
       stroke-linejoin="round"
       d="m -194.829,723.185 -0.119,-0.362 -0.025,0.96 -0.489,0.627 -2.892,10.222 -0.474,2.437 0.326,2.469 0.71,0.745 2.623,1.081 2.05,0.214 5.253,-2.409 1.487,-1.914"
       id="path101" />
  </g>
  <g
     id="g102">
    <path
       fill="none"
       stroke="#000000"
       stroke-width="4"
       stroke-linecap="round"
       stroke-linejoin="round"
       d="m -271.854,230.091 0.012,0.61 -1.428,2.202 0.109,2.475 0.95,2.836 0.614,1.004 0.848,0.271 0.278,-0.343 0.877,0.265 0.991,-0.332 1.409,0.624 2.458,-0.679 2.732,-1.301 1.503,-1.59 0.532,-0.85 0.537,-2.011 0.107,-1.286 -0.4,-1.223 -1.583,-1.892 -0.712,-0.373 -0.491,-1.164 -0.49,0.294 -1.069,-0.013 -3.538,-0.544 -0.518,-0.511 -0.015,0.715 -1.397,1.953 -1.956,1.538"
       id="path102" />
  </g>
  <g
     id="g103">
    <path
       fill="none"
       stroke="#000000"
       stroke-width="4"
       stroke-linecap="round"
       stroke-linejoin="round"
       d="m -273.226,277.541 -0.529,-0.002 -0.203,0.262 0.212,0.147 0.171,-0.487 8.28,-7.292 2.539,-1.957 1.88,-1 -0.123,1.003 0.623,2.539 -0.034,2.778 -0.851,7.68 0.916,0.858 0.421,-0.011"
       id="path103" />
  </g>
  <g
     id="g104">
    <path
       fill="none"
       stroke="#000000"
       stroke-width="4"
       stroke-linecap="round"
       stroke-linejoin="round"
       d="m -288.254,786.859 -2.983,1.654 0.247,0.488 -0.215,2.578 0.056,0.358 0.239,-0.199 0.026,-4.202 1.876,-15.962 0.457,-1.594 0.262,-0.31 0.345,0.089 0.289,2.009 1.389,3.598 0.778,0.792 2.104,0.267 2.704,-0.48 0.829,-0.602 1.595,-1.276 1.425,-1.752 1.336,-0.92 1.736,-2.034 0.393,2.059 -0.444,10.957 -0.568,4.163 -0.992,2.052"
       id="path104" />
  </g>
  <g
     id="g105">
    <path
       fill="none"
       stroke="#000000"
       stroke-width="4"
       stroke-linecap="round"
       stroke-linejoin="round"
       d="m -257.368,775.529 -1.065,0.54 -1.184,2.947 0.036,1.353 1.011,2.977 1.464,0.989 1.705,0.456 2.074,-0.488 1.091,-0.687 1.93,-1.933 2.041,-4.371 0.065,-1.643 -0.508,-1.982 -1.104,-0.098 -2.749,-1.21 -3.002,0.517 -1.311,0.89 -0.635,1.078 -2.38,2.472"
       id="path105" />
  </g>
  <g
     id="g106">
    <path
       fill="none"
       stroke="#000000"
       stroke-width="4"
       stroke-linecap="round"
       stroke-linejoin="round"
       d="m -238.375,776.816 0.135,5.362 -0.286,4.109 0.24,1.732 0.533,-8.107 -0.989,-6.785 -0.036,0.646 0.137,-0.51 0.272,0.593 1.659,-0.115 3.522,1.556 2.699,1.826 1.969,2.869 0.741,3.916 -0.641,1.132 -3.738,2.617 -1.239,0.293 -5.205,2.387 -0.324,0.081 -0.085,-0.5 1.255,-2.551"
       id="path106" />
  </g>
  <g
     id="g107">
    <path
       fill="none"
       stroke="#000000"
       stroke-width="4"
       stroke-linecap="round"
       stroke-linejoin="round"
       d="m -213.548,778.473 -0.12,0.465 0.025,-0.472 0.078,0.292 1.222,0.405 1.905,0.067 1.688,-0.451 0.857,-0.595 1.028,-2.451 0.167,-2.34 -0.382,-2.118 -0.873,-0.854 -1.574,0.016 -0.809,0.655 -3.733,0.758 -0.651,0.395 -0.369,-0.326 -0.737,0.025 -0.757,0.5 -2.838,3.533 0.651,0.613 4.112,7.572 2.249,1.826 1.203,0.62 5.224,1.027 1.706,-0.147 2.123,-0.715"
       id="path107" />
  </g>
  <g
     id="g108">
    <path
       fill="none"
       stroke="#000000"
       stroke-width="4"
       stroke-linecap="round"
       stroke-linejoin="round"
       d="m -263.548,573.587 -0.09,-1.306 -0.229,0.246 0.338,0.244 -0.311,0.173 0.103,0.434 0.092,-0.593 1.692,0.321 1.456,-0.46 1.285,0.362 2.521,-0.682 1.269,0.289 4.171,-0.393 11.955,-1.909 0.537,0.051 0.733,0.905 1.262,-0.076 1.875,0.89 0.696,-0.022 3.194,-0.583 2.151,-0.005 2.533,-1.349 1.176,-0.256 1.608,0.312 2.223,-0.482 12.795,0.391 5.437,-0.169 3.194,0.478 1.941,0.662 7.056,0.849 7.65,-0.974 1.661,-0.468 -0.346,0.449 5.34,1.443 3.346,0.027 3.869,-0.421 0.591,0.226 0.604,-0.399 0.434,0.691 1.764,-0.884 0.846,-0.041 0.539,0.308 2.622,-0.8 1.42,0.511 1.671,-0.491 6.723,-0.375 16.185,0.263 1.6,-0.374 3.606,-0.128 1.689,0.271 2.537,-0.151 1.391,0.316 0.752,-0.104 0.72,-0.663 0.877,-0.081 2.022,0.878 1.896,-0.172 1.924,0.391 0.869,-0.458 1.835,0.011 2.284,-0.659 1.178,-0.027 2.167,0.572 5.69,0.124 10.3779,-1.544 1.6022,0.126 1.0722,0.482 0.4423,-0.278 1.1303,0.049 0.9298,0.437 0.5116,-0.36 0.4962,0.264 3.7795,-0.544 0.5744,-0.323 1.9948,0.334 2.2397,-0.326 11.4077,0.129 2.1295,-0.368 2.1758,0.568 0.9144,-0.045 1.7558,-1.223 0.5733,0.285 0.2849,-0.443 0.3249,-0.026 0.779,0.819 1.4138,-0.767 1.0798,0.153 1.0458,-0.507 2.9384,0.015 0.6587,0.252 4.3655,-0.965 1.8789,0.829 2.1221,-0.615 2.4549,0.06 0.4581,-0.306 1.7569,0.476 0.4029,-0.076 -0.1209,-0.191 0.1904,0.359 0.4613,-0.355 2.8244,-0.012 0.7629,-0.336 1.5054,0.307 0.9253,-0.363 -0.088,0.581 -0.0169,-0.683 0.0673,0.32 -0.262,-0.062"
       id="path108" />
  </g>
  <g
     id="g109">
    <path
       fill="none"
       stroke="#000000"
       stroke-width="4"
       stroke-linecap="round"
       stroke-linejoin="round"
       d="m -29.2834,509.863 -0.1264,-2.764 -0.0682,0.982 0.9789,2.082 0.3487,3.785 -0.0441,5.544 -1.0183,8.08 0.7251,6.348 -0.0698,5.789 -0.0821,2.653 -0.6973,3.851 0.2469,4.013 -0.3512,0.588 -0.0188,5.18 -0.741,3.135 0.1491,-0.268 0.2126,1.375 -0.2868,-0.124 0.0442,4.903 -0.3206,1.302 0.2434,1.502 -0.2175,1.261 0.1685,-0.441 0.37,2.423 0.7894,1.135"
       id="path109" />
  </g>
  <g
     id="g110">
    <path
       fill="none"
       stroke="#000000"
       stroke-width="4"
       stroke-linecap="round"
       stroke-linejoin="round"
       d="m -28.48,507.22 -0.0797,-0.992 0.4335,0.249 1.0939,-0.835 0.5676,0.327 6.1305,-0.602 1.6966,0.268 0.7693,-0.209 1.3511,0.442 0.534,-0.335 2.4616,-0.198 2.5061,0.291 1.26648,-0.227 1.52087,0.676 2.21155,-0.577 2.18225,0.74 3.617187,-0.301 6.322143,0.645 4.74922,-0.007 1.2207,0.337 1.8068,-0.764 0.5754,0.337 1.3787,-0.351 0.5435,0.34 0.8034,-0.411 0.4753,0.43 2.3158,-0.273 2.7402,0.417 4.6428,-0.182 5.2672,0.807 1.0037,-0.114 0.2627,0.274 0.7824,-0.33 0.8263,0.42 0.7132,-0.564 1.5483,0.816 2.757,-0.289 1.3465,0.426 1.1736,-0.939 0.574,0.048 1.1655,1.176 1.7924,-0.461 4.9134,-0.027 2.6148,0.788 1.5423,-0.661 1.0678,0.599 1.2838,-0.611 0.4437,0.361 1.3365,-0.208 0.6632,0.372 0.6939,-0.759 0.837,0.635 0.9302,-0.281 0.5263,0.187 0.2253,-0.265 1.3871,0.388 1.177,-0.288 0.4746,-0.455 0.594,0.491 -0.0953,-0.245 3.6168,-0.01 -0.2464,-0.347 0.2331,-0.008 -0.0931,0.668 0.2097,-0.986 -0.1383,0.868 1.4641,-1.113 0.5153,0.189 -0.4453,-0.111 0.0887,0.605 0.0291,-0.79 0.1006,0.354"
       id="path110" />
  </g>
  <g
     id="g111">
    <path
       fill="none"
       stroke="#000000"
       stroke-width="4"
       stroke-linecap="round"
       stroke-linejoin="round"
       d="m 369.883,459.253 -10e-4,-0.336 -0.101,0.701 -0.324,0.174 0.533,-0.159 0.616,0.646 2.543,0.983 13.775,2.497 10.687,0.908 1.421,0.485 -0.634,0.225 -0.326,0.955 -2.178,2.145 -12.177,6.275 -9.549,3.727 -5.957,1.593 -1.432,0.839 -3.09,0.413 -0.13,-0.227 0.363,0.432 -0.047,-0.45 2.485,-3.13 1.065,-2.225 0.281,-2.436 -0.608,-2.564 0.444,-2.794 0.64,-0.911 -0.154,-0.277 -0.123,0.293 -0.082,-1.797 -0.007,0.946 0.008,-0.888 0.47,0.291 3.275,0.065 4.707,-0.394 3.28,-0.747 -8.955,6.395 -0.818,2.072 0.684,0.646 1.151,-1.003 9.755,-4.006 1.956,-1.289 -0.71,0.327 -0.945,1.103 -3.74,2.205 -3.273,2.627 -0.619,0.859 0.293,1.152 0.384,-0.777 0.881,-0.059 2.65,-1.251 4.582,-2.771 1.936,-1.814 -0.278,-0.382 -1.207,0.914 -0.44,-0.076 -0.846,0.551 -2.343,0.449 -8.003,2.488 -1.466,0.813 -2.208,0.579 -0.319,0.404 0.173,0.414 0.713,-0.315 4.543,-5.443 2.967,-3.631 0.037,-0.547 -0.164,-0.328 -0.798,-0.166 -2.069,0.957 -1.449,0.146 -1.338,1.213 -2.931,1.168 0.709,-3.684 -0.026,-1.587 -0.045,0.462 -0.346,-0.201 0.634,7.565 0.518,2.569 0.827,1.941 3.249,-2.049 4.706,-3.724 3.8,-1.666 1.943,-0.166 0.745,0.882 0.178,-0.489 -0.172,0.423 -0.033,-0.302 -0.821,0.748 -1.779,2.478 0.157,0.224 1.197,-0.098 9.821,-3.929 -0.131,0.464 -1.039,0.197 -1.28,1.661"
       id="path111" />
  </g>
  <g
     id="g112">
    <path
       fill="none"
       stroke="#000000"
       stroke-width="4"
       stroke-linecap="round"
       stroke-linejoin="round"
       d="m 430.414,440.133 2.548,-0.21 -0.244,0.294 -0.821,-0.391 0.147,0.409 0.089,-0.321 0.308,7.415 1.017,6.961 0.979,3.386 0.396,0.07 0.262,0.795 0.363,-1.182 1.299,-0.186 0.872,-0.697 2.005,-2.552 0.887,-1.498 2.295,-5.816 -0.142,0.628 1.087,5.61 0.408,7.735 0.68,2.722 0.562,0.442 0.352,-0.658 0.438,0.323 0.469,-0.329 2.306,-2.403 3.717,-3.008 8.33,-9.349 2.114,-3.921 0.149,-0.62 -0.418,0.321 0.081,0.536 0.264,-0.445"
       id="path112" />
  </g>
  <g
     id="g113">
    <path
       fill="none"
       stroke="#000000"
       stroke-width="4"
       stroke-linecap="round"
       stroke-linejoin="round"
       d="m 481.291,448.496 -1.091,0.435 -0.004,0.398 0.619,0.204 2.461,-0.297 1.307,-0.583 3.81,-2.586 1.734,-1.867 -0.652,0.51 -0.438,-0.029 -0.032,-0.603 -1.209,-1.513 -1.361,-3.934 -0.738,0.337 -1.299,-0.146 -0.778,-0.488 -3.806,0.036 -1.061,1.176 -0.96,0.144 -1.432,1.514 -1.416,0.923 -2.05,2.885 -0.438,1.633 0.032,2.791 0.609,1.923 0.763,0.278 0.149,0.738 0.481,0.019 1.453,1.994 1.154,0.096 0.95,0.956 2.505,1.287 0.402,0.642 1.074,-0.171 0.645,0.53 1.492,0.047 0.558,0.574 0.912,-0.339 1.091,0.524 1.374,-0.577 1.59,0.154 1.95,-0.609 4.905,-0.646"
       id="path113" />
  </g>
</g>
<metadata
   id="metadata113">
  <rdf:RDF>
    <cc:Work
       rdf:about="">
      <dc:title>Regfile</dc:title>
    </cc:Work>
  </rdf:RDF>
</metadata>
</svg>
